M48
;DRILL file {KiCad (5.0.0-rc2-dev-720-g9704891c8)} date 05/14/18 16:38:58
;FORMAT={-:-/ absolute / inch / decimal}
FMAT,2
INCH,TZ
T1C0.0315
T2C0.0354
T3C0.1260
%
G90
G05
M72
T1
X2.95Y-1.9984
X2.95Y-2.5984
X3.05Y-1.9984
X3.05Y-2.5984
X3.15Y-1.9984
X3.15Y-2.5984
X3.25Y-1.9984
X3.25Y-2.5984
X3.35Y-1.9984
X3.35Y-2.5984
X3.45Y-1.9984
X3.45Y-2.5984
X3.55Y-1.9984
X3.55Y-2.5984
X3.65Y-1.9984
X3.65Y-2.5984
X3.75Y-1.9984
X3.75Y-2.5984
X3.85Y-1.9984
X3.85Y-2.5984
X3.95Y-1.9984
X3.95Y-2.5984
X4.05Y-1.9984
X4.05Y-2.5984
X4.15Y-1.9984
X4.15Y-2.5984
X4.25Y-1.9984
X4.25Y-2.5984
X4.35Y-1.9984
X4.35Y-2.5984
X4.45Y-1.9984
X4.45Y-2.5984
X4.7244Y-1.885
X4.7244Y-2.185
X4.8244Y-1.885
X4.8244Y-2.185
X4.9244Y-1.885
X4.9244Y-2.185
X2.9Y-2.1484
X2.9Y-2.4484
X3.Y-2.1484
X3.Y-2.4484
X3.1Y-2.1484
X3.1Y-2.4484
X3.2Y-2.1484
X3.2Y-2.4484
X3.3Y-2.1484
X3.3Y-2.4484
X3.4Y-2.1484
X3.4Y-2.4484
X3.5Y-2.1484
X3.5Y-2.4484
X3.6Y-2.1484
X3.6Y-2.4484
X3.3047Y-0.9945
X3.3047Y-1.5945
X3.4047Y-0.9945
X3.4047Y-1.5945
X3.5047Y-0.9945
X3.5047Y-1.5945
X3.6047Y-0.9945
X3.6047Y-1.5945
X3.7047Y-0.9945
X3.7047Y-1.5945
X3.8047Y-0.9945
X3.8047Y-1.5945
X3.9047Y-0.9945
X3.9047Y-1.5945
X4.0047Y-0.9945
X4.0047Y-1.5945
X4.1047Y-0.9945
X4.1047Y-1.5945
X4.2047Y-0.9945
X4.2047Y-1.5945
X4.3047Y-0.9945
X4.3047Y-1.5945
X4.4047Y-0.9945
X4.4047Y-1.5945
X4.5047Y-0.9945
X4.5047Y-1.5945
X4.6047Y-0.9945
X4.6047Y-1.5945
X4.7047Y-0.9945
X4.7047Y-1.5945
X3.775Y-2.1484
X3.775Y-2.4484
X3.875Y-2.1484
X3.875Y-2.4484
X3.975Y-2.1484
X3.975Y-2.4484
X4.075Y-2.1484
X4.075Y-2.4484
X4.175Y-2.1484
X4.175Y-2.4484
X4.275Y-2.1484
X4.275Y-2.4484
X4.375Y-2.1484
X4.375Y-2.4484
X4.475Y-2.1484
X4.475Y-2.4484
X4.3059Y-2.7963
X4.3059Y-2.9931
X2.952Y-1.2205
X2.952Y-1.8205
X3.052Y-1.2205
X3.052Y-1.8205
X3.152Y-1.2205
X3.152Y-1.8205
X3.252Y-1.2205
X3.252Y-1.8205
X3.352Y-1.2205
X3.352Y-1.8205
X3.452Y-1.2205
X3.452Y-1.8205
X3.552Y-1.2205
X3.552Y-1.8205
X3.652Y-1.2205
X3.652Y-1.8205
X3.752Y-1.2205
X3.752Y-1.8205
X3.852Y-1.2205
X3.852Y-1.8205
X3.952Y-1.2205
X3.952Y-1.8205
X4.052Y-1.2205
X4.052Y-1.8205
X4.152Y-1.2205
X4.152Y-1.8205
X4.252Y-1.2205
X4.252Y-1.8205
X3.1583Y-2.7512
X3.1583Y-3.0512
X3.2583Y-2.7512
X3.2583Y-3.0512
X3.3583Y-2.7512
X3.3583Y-3.0512
X3.4583Y-2.7512
X3.4583Y-3.0512
X3.5583Y-2.7512
X3.5583Y-3.0512
X3.6583Y-2.7512
X3.6583Y-3.0512
X3.7583Y-2.7512
X3.7583Y-3.0512
X3.8583Y-2.7512
X3.8583Y-3.0512
X4.1559Y-2.7431
X4.1559Y-3.0431
X4.0309Y-2.7431
X4.0309Y-3.0431
T2
X4.9081Y-2.5585
X5.0081Y-2.5585
X4.6581Y-2.5585
X4.7581Y-2.5585
T3
X2.9331Y-0.9646
X4.9409Y-0.9646
X2.9331Y-2.9724
X4.9409Y-2.9724
T0
M30
