G04 #@! TF.GenerationSoftware,KiCad,Pcbnew,(5.0.0-rc2-dev-720-g9704891c8)*
G04 #@! TF.CreationDate,2018-05-14T16:41:22+09:00*
G04 #@! TF.ProjectId,eeprom_programmer,656570726F6D5F70726F6772616D6D65,rev?*
G04 #@! TF.SameCoordinates,Original*
G04 #@! TF.FileFunction,Copper,L2,Bot,Signal*
G04 #@! TF.FilePolarity,Positive*
%FSLAX46Y46*%
G04 Gerber Fmt 4.6, Leading zero omitted, Abs format (unit mm)*
G04 Created by KiCad (PCBNEW (5.0.0-rc2-dev-720-g9704891c8)) date 05/14/18 16:41:22*
%MOMM*%
%LPD*%
G01*
G04 APERTURE LIST*
%ADD10C,1.600000*%
%ADD11O,1.600000X1.600000*%
%ADD12R,1.600000X1.600000*%
%ADD13R,1.800000X1.800000*%
%ADD14C,1.800000*%
%ADD15C,6.400000*%
%ADD16C,0.250000*%
G04 APERTURE END LIST*
D10*
X109370000Y-71025000D03*
X109370000Y-76025000D03*
D11*
X98000000Y-69880000D03*
X80220000Y-77500000D03*
X95460000Y-69880000D03*
X82760000Y-77500000D03*
X92920000Y-69880000D03*
X85300000Y-77500000D03*
X90380000Y-69880000D03*
X87840000Y-77500000D03*
X87840000Y-69880000D03*
X90380000Y-77500000D03*
X85300000Y-69880000D03*
X92920000Y-77500000D03*
X82760000Y-69880000D03*
X95460000Y-77500000D03*
X80220000Y-69880000D03*
D12*
X98000000Y-77500000D03*
D13*
X118315000Y-64985000D03*
D14*
X120855000Y-64985000D03*
D12*
X113030000Y-50760000D03*
D11*
X74930000Y-66000000D03*
X110490000Y-50760000D03*
X77470000Y-66000000D03*
X107950000Y-50760000D03*
X80010000Y-66000000D03*
X105410000Y-50760000D03*
X82550000Y-66000000D03*
X102870000Y-50760000D03*
X85090000Y-66000000D03*
X100330000Y-50760000D03*
X87630000Y-66000000D03*
X97790000Y-50760000D03*
X90170000Y-66000000D03*
X95250000Y-50760000D03*
X92710000Y-66000000D03*
X92710000Y-50760000D03*
X95250000Y-66000000D03*
X90170000Y-50760000D03*
X97790000Y-66000000D03*
X87630000Y-50760000D03*
X100330000Y-66000000D03*
X85090000Y-50760000D03*
X102870000Y-66000000D03*
X82550000Y-50760000D03*
X105410000Y-66000000D03*
X80010000Y-50760000D03*
X107950000Y-66000000D03*
X77470000Y-50760000D03*
X110490000Y-66000000D03*
X74930000Y-50760000D03*
X113030000Y-66000000D03*
X105560000Y-69675000D03*
D10*
X105560000Y-77295000D03*
D14*
X127205000Y-64985000D03*
D13*
X124665000Y-64985000D03*
D12*
X91440000Y-62190000D03*
D11*
X73660000Y-54570000D03*
X88900000Y-62190000D03*
X76200000Y-54570000D03*
X86360000Y-62190000D03*
X78740000Y-54570000D03*
X83820000Y-62190000D03*
X81280000Y-54570000D03*
X81280000Y-62190000D03*
X83820000Y-54570000D03*
X78740000Y-62190000D03*
X86360000Y-54570000D03*
X76200000Y-62190000D03*
X88900000Y-54570000D03*
X73660000Y-62190000D03*
X91440000Y-54570000D03*
X102385000Y-69675000D03*
D10*
X102385000Y-77295000D03*
D12*
X119500000Y-40500000D03*
D11*
X86480000Y-25260000D03*
X116960000Y-40500000D03*
X89020000Y-25260000D03*
X114420000Y-40500000D03*
X91560000Y-25260000D03*
X111880000Y-40500000D03*
X94100000Y-25260000D03*
X109340000Y-40500000D03*
X96640000Y-25260000D03*
X106800000Y-40500000D03*
X99180000Y-25260000D03*
X104260000Y-40500000D03*
X101720000Y-25260000D03*
X101720000Y-40500000D03*
X104260000Y-25260000D03*
X99180000Y-40500000D03*
X106800000Y-25260000D03*
X96640000Y-40500000D03*
X109340000Y-25260000D03*
X94100000Y-40500000D03*
X111880000Y-25260000D03*
X91560000Y-40500000D03*
X114420000Y-25260000D03*
X89020000Y-40500000D03*
X116960000Y-25260000D03*
X86480000Y-40500000D03*
X119500000Y-25260000D03*
X83940000Y-40500000D03*
X83940000Y-25260000D03*
X113665000Y-54570000D03*
X95885000Y-62190000D03*
X111125000Y-54570000D03*
X98425000Y-62190000D03*
X108585000Y-54570000D03*
X100965000Y-62190000D03*
X106045000Y-54570000D03*
X103505000Y-62190000D03*
X103505000Y-54570000D03*
X106045000Y-62190000D03*
X100965000Y-54570000D03*
X108585000Y-62190000D03*
X98425000Y-54570000D03*
X111125000Y-62190000D03*
X95885000Y-54570000D03*
D12*
X113665000Y-62190000D03*
X120000000Y-55500000D03*
D11*
X125080000Y-47880000D03*
X122540000Y-55500000D03*
X122540000Y-47880000D03*
X125080000Y-55500000D03*
X120000000Y-47880000D03*
D15*
X125500000Y-24500000D03*
X74500000Y-24500000D03*
X74500000Y-75500000D03*
X125500000Y-75500000D03*
D12*
X108000000Y-31000000D03*
D11*
X74980000Y-46240000D03*
X105460000Y-31000000D03*
X77520000Y-46240000D03*
X102920000Y-31000000D03*
X80060000Y-46240000D03*
X100380000Y-31000000D03*
X82600000Y-46240000D03*
X97840000Y-31000000D03*
X85140000Y-46240000D03*
X95300000Y-31000000D03*
X87680000Y-46240000D03*
X92760000Y-31000000D03*
X90220000Y-46240000D03*
X90220000Y-31000000D03*
X92760000Y-46240000D03*
X87680000Y-31000000D03*
X95300000Y-46240000D03*
X85140000Y-31000000D03*
X97840000Y-46240000D03*
X82600000Y-31000000D03*
X100380000Y-46240000D03*
X80060000Y-31000000D03*
X102920000Y-46240000D03*
X77520000Y-31000000D03*
X105460000Y-46240000D03*
X74980000Y-31000000D03*
X108000000Y-46240000D03*
D16*
X91560000Y-25260000D02*
X90260700Y-26529700D01*
X89905000Y-26798900D02*
X90002100Y-26743100D01*
X90002100Y-26743100D02*
X90180600Y-26607900D01*
X90180600Y-26607900D02*
X90260700Y-26529700D01*
X89905000Y-26798900D02*
X82600000Y-31000000D01*
X82600000Y-31000000D02*
X81378900Y-46141500D01*
X81378900Y-46141500D02*
X81370400Y-46246800D01*
X81370400Y-46246800D02*
X81389700Y-46457100D01*
X81389700Y-46457100D02*
X81417200Y-46559000D01*
X81417200Y-46559000D02*
X82550000Y-50760000D01*
X74980000Y-31000000D02*
X73216900Y-46033200D01*
X73216900Y-46033200D02*
X73190400Y-46258900D01*
X73190400Y-46258900D02*
X73252900Y-46709100D01*
X73252900Y-46709100D02*
X73339800Y-46919100D01*
X73339800Y-46919100D02*
X74930000Y-50760000D01*
X87680000Y-46240000D02*
X88987300Y-51079500D01*
X88987300Y-51079500D02*
X88992900Y-51100400D01*
X88992900Y-51100400D02*
X89005700Y-51141700D01*
X89005700Y-51141700D02*
X89012800Y-51162100D01*
X89012800Y-51162100D02*
X90057200Y-54167900D01*
X88900000Y-55795100D02*
X89197400Y-55795100D01*
X89197400Y-55795100D02*
X89726000Y-55522400D01*
X89726000Y-55522400D02*
X90070700Y-55037700D01*
X90070700Y-55037700D02*
X90154800Y-54448800D01*
X90154800Y-54448800D02*
X90057200Y-54167900D01*
X88900000Y-55795100D02*
X86360000Y-55795100D01*
X85769100Y-55643200D02*
X85904900Y-55717900D01*
X85904900Y-55717900D02*
X86205000Y-55795100D01*
X86205000Y-55795100D02*
X86360000Y-55795100D01*
X85769100Y-55643200D02*
X83820000Y-54570000D01*
X87630000Y-66000000D02*
X88976100Y-64732300D01*
X89944500Y-64273300D02*
X89672200Y-64308900D01*
X89672200Y-64308900D02*
X89176000Y-64544100D01*
X89176000Y-64544100D02*
X88976100Y-64732300D01*
X89944500Y-64273300D02*
X92366300Y-63957000D01*
X92366300Y-63957000D02*
X92451300Y-63945900D01*
X92451300Y-63945900D02*
X92614700Y-63894400D01*
X92614700Y-63894400D02*
X92690700Y-63854800D01*
X92690700Y-63854800D02*
X95885000Y-62190000D01*
X102385000Y-69675000D02*
X105560000Y-69675000D01*
X105560000Y-69675000D02*
X109370000Y-71025000D01*
X83820000Y-54570000D02*
X81870900Y-53496800D01*
X81870900Y-53496800D02*
X81850100Y-53485400D01*
X81850100Y-53485400D02*
X81807800Y-53464100D01*
X81807800Y-53464100D02*
X81786200Y-53454400D01*
X81786200Y-53454400D02*
X79680000Y-52498600D01*
X79680000Y-52498600D02*
X79288200Y-52320800D01*
X79288200Y-52320800D02*
X78428900Y-52276000D01*
X78428900Y-52276000D02*
X78020700Y-52412000D01*
X76276100Y-52027700D02*
X76626000Y-52357200D01*
X76626000Y-52357200D02*
X77564700Y-52564000D01*
X77564700Y-52564000D02*
X78020700Y-52412000D01*
X76276100Y-52027700D02*
X74930000Y-50760000D01*
X125080000Y-47880000D02*
X122540000Y-47880000D01*
X122540000Y-47880000D02*
X120000000Y-47880000D01*
X111880000Y-40500000D02*
X109135800Y-51067900D01*
X108841900Y-51599900D02*
X108947700Y-51487500D01*
X108947700Y-51487500D02*
X109097000Y-51217300D01*
X109097000Y-51217300D02*
X109135800Y-51067900D01*
X108841900Y-51599900D02*
X106045000Y-54570000D01*
X80060000Y-31000000D02*
X78838900Y-46141500D01*
X78838900Y-46141500D02*
X78830400Y-46246800D01*
X78830400Y-46246800D02*
X78849700Y-46457100D01*
X78849700Y-46457100D02*
X78877200Y-46559000D01*
X78877200Y-46559000D02*
X80010000Y-50760000D01*
X109340000Y-40500000D02*
X106792500Y-31921000D01*
X106777100Y-31843000D02*
X106779100Y-31862800D01*
X106779100Y-31862800D02*
X106786800Y-31901900D01*
X106786800Y-31901900D02*
X106792500Y-31921000D01*
X106777100Y-31843000D02*
X106678800Y-30876100D01*
X106678800Y-30876100D02*
X106646500Y-30558000D01*
X106646500Y-30558000D02*
X106279200Y-30034600D01*
X106279200Y-30034600D02*
X105991100Y-29896000D01*
X105991100Y-29896000D02*
X98648900Y-26364000D01*
X97998200Y-25582900D02*
X98068300Y-25839600D01*
X98068300Y-25839600D02*
X98409100Y-26248600D01*
X98409100Y-26248600D02*
X98648900Y-26364000D01*
X97998200Y-25582900D02*
X97821800Y-24937100D01*
X97821800Y-24937100D02*
X97731900Y-24608200D01*
X97731900Y-24608200D02*
X97238200Y-24137800D01*
X97238200Y-24137800D02*
X96905300Y-24064000D01*
X96905300Y-24064000D02*
X94484500Y-23526900D01*
X94484500Y-23526900D02*
X94389800Y-23505900D01*
X94389800Y-23505900D02*
X94197000Y-23484800D01*
X94197000Y-23484800D02*
X94100000Y-23484800D01*
X94100000Y-23484800D02*
X91560000Y-23484800D01*
X91560000Y-23484800D02*
X91463000Y-23484800D01*
X91463000Y-23484800D02*
X91270200Y-23505900D01*
X91270200Y-23505900D02*
X91175500Y-23526900D01*
X91175500Y-23526900D02*
X88754700Y-24064000D01*
X88754700Y-24064000D02*
X88421800Y-24137800D01*
X88421800Y-24137800D02*
X87928100Y-24608200D01*
X87928100Y-24608200D02*
X87838200Y-24937100D01*
X87838200Y-24937100D02*
X87661800Y-25582900D01*
X86885600Y-26416000D02*
X87170500Y-26316000D01*
X87170500Y-26316000D02*
X87582200Y-25874200D01*
X87582200Y-25874200D02*
X87661800Y-25582900D01*
X86885600Y-26416000D02*
X77114400Y-29844000D01*
X77114400Y-29844000D02*
X76798100Y-29955000D01*
X76798100Y-29955000D02*
X76366700Y-30468000D01*
X76366700Y-30468000D02*
X76311600Y-30798600D01*
X76311600Y-30798600D02*
X73771600Y-46038600D01*
X73771600Y-46038600D02*
X73734600Y-46260700D01*
X73734600Y-46260700D02*
X73823300Y-46702100D01*
X73823300Y-46702100D02*
X73943200Y-46892600D01*
X73943200Y-46892600D02*
X75966800Y-50107400D01*
X76103600Y-50408600D02*
X76079800Y-50329000D01*
X76079800Y-50329000D02*
X76011100Y-50177700D01*
X76011100Y-50177700D02*
X75966800Y-50107400D01*
X76103600Y-50408600D02*
X76312600Y-51106500D01*
X76312600Y-51106500D02*
X76382900Y-51341400D01*
X76382900Y-51341400D02*
X76695500Y-51719100D01*
X76695500Y-51719100D02*
X77130700Y-51945200D01*
X77130700Y-51945200D02*
X77619500Y-51983700D01*
X77619500Y-51983700D02*
X77852100Y-51906200D01*
X79627900Y-51906200D02*
X79195600Y-51762100D01*
X79195600Y-51762100D02*
X78284400Y-51762100D01*
X78284400Y-51762100D02*
X77852100Y-51906200D01*
X79627900Y-51906200D02*
X79633600Y-51908100D01*
X79633600Y-51908100D02*
X84201700Y-53405900D01*
X84410900Y-53496800D02*
X84360800Y-53469200D01*
X84360800Y-53469200D02*
X84256000Y-53423700D01*
X84256000Y-53423700D02*
X84201700Y-53405900D01*
X84410900Y-53496800D02*
X86360000Y-54570000D01*
X96640000Y-25260000D02*
X94690900Y-24186800D01*
X94690900Y-24186800D02*
X94555100Y-24112100D01*
X94555100Y-24112100D02*
X94255000Y-24034900D01*
X94255000Y-24034900D02*
X94100000Y-24034900D01*
X94100000Y-24034900D02*
X91560000Y-24034900D01*
X91560000Y-24034900D02*
X91145800Y-24034900D01*
X91145800Y-24034900D02*
X90487400Y-24537600D01*
X90487400Y-24537600D02*
X90378200Y-24937100D01*
X90378200Y-24937100D02*
X90201800Y-25582900D01*
X89425600Y-26416000D02*
X89710500Y-26316000D01*
X89710500Y-26316000D02*
X90122200Y-25874200D01*
X90122200Y-25874200D02*
X90201800Y-25582900D01*
X89425600Y-26416000D02*
X79654400Y-29844000D01*
X79654400Y-29844000D02*
X79606400Y-29860800D01*
X79606400Y-29860800D02*
X79513600Y-29902300D01*
X79513600Y-29902300D02*
X79469100Y-29926800D01*
X79469100Y-29926800D02*
X77520000Y-31000000D01*
X77520000Y-31000000D02*
X76298900Y-46141500D01*
X76298900Y-46141500D02*
X76290400Y-46246800D01*
X76290400Y-46246800D02*
X76309700Y-46457100D01*
X76309700Y-46457100D02*
X76337200Y-46559000D01*
X76337200Y-46559000D02*
X77470000Y-50760000D01*
X78740000Y-54570000D02*
X77530800Y-61993000D01*
X77530800Y-61993000D02*
X77464100Y-62402600D01*
X77464100Y-62402600D02*
X77855900Y-63134200D01*
X77855900Y-63134200D02*
X78233800Y-63305600D01*
X78233800Y-63305600D02*
X80340000Y-64261400D01*
X80340000Y-64261400D02*
X80731800Y-64439200D01*
X80731800Y-64439200D02*
X81591100Y-64484000D01*
X81591100Y-64484000D02*
X81999300Y-64348000D01*
X82323000Y-64273500D02*
X82240500Y-64284300D01*
X82240500Y-64284300D02*
X82078300Y-64321700D01*
X82078300Y-64321700D02*
X81999300Y-64348000D01*
X82323000Y-64273500D02*
X89057500Y-63387900D01*
X89057500Y-63387900D02*
X89468400Y-63333900D01*
X89468400Y-63333900D02*
X90050800Y-62744200D01*
X90050800Y-62744200D02*
X90099700Y-62332700D01*
X90099700Y-62332700D02*
X90217900Y-61339800D01*
X90418000Y-61027500D02*
X90334800Y-61078500D01*
X90334800Y-61078500D02*
X90229400Y-61242900D01*
X90229400Y-61242900D02*
X90217900Y-61339800D01*
X90418000Y-61027500D02*
X100965000Y-54570000D01*
X81280000Y-54570000D02*
X79933900Y-53302300D01*
X79933900Y-53302300D02*
X79584000Y-52972800D01*
X79584000Y-52972800D02*
X78645300Y-52766000D01*
X78645300Y-52766000D02*
X78189300Y-52918000D01*
X77321900Y-53029900D02*
X77542100Y-53044300D01*
X77542100Y-53044300D02*
X77979900Y-52987800D01*
X77979900Y-52987800D02*
X78189300Y-52918000D01*
X77321900Y-53029900D02*
X73775500Y-52798600D01*
X73775500Y-52798600D02*
X73408100Y-52774600D01*
X73408100Y-52774600D02*
X72714900Y-53022900D01*
X72714900Y-53022900D02*
X72177600Y-53526300D01*
X72177600Y-53526300D02*
X71884800Y-54201900D01*
X71884800Y-54201900D02*
X71884800Y-54570000D01*
X71884800Y-54570000D02*
X71884800Y-62190000D01*
X71884800Y-62190000D02*
X71884800Y-62394700D01*
X71884800Y-62394700D02*
X71978000Y-62793300D01*
X71978000Y-62793300D02*
X72068700Y-62976800D01*
X72068700Y-62976800D02*
X73831800Y-66543000D01*
X73831800Y-66543000D02*
X73897100Y-66675100D01*
X73897100Y-66675100D02*
X74086600Y-66900700D01*
X74086600Y-66900700D02*
X74205400Y-66987900D01*
X74205400Y-66987900D02*
X79495400Y-70867900D01*
X79495400Y-70867900D02*
X79653000Y-70983500D01*
X79653000Y-70983500D02*
X80024500Y-71105100D01*
X80024500Y-71105100D02*
X80220000Y-71105100D01*
X80220000Y-71105100D02*
X85300000Y-71105100D01*
X85300000Y-71105100D02*
X85455000Y-71105100D01*
X85455000Y-71105100D02*
X85755100Y-71027900D01*
X85755100Y-71027900D02*
X85890900Y-70953200D01*
X85890900Y-70953200D02*
X87840000Y-69880000D01*
X104260000Y-40500000D02*
X104094900Y-50779700D01*
X104079900Y-50952300D02*
X104086700Y-50909500D01*
X104086700Y-50909500D02*
X104094200Y-50823100D01*
X104094200Y-50823100D02*
X104094900Y-50779700D01*
X104079900Y-50952300D02*
X103505000Y-54570000D01*
X113665000Y-54570000D02*
X114883300Y-61314400D01*
X114890100Y-61390000D02*
X114890100Y-61371000D01*
X114890100Y-61371000D02*
X114886700Y-61333100D01*
X114886700Y-61333100D02*
X114883300Y-61314400D01*
X114890100Y-61390000D02*
X114890100Y-62990000D01*
X114822300Y-63220400D02*
X114855500Y-63168900D01*
X114855500Y-63168900D02*
X114890100Y-63051300D01*
X114890100Y-63051300D02*
X114890100Y-62990000D01*
X114822300Y-63220400D02*
X113030000Y-66000000D01*
X109370000Y-76025000D02*
X113030000Y-66000000D01*
X76200000Y-54570000D02*
X74250900Y-53496800D01*
X74250900Y-53496800D02*
X73966300Y-53340100D01*
X73966300Y-53340100D02*
X73316400Y-53350000D01*
X73316400Y-53350000D02*
X72757000Y-53680600D01*
X72757000Y-53680600D02*
X72434900Y-54245100D01*
X72434900Y-54245100D02*
X72434900Y-54570000D01*
X72434900Y-54570000D02*
X72434900Y-62190000D01*
X72434900Y-62190000D02*
X72434900Y-62495600D01*
X72434900Y-62495600D02*
X72722000Y-63035300D01*
X72722000Y-63035300D02*
X72975500Y-63206000D01*
X72975500Y-63206000D02*
X75614500Y-64984000D01*
X76111800Y-65677100D02*
X76053800Y-65464700D01*
X76053800Y-65464700D02*
X75797100Y-65107000D01*
X75797100Y-65107000D02*
X75614500Y-64984000D01*
X76111800Y-65677100D02*
X76288200Y-66322900D01*
X76288200Y-66322900D02*
X76361300Y-66590600D01*
X76361300Y-66590600D02*
X76724100Y-67010700D01*
X76724100Y-67010700D02*
X76978300Y-67122100D01*
X76978300Y-67122100D02*
X80711700Y-68757900D01*
X80810900Y-68806800D02*
X80786700Y-68793500D01*
X80786700Y-68793500D02*
X80737000Y-68769000D01*
X80737000Y-68769000D02*
X80711700Y-68757900D01*
X80810900Y-68806800D02*
X82760000Y-69880000D01*
X111880000Y-25260000D02*
X110560600Y-40605000D01*
X110449100Y-41020400D02*
X110495100Y-40922300D01*
X110495100Y-40922300D02*
X110551300Y-40713000D01*
X110551300Y-40713000D02*
X110560600Y-40605000D01*
X110449100Y-41020400D02*
X108000000Y-46240000D01*
X76200000Y-54570000D02*
X78165300Y-53507200D01*
X79897400Y-54223500D02*
X79819200Y-53962300D01*
X79819200Y-53962300D02*
X79453600Y-53557700D01*
X79453600Y-53557700D02*
X78949700Y-53349300D01*
X78949700Y-53349300D02*
X78405200Y-53377600D01*
X78405200Y-53377600D02*
X78165300Y-53507200D01*
X79897400Y-54223500D02*
X80106400Y-54921400D01*
X80106400Y-54921400D02*
X80212300Y-55275200D01*
X80212300Y-55275200D02*
X80780100Y-55747900D01*
X80780100Y-55747900D02*
X81147300Y-55787900D01*
X81147300Y-55787900D02*
X86167800Y-56334800D01*
X86167800Y-56334800D02*
X86215700Y-56340000D01*
X86215700Y-56340000D02*
X86311800Y-56345200D01*
X86311800Y-56345200D02*
X86360000Y-56345200D01*
X86360000Y-56345200D02*
X88900000Y-56345200D01*
X88900000Y-56345200D02*
X89247800Y-56345200D01*
X89247800Y-56345200D02*
X89891900Y-56082700D01*
X89891900Y-56082700D02*
X90140700Y-55839700D01*
X90140700Y-55839700D02*
X91440000Y-54570000D01*
X98000000Y-69880000D02*
X96050900Y-68806800D01*
X96050900Y-68806800D02*
X95915100Y-68732100D01*
X95915100Y-68732100D02*
X95615000Y-68654900D01*
X95615000Y-68654900D02*
X95460000Y-68654900D01*
X95460000Y-68654900D02*
X85300000Y-68654900D01*
X85300000Y-68654900D02*
X85145000Y-68654900D01*
X85145000Y-68654900D02*
X84844900Y-68732100D01*
X84844900Y-68732100D02*
X84709100Y-68806800D01*
X84709100Y-68806800D02*
X82760000Y-69880000D01*
X98000000Y-69880000D02*
X109370000Y-76025000D01*
X120000000Y-55500000D02*
X119325000Y-54825000D01*
X119325000Y-54825000D02*
X119325000Y-54700000D01*
X119325000Y-54700000D02*
X119325000Y-54692200D01*
X119325000Y-54692200D02*
X119323000Y-54676600D01*
X119323000Y-54676600D02*
X119321100Y-54669000D01*
X119321100Y-54669000D02*
X115773100Y-40803700D01*
X115752300Y-40705600D02*
X115756500Y-40730300D01*
X115756500Y-40730300D02*
X115766900Y-40779400D01*
X115766900Y-40779400D02*
X115773100Y-40803700D01*
X115752300Y-40705600D02*
X113087700Y-25054400D01*
X113087700Y-25054400D02*
X113016100Y-24633900D01*
X113016100Y-24633900D02*
X112381500Y-24063700D01*
X112381500Y-24063700D02*
X111955800Y-24037200D01*
X111955800Y-24037200D02*
X94243900Y-22939200D01*
X94243900Y-22939200D02*
X94100000Y-22934700D01*
X94100000Y-22934700D02*
X91560000Y-22934700D01*
X91560000Y-22934700D02*
X91433000Y-22934700D01*
X91433000Y-22934700D02*
X91180400Y-22962400D01*
X91180400Y-22962400D02*
X91056400Y-22989900D01*
X91056400Y-22989900D02*
X86214700Y-24064000D01*
X86214700Y-24064000D02*
X86129300Y-24082900D01*
X86129300Y-24082900D02*
X85965700Y-24144700D01*
X85965700Y-24144700D02*
X85889100Y-24186800D01*
X85889100Y-24186800D02*
X83940000Y-25260000D01*
X124665000Y-64985000D02*
X123890000Y-65760000D01*
X123890000Y-65760000D02*
X123765000Y-65760000D01*
X123765000Y-65760000D02*
X123742200Y-65760000D01*
X123742200Y-65760000D02*
X123699500Y-65776100D01*
X123699500Y-65776100D02*
X123682400Y-65791200D01*
X123682400Y-65791200D02*
X110543000Y-77357500D01*
X109695400Y-77770100D02*
X109931300Y-77726100D01*
X109931300Y-77726100D02*
X110362800Y-77516000D01*
X110362800Y-77516000D02*
X110543000Y-77357500D01*
X109695400Y-77770100D02*
X105784600Y-78499300D01*
X105087300Y-78425200D02*
X105252500Y-78494300D01*
X105252500Y-78494300D02*
X105608600Y-78532100D01*
X105608600Y-78532100D02*
X105784600Y-78499300D01*
X105087300Y-78425200D02*
X102385000Y-77295000D01*
X87680000Y-31000000D02*
X87705100Y-40496800D01*
X87674200Y-40773300D02*
X87689800Y-40705300D01*
X87689800Y-40705300D02*
X87705300Y-40566600D01*
X87705300Y-40566600D02*
X87705100Y-40496800D01*
X87674200Y-40773300D02*
X86485800Y-45966700D01*
X86485800Y-45966700D02*
X86452300Y-46113200D01*
X86452300Y-46113200D02*
X86458000Y-46413900D01*
X86458000Y-46413900D02*
X86497200Y-46559000D01*
X86497200Y-46559000D02*
X87630000Y-50760000D01*
X73660000Y-54570000D02*
X74992300Y-62395600D01*
X74992300Y-62395600D02*
X75034500Y-62643300D01*
X75034500Y-62643300D02*
X75307100Y-63065600D01*
X75307100Y-63065600D02*
X75515500Y-63206000D01*
X75515500Y-63206000D02*
X78154500Y-64984000D01*
X78651800Y-65677100D02*
X78593800Y-65464700D01*
X78593800Y-65464700D02*
X78337100Y-65107000D01*
X78337100Y-65107000D02*
X78154500Y-64984000D01*
X78651800Y-65677100D02*
X78828200Y-66322900D01*
X78828200Y-66322900D02*
X78937400Y-66722400D01*
X78937400Y-66722400D02*
X79595800Y-67225100D01*
X79595800Y-67225100D02*
X80010000Y-67225100D01*
X80010000Y-67225100D02*
X87630000Y-67225100D01*
X87630000Y-67225100D02*
X88035900Y-67225100D01*
X88035900Y-67225100D02*
X88687200Y-66740300D01*
X88687200Y-66740300D02*
X88803600Y-66351400D01*
X88803600Y-66351400D02*
X89012600Y-65653500D01*
X90021900Y-64800900D02*
X89665000Y-64845000D01*
X89665000Y-64845000D02*
X89115700Y-65309000D01*
X89115700Y-65309000D02*
X89012600Y-65653500D01*
X90021900Y-64800900D02*
X92427000Y-64503800D01*
X92427000Y-64503800D02*
X92508200Y-64491500D01*
X92508200Y-64491500D02*
X98640500Y-63396000D01*
X98640500Y-63396000D02*
X98989700Y-63333600D01*
X98989700Y-63333600D02*
X99513300Y-62855000D01*
X99513300Y-62855000D02*
X99606800Y-62512900D01*
X99606800Y-62512900D02*
X99783200Y-61867100D01*
X100202800Y-61230900D02*
X100049800Y-61352500D01*
X100049800Y-61352500D02*
X99834700Y-61678600D01*
X99834700Y-61678600D02*
X99783200Y-61867100D01*
X100202800Y-61230900D02*
X108585000Y-54570000D01*
X90220000Y-31000000D02*
X90245100Y-40496800D01*
X90214200Y-40773300D02*
X90229800Y-40705300D01*
X90229800Y-40705300D02*
X90245300Y-40566600D01*
X90245300Y-40566600D02*
X90245100Y-40496800D01*
X90214200Y-40773300D02*
X89025800Y-45966700D01*
X89025800Y-45966700D02*
X88992300Y-46113200D01*
X88992300Y-46113200D02*
X88998000Y-46413900D01*
X88998000Y-46413900D02*
X89037200Y-46559000D01*
X89037200Y-46559000D02*
X90170000Y-50760000D01*
X92760000Y-31000000D02*
X92785100Y-40496800D01*
X92754200Y-40773300D02*
X92769800Y-40705300D01*
X92769800Y-40705300D02*
X92785300Y-40566600D01*
X92785300Y-40566600D02*
X92785100Y-40496800D01*
X92754200Y-40773300D02*
X91565800Y-45966700D01*
X91565800Y-45966700D02*
X91532300Y-46113200D01*
X91532300Y-46113200D02*
X91538000Y-46413900D01*
X91538000Y-46413900D02*
X91577200Y-46559000D01*
X91577200Y-46559000D02*
X92710000Y-50760000D01*
X95300000Y-31000000D02*
X95325100Y-40496800D01*
X95294200Y-40773300D02*
X95309800Y-40705300D01*
X95309800Y-40705300D02*
X95325300Y-40566600D01*
X95325300Y-40566600D02*
X95325100Y-40496800D01*
X95294200Y-40773300D02*
X94105800Y-45966700D01*
X94105800Y-45966700D02*
X94072300Y-46113200D01*
X94072300Y-46113200D02*
X94078000Y-46413900D01*
X94078000Y-46413900D02*
X94117200Y-46559000D01*
X94117200Y-46559000D02*
X95250000Y-50760000D01*
X83820000Y-62190000D02*
X81854700Y-63252800D01*
X80753700Y-61102500D02*
X80457900Y-61245600D01*
X80457900Y-61245600D02*
X80092900Y-61792100D01*
X80092900Y-61792100D02*
X80054900Y-62448100D01*
X80054900Y-62448100D02*
X80354400Y-63033100D01*
X80354400Y-63033100D02*
X80908900Y-63385800D01*
X80908900Y-63385800D02*
X81565600Y-63409000D01*
X81565600Y-63409000D02*
X81854700Y-63252800D01*
X80753700Y-61102500D02*
X91973700Y-55672800D01*
X91973700Y-55672800D02*
X92130300Y-55597000D01*
X92130300Y-55597000D02*
X92388800Y-55364300D01*
X92388800Y-55364300D02*
X92480600Y-55216600D01*
X92480600Y-55216600D02*
X95250000Y-50760000D01*
X81280000Y-62190000D02*
X83229100Y-61116800D01*
X83229100Y-61116800D02*
X83229200Y-61116800D01*
X83229200Y-61116800D02*
X92296100Y-56125100D01*
X92296100Y-56125100D02*
X92460800Y-56034500D01*
X92460800Y-56034500D02*
X92744800Y-55788200D01*
X92744800Y-55788200D02*
X92857900Y-55638100D01*
X92857900Y-55638100D02*
X94467100Y-53501900D01*
X94772500Y-53186600D02*
X94686700Y-53255600D01*
X94686700Y-53255600D02*
X94533300Y-53413900D01*
X94533300Y-53413900D02*
X94467100Y-53501900D01*
X94772500Y-53186600D02*
X97790000Y-50760000D01*
X97840000Y-31000000D02*
X97865100Y-40496800D01*
X97834200Y-40773300D02*
X97849800Y-40705300D01*
X97849800Y-40705300D02*
X97865300Y-40566600D01*
X97865300Y-40566600D02*
X97865100Y-40496800D01*
X97834200Y-40773300D02*
X96645800Y-45966700D01*
X96645800Y-45966700D02*
X96612300Y-46113200D01*
X96612300Y-46113200D02*
X96618000Y-46413900D01*
X96618000Y-46413900D02*
X96657200Y-46559000D01*
X96657200Y-46559000D02*
X97790000Y-50760000D01*
X78740000Y-62190000D02*
X80086100Y-63457700D01*
X80086100Y-63457700D02*
X80436000Y-63787200D01*
X80436000Y-63787200D02*
X81374700Y-63994000D01*
X81374700Y-63994000D02*
X81830700Y-63842000D01*
X82118400Y-63766600D02*
X82045300Y-63780700D01*
X82045300Y-63780700D02*
X81901300Y-63818500D01*
X81901300Y-63818500D02*
X81830700Y-63842000D01*
X82118400Y-63766600D02*
X84052500Y-63392800D01*
X84052500Y-63392800D02*
X84396100Y-63326400D01*
X84396100Y-63326400D02*
X84909500Y-62850500D01*
X84909500Y-62850500D02*
X85001800Y-62512900D01*
X85001800Y-62512900D02*
X85178200Y-61867100D01*
X85683800Y-61168400D02*
X85498100Y-61291300D01*
X85498100Y-61291300D02*
X85236900Y-61652200D01*
X85236900Y-61652200D02*
X85178200Y-61867100D01*
X85683800Y-61168400D02*
X92723400Y-56509000D01*
X92723400Y-56509000D02*
X92888900Y-56399500D01*
X92888900Y-56399500D02*
X93177900Y-56127600D01*
X93177900Y-56127600D02*
X93297300Y-55969100D01*
X93297300Y-55969100D02*
X94906500Y-53832900D01*
X95303800Y-53491500D02*
X95187200Y-53554400D01*
X95187200Y-53554400D02*
X94986200Y-53727000D01*
X94986200Y-53727000D02*
X94906500Y-53832900D01*
X95303800Y-53491500D02*
X98371200Y-51838500D01*
X98371200Y-51838500D02*
X98380900Y-51833200D01*
X98380900Y-51833200D02*
X100330000Y-50760000D01*
X100380000Y-31000000D02*
X100405100Y-40496800D01*
X100374200Y-40773300D02*
X100389800Y-40705300D01*
X100389800Y-40705300D02*
X100405300Y-40566600D01*
X100405300Y-40566600D02*
X100405100Y-40496800D01*
X100374200Y-40773300D02*
X99185800Y-45966700D01*
X99185800Y-45966700D02*
X99152300Y-46113200D01*
X99152300Y-46113200D02*
X99158000Y-46413900D01*
X99158000Y-46413900D02*
X99197200Y-46559000D01*
X99197200Y-46559000D02*
X100330000Y-50760000D01*
X76200000Y-62190000D02*
X77499300Y-63459700D01*
X77499300Y-63459700D02*
X77612300Y-63570100D01*
X77612300Y-63570100D02*
X77873800Y-63747600D01*
X77873800Y-63747600D02*
X78018200Y-63811900D01*
X78018200Y-63811900D02*
X80138400Y-64755300D01*
X80138400Y-64755300D02*
X80618800Y-64969100D01*
X80618800Y-64969100D02*
X81669100Y-65020000D01*
X81669100Y-65020000D02*
X82167900Y-64853800D01*
X82392500Y-64802100D02*
X82335200Y-64809600D01*
X82335200Y-64809600D02*
X82222700Y-64835500D01*
X82222700Y-64835500D02*
X82167900Y-64853800D01*
X82392500Y-64802100D02*
X89127000Y-63916500D01*
X89127000Y-63916500D02*
X89209500Y-63905700D01*
X89209500Y-63905700D02*
X89371700Y-63868300D01*
X89371700Y-63868300D02*
X89450700Y-63842000D01*
X89860000Y-63746500D02*
X89755700Y-63760900D01*
X89755700Y-63760900D02*
X89550600Y-63808700D01*
X89550600Y-63808700D02*
X89450700Y-63842000D01*
X89860000Y-63746500D02*
X92297900Y-63411100D01*
X92297900Y-63411100D02*
X92357800Y-63402900D01*
X92357800Y-63402900D02*
X92468200Y-63353700D01*
X92468200Y-63353700D02*
X92514400Y-63314700D01*
X92514400Y-63314700D02*
X101755700Y-55505800D01*
X101755700Y-55505800D02*
X101920500Y-55366500D01*
X101920500Y-55366500D02*
X102135100Y-54992200D01*
X102135100Y-54992200D02*
X102172000Y-54779600D01*
X102172000Y-54779600D02*
X102870000Y-50760000D01*
X102920000Y-31000000D02*
X102945100Y-40496800D01*
X102914200Y-40773300D02*
X102929800Y-40705300D01*
X102929800Y-40705300D02*
X102945300Y-40566600D01*
X102945300Y-40566600D02*
X102945100Y-40496800D01*
X102914200Y-40773300D02*
X101725800Y-45966700D01*
X101725800Y-45966700D02*
X101692300Y-46113200D01*
X101692300Y-46113200D02*
X101698000Y-46413900D01*
X101698000Y-46413900D02*
X101737200Y-46559000D01*
X101737200Y-46559000D02*
X102870000Y-50760000D01*
X85140000Y-31000000D02*
X85165100Y-40496800D01*
X85134200Y-40773300D02*
X85149800Y-40705300D01*
X85149800Y-40705300D02*
X85165300Y-40566600D01*
X85165300Y-40566600D02*
X85165100Y-40496800D01*
X85134200Y-40773300D02*
X83945800Y-45966700D01*
X83945800Y-45966700D02*
X83912300Y-46113200D01*
X83912300Y-46113200D02*
X83918000Y-46413900D01*
X83918000Y-46413900D02*
X83957200Y-46559000D01*
X83957200Y-46559000D02*
X85090000Y-50760000D01*
X88900000Y-54570000D02*
X85090000Y-50760000D01*
X100330000Y-66000000D02*
X102047200Y-62764300D01*
X102047200Y-62764300D02*
X102079000Y-62704400D01*
X102079000Y-62704400D02*
X102129000Y-62578300D01*
X102129000Y-62578300D02*
X102146800Y-62512900D01*
X102146800Y-62512900D02*
X102323200Y-61867100D01*
X102742800Y-61230900D02*
X102589800Y-61352500D01*
X102589800Y-61352500D02*
X102374700Y-61678600D01*
X102374700Y-61678600D02*
X102323200Y-61867100D01*
X102742800Y-61230900D02*
X111125000Y-54570000D01*
X107950000Y-50760000D02*
X105153100Y-53730100D01*
X105153100Y-53730100D02*
X105050000Y-53839600D01*
X105050000Y-53839600D02*
X104902800Y-54102000D01*
X104902800Y-54102000D02*
X104863200Y-54247100D01*
X104863200Y-54247100D02*
X104686800Y-54892900D01*
X104424300Y-55379800D02*
X104516900Y-55274700D01*
X104516900Y-55274700D02*
X104649900Y-55028000D01*
X104649900Y-55028000D02*
X104686800Y-54892900D01*
X104424300Y-55379800D02*
X98425000Y-62190000D01*
X102870000Y-66000000D02*
X103505000Y-62190000D01*
X105460000Y-31000000D02*
X107981300Y-40175400D01*
X107993000Y-40778500D02*
X108027800Y-40629400D01*
X108027800Y-40629400D02*
X108021900Y-40323100D01*
X108021900Y-40323100D02*
X107981300Y-40175400D01*
X107993000Y-40778500D02*
X106653000Y-46518500D01*
X106635500Y-46585100D02*
X106653000Y-46518500D01*
X106635500Y-46585100D02*
X105410000Y-50760000D01*
X95250000Y-66000000D02*
X97199100Y-67073200D01*
X97199100Y-67073200D02*
X97275700Y-67115400D01*
X97275700Y-67115400D02*
X97439300Y-67177100D01*
X97439300Y-67177100D02*
X97524700Y-67196000D01*
X97524700Y-67196000D02*
X99945500Y-67733100D01*
X99945500Y-67733100D02*
X100040200Y-67754100D01*
X100040200Y-67754100D02*
X100233000Y-67775200D01*
X100233000Y-67775200D02*
X100330000Y-67775200D01*
X100330000Y-67775200D02*
X102870000Y-67775200D01*
X102870000Y-67775200D02*
X102967000Y-67775200D01*
X102967000Y-67775200D02*
X103159800Y-67754100D01*
X103159800Y-67754100D02*
X103254500Y-67733100D01*
X103254500Y-67733100D02*
X105675300Y-67196000D01*
X105675300Y-67196000D02*
X106008200Y-67122200D01*
X106008200Y-67122200D02*
X106501900Y-66651800D01*
X106501900Y-66651800D02*
X106591800Y-66322900D01*
X106591800Y-66322900D02*
X106768200Y-65677100D01*
X106867800Y-65425700D02*
X106836000Y-65485600D01*
X106836000Y-65485600D02*
X106786000Y-65611700D01*
X106786000Y-65611700D02*
X106768200Y-65677100D01*
X106867800Y-65425700D02*
X108585000Y-62190000D01*
X90170000Y-66000000D02*
X92119100Y-67073200D01*
X92119100Y-67073200D02*
X92215500Y-67126300D01*
X92215500Y-67126300D02*
X92424200Y-67196400D01*
X92424200Y-67196400D02*
X92533100Y-67212300D01*
X92533100Y-67212300D02*
X99994300Y-68300900D01*
X99994300Y-68300900D02*
X100077700Y-68313100D01*
X100077700Y-68313100D02*
X100245700Y-68325300D01*
X100245700Y-68325300D02*
X100330000Y-68325300D01*
X100330000Y-68325300D02*
X102870000Y-68325300D01*
X102870000Y-68325300D02*
X102997000Y-68325300D01*
X102997000Y-68325300D02*
X103249600Y-68297600D01*
X103249600Y-68297600D02*
X103373600Y-68270100D01*
X103373600Y-68270100D02*
X108215300Y-67196000D01*
X108215300Y-67196000D02*
X108548200Y-67122200D01*
X108548200Y-67122200D02*
X109041900Y-66651800D01*
X109041900Y-66651800D02*
X109131800Y-66322900D01*
X109131800Y-66322900D02*
X109308200Y-65677100D01*
X109407800Y-65425700D02*
X109376000Y-65485600D01*
X109376000Y-65485600D02*
X109326000Y-65611700D01*
X109326000Y-65611700D02*
X109308200Y-65677100D01*
X109407800Y-65425700D02*
X111125000Y-62190000D01*
X97790000Y-66000000D02*
X99739100Y-67073200D01*
X99739100Y-67073200D02*
X99874900Y-67147900D01*
X99874900Y-67147900D02*
X100175000Y-67225100D01*
X100175000Y-67225100D02*
X100330000Y-67225100D01*
X100330000Y-67225100D02*
X102870000Y-67225100D01*
X102870000Y-67225100D02*
X103284200Y-67225100D01*
X103284200Y-67225100D02*
X103942600Y-66722400D01*
X103942600Y-66722400D02*
X104051800Y-66322900D01*
X104051800Y-66322900D02*
X104228200Y-65677100D01*
X104603600Y-65077700D02*
X104467600Y-65196600D01*
X104467600Y-65196600D02*
X104275800Y-65502800D01*
X104275800Y-65502800D02*
X104228200Y-65677100D01*
X104603600Y-65077700D02*
X106851400Y-63112300D01*
X106851400Y-63112300D02*
X106987400Y-62993400D01*
X106987400Y-62993400D02*
X107179200Y-62687200D01*
X107179200Y-62687200D02*
X107226800Y-62512900D01*
X107226800Y-62512900D02*
X107403200Y-61867100D01*
X108585000Y-60964900D02*
X108170800Y-60964900D01*
X108170800Y-60964900D02*
X107512400Y-61467600D01*
X107512400Y-61467600D02*
X107403200Y-61867100D01*
X108585000Y-60964900D02*
X111125000Y-60964900D01*
X111546700Y-61039800D02*
X111445400Y-61002700D01*
X111445400Y-61002700D02*
X111232900Y-60964900D01*
X111232900Y-60964900D02*
X111125000Y-60964900D01*
X111546700Y-61039800D02*
X112822000Y-61507400D01*
X112822000Y-61507400D02*
X112832300Y-61511200D01*
X112832300Y-61511200D02*
X112854000Y-61515000D01*
X112854000Y-61515000D02*
X112865000Y-61515000D01*
X112865000Y-61515000D02*
X112990000Y-61515000D01*
X112990000Y-61515000D02*
X113665000Y-62190000D01*
X110490000Y-50760000D02*
X111971100Y-51897200D01*
X111971100Y-51897200D02*
X111987100Y-51908900D01*
X111987100Y-51908900D02*
X114365000Y-53564600D01*
X114886100Y-54471600D02*
X114864000Y-54197800D01*
X114864000Y-54197800D02*
X114590400Y-53721600D01*
X114590400Y-53721600D02*
X114365000Y-53564600D01*
X114886100Y-54471600D02*
X115437100Y-61311700D01*
X115440200Y-61390000D02*
X115440200Y-61370400D01*
X115440200Y-61370400D02*
X115438600Y-61331200D01*
X115438600Y-61331200D02*
X115437100Y-61311700D01*
X115440200Y-61390000D02*
X115440200Y-62990000D01*
X115379500Y-63328700D02*
X115409600Y-63247400D01*
X115409600Y-63247400D02*
X115440200Y-63076700D01*
X115440200Y-63076700D02*
X115440200Y-62990000D01*
X115379500Y-63328700D02*
X110518800Y-76450600D01*
X108787500Y-77102800D02*
X109021700Y-77229400D01*
X109021700Y-77229400D02*
X109552800Y-77265300D01*
X109552800Y-77265300D02*
X110051000Y-77077700D01*
X110051000Y-77077700D02*
X110426400Y-76700200D01*
X110426400Y-76700200D02*
X110518800Y-76450600D01*
X108787500Y-77102800D02*
X97417500Y-70957800D01*
X97417500Y-70957800D02*
X97409100Y-70953200D01*
X97409100Y-70953200D02*
X95460000Y-69880000D01*
X101720000Y-40500000D02*
X101694900Y-31003200D01*
X104133100Y-30828900D02*
X104065600Y-30350700D01*
X104065600Y-30350700D02*
X103314400Y-29743600D01*
X103314400Y-29743600D02*
X102350900Y-29812400D01*
X102350900Y-29812400D02*
X101693600Y-30520200D01*
X101693600Y-30520200D02*
X101694900Y-31003200D01*
X104133100Y-30828900D02*
X105473100Y-40328900D01*
X105485100Y-40505400D02*
X105485300Y-40461100D01*
X105485300Y-40461100D02*
X105479300Y-40372800D01*
X105479300Y-40372800D02*
X105473100Y-40328900D01*
X105485100Y-40505400D02*
X105460000Y-46240000D01*
M02*
