G04 #@! TF.GenerationSoftware,KiCad,Pcbnew,(5.0.0-rc2-dev-720-g9704891c8)*
G04 #@! TF.CreationDate,2018-05-14T16:41:22+09:00*
G04 #@! TF.ProjectId,eeprom_programmer,656570726F6D5F70726F6772616D6D65,rev?*
G04 #@! TF.SameCoordinates,Original*
G04 #@! TF.FileFunction,Copper,L1,Top,Signal*
G04 #@! TF.FilePolarity,Positive*
%FSLAX46Y46*%
G04 Gerber Fmt 4.6, Leading zero omitted, Abs format (unit mm)*
G04 Created by KiCad (PCBNEW (5.0.0-rc2-dev-720-g9704891c8)) date 05/14/18 16:41:22*
%MOMM*%
%LPD*%
G01*
G04 APERTURE LIST*
%ADD10C,1.600000*%
%ADD11O,1.600000X1.600000*%
%ADD12R,1.600000X1.600000*%
%ADD13R,1.800000X1.800000*%
%ADD14C,1.800000*%
%ADD15C,6.400000*%
%ADD16C,0.250000*%
G04 APERTURE END LIST*
D10*
X109370000Y-71025000D03*
X109370000Y-76025000D03*
D11*
X98000000Y-69880000D03*
X80220000Y-77500000D03*
X95460000Y-69880000D03*
X82760000Y-77500000D03*
X92920000Y-69880000D03*
X85300000Y-77500000D03*
X90380000Y-69880000D03*
X87840000Y-77500000D03*
X87840000Y-69880000D03*
X90380000Y-77500000D03*
X85300000Y-69880000D03*
X92920000Y-77500000D03*
X82760000Y-69880000D03*
X95460000Y-77500000D03*
X80220000Y-69880000D03*
D12*
X98000000Y-77500000D03*
D13*
X118315000Y-64985000D03*
D14*
X120855000Y-64985000D03*
D12*
X113030000Y-50760000D03*
D11*
X74930000Y-66000000D03*
X110490000Y-50760000D03*
X77470000Y-66000000D03*
X107950000Y-50760000D03*
X80010000Y-66000000D03*
X105410000Y-50760000D03*
X82550000Y-66000000D03*
X102870000Y-50760000D03*
X85090000Y-66000000D03*
X100330000Y-50760000D03*
X87630000Y-66000000D03*
X97790000Y-50760000D03*
X90170000Y-66000000D03*
X95250000Y-50760000D03*
X92710000Y-66000000D03*
X92710000Y-50760000D03*
X95250000Y-66000000D03*
X90170000Y-50760000D03*
X97790000Y-66000000D03*
X87630000Y-50760000D03*
X100330000Y-66000000D03*
X85090000Y-50760000D03*
X102870000Y-66000000D03*
X82550000Y-50760000D03*
X105410000Y-66000000D03*
X80010000Y-50760000D03*
X107950000Y-66000000D03*
X77470000Y-50760000D03*
X110490000Y-66000000D03*
X74930000Y-50760000D03*
X113030000Y-66000000D03*
X105560000Y-69675000D03*
D10*
X105560000Y-77295000D03*
D14*
X127205000Y-64985000D03*
D13*
X124665000Y-64985000D03*
D12*
X91440000Y-62190000D03*
D11*
X73660000Y-54570000D03*
X88900000Y-62190000D03*
X76200000Y-54570000D03*
X86360000Y-62190000D03*
X78740000Y-54570000D03*
X83820000Y-62190000D03*
X81280000Y-54570000D03*
X81280000Y-62190000D03*
X83820000Y-54570000D03*
X78740000Y-62190000D03*
X86360000Y-54570000D03*
X76200000Y-62190000D03*
X88900000Y-54570000D03*
X73660000Y-62190000D03*
X91440000Y-54570000D03*
X102385000Y-69675000D03*
D10*
X102385000Y-77295000D03*
D12*
X119500000Y-40500000D03*
D11*
X86480000Y-25260000D03*
X116960000Y-40500000D03*
X89020000Y-25260000D03*
X114420000Y-40500000D03*
X91560000Y-25260000D03*
X111880000Y-40500000D03*
X94100000Y-25260000D03*
X109340000Y-40500000D03*
X96640000Y-25260000D03*
X106800000Y-40500000D03*
X99180000Y-25260000D03*
X104260000Y-40500000D03*
X101720000Y-25260000D03*
X101720000Y-40500000D03*
X104260000Y-25260000D03*
X99180000Y-40500000D03*
X106800000Y-25260000D03*
X96640000Y-40500000D03*
X109340000Y-25260000D03*
X94100000Y-40500000D03*
X111880000Y-25260000D03*
X91560000Y-40500000D03*
X114420000Y-25260000D03*
X89020000Y-40500000D03*
X116960000Y-25260000D03*
X86480000Y-40500000D03*
X119500000Y-25260000D03*
X83940000Y-40500000D03*
X83940000Y-25260000D03*
X113665000Y-54570000D03*
X95885000Y-62190000D03*
X111125000Y-54570000D03*
X98425000Y-62190000D03*
X108585000Y-54570000D03*
X100965000Y-62190000D03*
X106045000Y-54570000D03*
X103505000Y-62190000D03*
X103505000Y-54570000D03*
X106045000Y-62190000D03*
X100965000Y-54570000D03*
X108585000Y-62190000D03*
X98425000Y-54570000D03*
X111125000Y-62190000D03*
X95885000Y-54570000D03*
D12*
X113665000Y-62190000D03*
X120000000Y-55500000D03*
D11*
X125080000Y-47880000D03*
X122540000Y-55500000D03*
X122540000Y-47880000D03*
X125080000Y-55500000D03*
X120000000Y-47880000D03*
D15*
X125500000Y-24500000D03*
X74500000Y-24500000D03*
X74500000Y-75500000D03*
X125500000Y-75500000D03*
D12*
X108000000Y-31000000D03*
D11*
X74980000Y-46240000D03*
X105460000Y-31000000D03*
X77520000Y-46240000D03*
X102920000Y-31000000D03*
X80060000Y-46240000D03*
X100380000Y-31000000D03*
X82600000Y-46240000D03*
X97840000Y-31000000D03*
X85140000Y-46240000D03*
X95300000Y-31000000D03*
X87680000Y-46240000D03*
X92760000Y-31000000D03*
X90220000Y-46240000D03*
X90220000Y-31000000D03*
X92760000Y-46240000D03*
X87680000Y-31000000D03*
X95300000Y-46240000D03*
X85140000Y-31000000D03*
X97840000Y-46240000D03*
X82600000Y-31000000D03*
X100380000Y-46240000D03*
X80060000Y-31000000D03*
X102920000Y-46240000D03*
X77520000Y-31000000D03*
X105460000Y-46240000D03*
X74980000Y-31000000D03*
X108000000Y-46240000D03*
D16*
X102385000Y-69675000D02*
X98792900Y-71468300D01*
X98000000Y-71655200D02*
X98206400Y-71655200D01*
X98206400Y-71655200D02*
X98608200Y-71560500D01*
X98608200Y-71560500D02*
X98792900Y-71468300D01*
X98000000Y-71655200D02*
X92920000Y-71655200D01*
X91679300Y-71149700D02*
X91928000Y-71392800D01*
X91928000Y-71392800D02*
X92572200Y-71655200D01*
X92572200Y-71655200D02*
X92920000Y-71655200D01*
X91679300Y-71149700D02*
X90380000Y-69880000D01*
X86596600Y-70553000D02*
X85904400Y-70945600D01*
X85671400Y-71047500D02*
X85732200Y-71028200D01*
X85732200Y-71028200D02*
X85849000Y-70977100D01*
X85849000Y-70977100D02*
X85904400Y-70945600D01*
X85671400Y-71047500D02*
X81264300Y-72449300D01*
X120000000Y-47880000D02*
X111880000Y-40500000D01*
X116960000Y-25260000D02*
X111880000Y-40500000D01*
X73660000Y-62190000D02*
X72450800Y-54767000D01*
X72671300Y-53846500D02*
X72525900Y-54045200D01*
X72525900Y-54045200D02*
X72411200Y-54524000D01*
X72411200Y-54524000D02*
X72450800Y-54767000D01*
X72671300Y-53846500D02*
X74930000Y-50760000D01*
X86596600Y-70553000D02*
X87197500Y-70923100D01*
X87197500Y-70923100D02*
X87479300Y-71096700D01*
X87479300Y-71096700D02*
X88141000Y-71112800D01*
X88141000Y-71112800D02*
X88430900Y-70953200D01*
X88430900Y-70953200D02*
X90380000Y-69880000D01*
X80220000Y-77500000D02*
X81264300Y-72449300D01*
X106045000Y-54570000D02*
X107377300Y-62395600D01*
X107377300Y-62395600D02*
X107395500Y-62502600D01*
X107395500Y-62502600D02*
X107469000Y-62706800D01*
X107469000Y-62706800D02*
X107523100Y-62800900D01*
X107523100Y-62800900D02*
X109011900Y-65389100D01*
X109174200Y-65952700D02*
X109168500Y-65804000D01*
X109168500Y-65804000D02*
X109086100Y-65518100D01*
X109086100Y-65518100D02*
X109011900Y-65389100D01*
X109174200Y-65952700D02*
X109370000Y-71025000D01*
X73660000Y-62190000D02*
X75918700Y-65276500D01*
X76111800Y-65677100D02*
X76082300Y-65569000D01*
X76082300Y-65569000D02*
X75984900Y-65367000D01*
X75984900Y-65367000D02*
X75918700Y-65276500D01*
X76111800Y-65677100D02*
X76288200Y-66322900D01*
X76288200Y-66322900D02*
X76316500Y-66426500D01*
X76316500Y-66426500D02*
X76408400Y-66620800D01*
X76408400Y-66620800D02*
X76470500Y-66708400D01*
X76470500Y-66708400D02*
X79220500Y-70588400D01*
X79220500Y-70588400D02*
X79260800Y-70645200D01*
X79260800Y-70645200D02*
X79353600Y-70748900D01*
X79353600Y-70748900D02*
X79405600Y-70795200D01*
X79405600Y-70795200D02*
X81264300Y-72449300D01*
X86596600Y-70553000D02*
X86615300Y-69847500D01*
X86658200Y-69557100D02*
X86638800Y-69628100D01*
X86638800Y-69628100D02*
X86617300Y-69773900D01*
X86617300Y-69773900D02*
X86615300Y-69847500D01*
X86658200Y-69557100D02*
X87630000Y-66000000D01*
X94100000Y-25260000D02*
X92150900Y-26333200D01*
X91903200Y-26436100D02*
X91967800Y-26417300D01*
X91967800Y-26417300D02*
X92092000Y-26365700D01*
X92092000Y-26365700D02*
X92150900Y-26333200D01*
X91903200Y-26436100D02*
X82102700Y-29295900D01*
X82102700Y-29295900D02*
X81892900Y-29357100D01*
X81892900Y-29357100D02*
X81515600Y-29577600D01*
X81515600Y-29577600D02*
X81359300Y-29730300D01*
X81359300Y-29730300D02*
X80060000Y-31000000D01*
X78740000Y-54570000D02*
X77530800Y-61993000D01*
X77530800Y-61993000D02*
X77506200Y-62143700D01*
X77506200Y-62143700D02*
X77532600Y-62447900D01*
X77532600Y-62447900D02*
X77582800Y-62592100D01*
X77582800Y-62592100D02*
X78627200Y-65597900D01*
X78651800Y-65677100D02*
X78627200Y-65597900D01*
X78651800Y-65677100D02*
X78828200Y-66322900D01*
X78828200Y-66322900D02*
X78901300Y-66590600D01*
X78901300Y-66590600D02*
X79264100Y-67010700D01*
X79264100Y-67010700D02*
X79518300Y-67122100D01*
X79518300Y-67122100D02*
X83251700Y-68757900D01*
X83350900Y-68806800D02*
X83326700Y-68793500D01*
X83326700Y-68793500D02*
X83277000Y-68769000D01*
X83277000Y-68769000D02*
X83251700Y-68757900D01*
X83350900Y-68806800D02*
X85300000Y-69880000D01*
X106800000Y-40500000D02*
X119317500Y-48897400D01*
X119317500Y-48897400D02*
X119323800Y-48901600D01*
X119323800Y-48901600D02*
X126363400Y-53561000D01*
X127370200Y-55097300D02*
X127287300Y-54625900D01*
X127287300Y-54625900D02*
X126762600Y-53825100D01*
X126762600Y-53825100D02*
X126363400Y-53561000D01*
X127370200Y-55097300D02*
X129051900Y-64660200D01*
X127205000Y-66860200D02*
X127620600Y-66860200D01*
X127620600Y-66860200D02*
X128374000Y-66509000D01*
X128374000Y-66509000D02*
X128908400Y-65872400D01*
X128908400Y-65872400D02*
X129123800Y-65069500D01*
X129123800Y-65069500D02*
X129051900Y-64660200D01*
X127205000Y-66860200D02*
X123765000Y-66860200D01*
X123568400Y-66840200D02*
X123616900Y-66850200D01*
X123616900Y-66850200D02*
X123715500Y-66860200D01*
X123715500Y-66860200D02*
X123765000Y-66860200D01*
X123568400Y-66840200D02*
X120598900Y-66228900D01*
X119588800Y-64886600D02*
X119551600Y-65365100D01*
X119551600Y-65365100D02*
X120128800Y-66132100D01*
X120128800Y-66132100D02*
X120598900Y-66228900D01*
X119588800Y-64886600D02*
X119638800Y-64242900D01*
X119638800Y-64242900D02*
X119639400Y-64234700D01*
X119639400Y-64234700D02*
X119640100Y-64218200D01*
X119640100Y-64218200D02*
X119640100Y-64210000D01*
X119640100Y-64210000D02*
X119640100Y-64085000D01*
X119640100Y-64085000D02*
X119640100Y-64046200D01*
X119640100Y-64046200D02*
X119626000Y-63969900D01*
X119626000Y-63969900D02*
X119612200Y-63933600D01*
X119612200Y-63933600D02*
X114227200Y-49808600D01*
X114227200Y-49808600D02*
X114207300Y-49756400D01*
X114207300Y-49756400D02*
X114141900Y-49665800D01*
X114141900Y-49665800D02*
X114098600Y-49630500D01*
X114098600Y-49630500D02*
X108774000Y-45290400D01*
X108774000Y-45290400D02*
X108610000Y-45156800D01*
X108610000Y-45156800D02*
X108211500Y-45014900D01*
X108211500Y-45014900D02*
X108000000Y-45014900D01*
X108000000Y-45014900D02*
X100380000Y-45014900D01*
X100380000Y-45014900D02*
X100045500Y-45014900D01*
X100045500Y-45014900D02*
X99469200Y-45355000D01*
X99469200Y-45355000D02*
X99145800Y-45940700D01*
X99145800Y-45940700D02*
X99165000Y-46609500D01*
X99165000Y-46609500D02*
X99343200Y-46892600D01*
X99343200Y-46892600D02*
X101366800Y-50107400D01*
X101539900Y-50952300D02*
X101574900Y-50732300D01*
X101574900Y-50732300D02*
X101485500Y-50295900D01*
X101485500Y-50295900D02*
X101366800Y-50107400D01*
X101539900Y-50952300D02*
X100965000Y-54570000D01*
X99180000Y-25260000D02*
X97230900Y-26333200D01*
X96914300Y-26454000D02*
X96997300Y-26434900D01*
X96997300Y-26434900D02*
X97156300Y-26374200D01*
X97156300Y-26374200D02*
X97230900Y-26333200D01*
X96914300Y-26454000D02*
X82325700Y-29806000D01*
X82325700Y-29806000D02*
X81995800Y-29881800D01*
X81995800Y-29881800D02*
X81507400Y-30350600D01*
X81507400Y-30350600D02*
X81418200Y-30677100D01*
X81418200Y-30677100D02*
X81241800Y-31322900D01*
X81189300Y-31474900D02*
X81204900Y-31437800D01*
X81204900Y-31437800D02*
X81231200Y-31361700D01*
X81231200Y-31361700D02*
X81241800Y-31322900D01*
X81189300Y-31474900D02*
X74980000Y-46240000D01*
X74980000Y-46240000D02*
X72004400Y-53929300D01*
X72004400Y-53929300D02*
X71933400Y-54112800D01*
X71933400Y-54112800D02*
X71875200Y-54502000D01*
X71875200Y-54502000D02*
X71889400Y-54698200D01*
X71889400Y-54698200D02*
X72438100Y-62278400D01*
X72438100Y-62278400D02*
X72450500Y-62450400D01*
X72450500Y-62450400D02*
X72569500Y-62774300D01*
X72569500Y-62774300D02*
X72671300Y-62913500D01*
X72671300Y-62913500D02*
X74930000Y-66000000D01*
X87840000Y-69880000D02*
X89789100Y-68806800D01*
X91561800Y-69557100D02*
X91487600Y-69285500D01*
X91487600Y-69285500D02*
X91116800Y-68861500D01*
X91116800Y-68861500D02*
X90598200Y-68642000D01*
X90598200Y-68642000D02*
X90035800Y-68671000D01*
X90035800Y-68671000D02*
X89789100Y-68806800D01*
X91561800Y-69557100D02*
X91738200Y-70202900D01*
X91738200Y-70202900D02*
X91847400Y-70602400D01*
X91847400Y-70602400D02*
X92505800Y-71105100D01*
X92505800Y-71105100D02*
X92920000Y-71105100D01*
X92920000Y-71105100D02*
X98000000Y-71105100D01*
X98000000Y-71105100D02*
X98197300Y-71105100D01*
X98197300Y-71105100D02*
X98572100Y-70981200D01*
X98572100Y-70981200D02*
X98730500Y-70863500D01*
X98730500Y-70863500D02*
X101654500Y-68691500D01*
X101974900Y-68520600D02*
X101888900Y-68551200D01*
X101888900Y-68551200D02*
X101727800Y-68637100D01*
X101727800Y-68637100D02*
X101654500Y-68691500D01*
X101974900Y-68520600D02*
X105820100Y-67154400D01*
X105820100Y-67154400D02*
X106077000Y-67063200D01*
X106077000Y-67063200D02*
X106464800Y-66680000D01*
X106464800Y-66680000D02*
X106653700Y-66168600D01*
X106653700Y-66168600D02*
X106607800Y-65625400D01*
X106607800Y-65625400D02*
X106471900Y-65389100D01*
X106471900Y-65389100D02*
X104983100Y-62800900D01*
X104837300Y-62395600D02*
X104855500Y-62502600D01*
X104855500Y-62502600D02*
X104929000Y-62706800D01*
X104929000Y-62706800D02*
X104983100Y-62800900D01*
X104837300Y-62395600D02*
X103505000Y-54570000D01*
X101720000Y-25260000D02*
X99770900Y-26333200D01*
X99703000Y-26367900D02*
X99770900Y-26333200D01*
X99703000Y-26367900D02*
X92237000Y-29892100D01*
X92237000Y-29892100D02*
X91994200Y-30006700D01*
X91994200Y-30006700D02*
X91648900Y-30418100D01*
X91648900Y-30418100D02*
X91578200Y-30677100D01*
X91578200Y-30677100D02*
X91401800Y-31322900D01*
X90877000Y-32034000D02*
X91070000Y-31911400D01*
X91070000Y-31911400D02*
X91341500Y-31543400D01*
X91341500Y-31543400D02*
X91401800Y-31322900D01*
X90877000Y-32034000D02*
X82103000Y-37608700D01*
X82103000Y-37608700D02*
X81686300Y-37873500D01*
X81686300Y-37873500D02*
X81036300Y-38616800D01*
X81036300Y-38616800D02*
X80829500Y-39065200D01*
X80829500Y-39065200D02*
X77520000Y-46240000D01*
X77520000Y-46240000D02*
X76294500Y-50414900D01*
X76294500Y-50414900D02*
X76288200Y-50437100D01*
X76288200Y-50437100D02*
X76111800Y-51082900D01*
X76087200Y-51162100D02*
X76111800Y-51082900D01*
X76087200Y-51162100D02*
X75042800Y-54167900D01*
X75042800Y-54167900D02*
X75009100Y-54264900D01*
X75009100Y-54264900D02*
X74974900Y-54467300D01*
X74974900Y-54467300D02*
X74974900Y-54570000D01*
X74974900Y-54570000D02*
X74974900Y-62190000D01*
X74974900Y-62190000D02*
X74974900Y-62385100D01*
X74974900Y-62385100D02*
X75096100Y-62756000D01*
X75096100Y-62756000D02*
X75211300Y-62913500D01*
X75211300Y-62913500D02*
X77470000Y-66000000D01*
X104260000Y-25260000D02*
X102310900Y-26333200D01*
X102243000Y-26367900D02*
X102310900Y-26333200D01*
X102243000Y-26367900D02*
X94777000Y-29892100D01*
X94777000Y-29892100D02*
X94534200Y-30006700D01*
X94534200Y-30006700D02*
X94188900Y-30418100D01*
X94188900Y-30418100D02*
X94118200Y-30677100D01*
X94118200Y-30677100D02*
X93941800Y-31322900D01*
X93348000Y-32074700D02*
X93566800Y-31955000D01*
X93566800Y-31955000D02*
X93876000Y-31563500D01*
X93876000Y-31563500D02*
X93941800Y-31322900D01*
X93348000Y-32074700D02*
X82559800Y-37977500D01*
X82559800Y-37977500D02*
X81980000Y-38294700D01*
X81980000Y-38294700D02*
X81213800Y-39371800D01*
X81213800Y-39371800D02*
X81104300Y-40023600D01*
X81104300Y-40023600D02*
X80060000Y-46240000D01*
X80060000Y-46240000D02*
X81192800Y-50441000D01*
X81167200Y-51162100D02*
X81227800Y-50987800D01*
X81227800Y-50987800D02*
X81240800Y-50619100D01*
X81240800Y-50619100D02*
X81192800Y-50441000D01*
X81167200Y-51162100D02*
X80122800Y-54167900D01*
X80122800Y-54167900D02*
X80089500Y-54263700D01*
X80089500Y-54263700D02*
X80055300Y-54463700D01*
X80055300Y-54463700D02*
X80054900Y-54565200D01*
X80054900Y-54565200D02*
X80010000Y-66000000D01*
X96640000Y-40500000D02*
X98589100Y-41573200D01*
X98589100Y-41573200D02*
X98692500Y-41630100D01*
X98692500Y-41630100D02*
X98917100Y-41702400D01*
X98917100Y-41702400D02*
X99034300Y-41716400D01*
X99034300Y-41716400D02*
X108407300Y-42838800D01*
X109882500Y-43378200D02*
X109550000Y-43159500D01*
X109550000Y-43159500D02*
X108802400Y-42886200D01*
X108802400Y-42886200D02*
X108407300Y-42838800D01*
X109882500Y-43378200D02*
X126055600Y-54016900D01*
X126828400Y-55192500D02*
X126764900Y-54831300D01*
X126764900Y-54831300D02*
X126362000Y-54218400D01*
X126362000Y-54218400D02*
X126055600Y-54016900D01*
X126828400Y-55192500D02*
X128510100Y-64755500D01*
X127205000Y-66310100D02*
X127498700Y-66310100D01*
X127498700Y-66310100D02*
X128031100Y-66061900D01*
X128031100Y-66061900D02*
X128408700Y-65612100D01*
X128408700Y-65612100D02*
X128560900Y-65044800D01*
X128560900Y-65044800D02*
X128510100Y-64755500D01*
X127205000Y-66310100D02*
X123765000Y-66310100D01*
X123583900Y-66269600D02*
X123626400Y-66289600D01*
X123626400Y-66289600D02*
X123718000Y-66310100D01*
X123718000Y-66310100D02*
X123765000Y-66310100D01*
X123583900Y-66269600D02*
X120855000Y-64985000D01*
X94100000Y-40500000D02*
X96049100Y-41573200D01*
X96049100Y-41573200D02*
X96125700Y-41615400D01*
X96125700Y-41615400D02*
X96289300Y-41677100D01*
X96289300Y-41677100D02*
X96374700Y-41696000D01*
X96374700Y-41696000D02*
X98795500Y-42233100D01*
X98795500Y-42233100D02*
X98838500Y-42242600D01*
X98838500Y-42242600D02*
X98925200Y-42257400D01*
X98925200Y-42257400D02*
X98968900Y-42262600D01*
X98968900Y-42262600D02*
X108341900Y-43385000D01*
X109580200Y-43837700D02*
X109301100Y-43654100D01*
X109301100Y-43654100D02*
X108673600Y-43424700D01*
X108673600Y-43424700D02*
X108341900Y-43385000D01*
X109580200Y-43837700D02*
X125753300Y-54476500D01*
X126299700Y-55385000D02*
X126273500Y-55107500D01*
X126273500Y-55107500D02*
X125986200Y-54629700D01*
X125986200Y-54629700D02*
X125753300Y-54476500D01*
X126299700Y-55385000D02*
X127205000Y-64985000D01*
X98425000Y-54570000D02*
X99634200Y-61993000D01*
X99633400Y-62391400D02*
X99649900Y-62292500D01*
X99649900Y-62292500D02*
X99650200Y-62092000D01*
X99650200Y-62092000D02*
X99634200Y-61993000D01*
X99633400Y-62391400D02*
X98998400Y-66201400D01*
X98971800Y-66322900D02*
X98980000Y-66292900D01*
X98980000Y-66292900D02*
X98993300Y-66232100D01*
X98993300Y-66232100D02*
X98998400Y-66201400D01*
X98971800Y-66322900D02*
X98000000Y-69880000D01*
X108000000Y-46240000D02*
X111392000Y-49931000D01*
X111708800Y-50636100D02*
X111688700Y-50438800D01*
X111688700Y-50438800D02*
X111526200Y-50077000D01*
X111526200Y-50077000D02*
X111392000Y-49931000D01*
X111708800Y-50636100D02*
X111807100Y-51603000D01*
X111807100Y-51603000D02*
X111812200Y-51653100D01*
X111812200Y-51653100D02*
X111845500Y-51748100D01*
X111845500Y-51748100D02*
X111872700Y-51790400D01*
X111872700Y-51790400D02*
X113665000Y-54570000D01*
X91560000Y-40500000D02*
X89610900Y-39426800D01*
X89610900Y-39426800D02*
X89550700Y-39395800D01*
X89550700Y-39395800D02*
X87487200Y-38404200D01*
X87487200Y-38404200D02*
X87251500Y-38290900D01*
X87251500Y-38290900D02*
X86741500Y-38174700D01*
X86741500Y-38174700D02*
X86480000Y-38174700D01*
X86480000Y-38174700D02*
X83940000Y-38174700D01*
X83940000Y-38174700D02*
X83424000Y-38174700D01*
X83424000Y-38174700D02*
X82488800Y-38611200D01*
X82488800Y-38611200D02*
X81826100Y-39402400D01*
X81826100Y-39402400D02*
X81560300Y-40399600D01*
X81560300Y-40399600D02*
X81650700Y-40907600D01*
X81650700Y-40907600D02*
X82600000Y-46240000D01*
X82600000Y-46240000D02*
X83732800Y-50441000D01*
X83707200Y-51162100D02*
X83767800Y-50987800D01*
X83767800Y-50987800D02*
X83780800Y-50619100D01*
X83780800Y-50619100D02*
X83732800Y-50441000D01*
X83707200Y-51162100D02*
X82662800Y-54167900D01*
X82662800Y-54167900D02*
X82629500Y-54263700D01*
X82629500Y-54263700D02*
X82595300Y-54463700D01*
X82595300Y-54463700D02*
X82594900Y-54565200D01*
X82594900Y-54565200D02*
X82550000Y-66000000D01*
X89020000Y-40500000D02*
X87720700Y-39230300D01*
X87720700Y-39230300D02*
X87472000Y-38987200D01*
X87472000Y-38987200D02*
X86827800Y-38724800D01*
X86827800Y-38724800D02*
X86480000Y-38724800D01*
X86480000Y-38724800D02*
X83940000Y-38724800D01*
X83940000Y-38724800D02*
X83466700Y-38724800D01*
X83466700Y-38724800D02*
X82645800Y-39196000D01*
X82645800Y-39196000D02*
X82168400Y-40013400D01*
X82168400Y-40013400D02*
X82161300Y-40960000D01*
X82161300Y-40960000D02*
X82393900Y-41372200D01*
X82393900Y-41372200D02*
X85140000Y-46240000D01*
X85140000Y-46240000D02*
X86272800Y-50441000D01*
X86247200Y-51162100D02*
X86307800Y-50987800D01*
X86307800Y-50987800D02*
X86320800Y-50619100D01*
X86320800Y-50619100D02*
X86272800Y-50441000D01*
X86247200Y-51162100D02*
X85202800Y-54167900D01*
X85202800Y-54167900D02*
X85169500Y-54263700D01*
X85169500Y-54263700D02*
X85135300Y-54463700D01*
X85135300Y-54463700D02*
X85134900Y-54565200D01*
X85134900Y-54565200D02*
X85090000Y-66000000D01*
X105560000Y-77295000D02*
X117327600Y-65795600D01*
X117415000Y-65760000D02*
X117390500Y-65760000D01*
X117390500Y-65760000D02*
X117345100Y-65778500D01*
X117345100Y-65778500D02*
X117327600Y-65795600D01*
X117415000Y-65760000D02*
X117540000Y-65760000D01*
X117540000Y-65760000D02*
X118315000Y-64985000D01*
X91440000Y-62190000D02*
X90765000Y-62865000D01*
X90765000Y-62865000D02*
X90640000Y-62865000D01*
X90640000Y-62865000D02*
X90629000Y-62865000D01*
X90629000Y-62865000D02*
X90607300Y-62868800D01*
X90607300Y-62868800D02*
X90597000Y-62872600D01*
X90597000Y-62872600D02*
X89321700Y-63340200D01*
X87674900Y-62194800D02*
X87676100Y-62494300D01*
X87676100Y-62494300D02*
X87954600Y-63024700D01*
X87954600Y-63024700D02*
X88446300Y-63366800D01*
X88446300Y-63366800D02*
X89040500Y-63443300D01*
X89040500Y-63443300D02*
X89321700Y-63340200D01*
X87674900Y-62194800D02*
X87630000Y-50760000D01*
X88900000Y-62190000D02*
X90109200Y-54767000D01*
X90109200Y-54767000D02*
X90116600Y-54721700D01*
X90116600Y-54721700D02*
X90124500Y-54630300D01*
X90124500Y-54630300D02*
X90125000Y-54584400D01*
X90125000Y-54584400D02*
X90170000Y-50760000D01*
X86360000Y-62190000D02*
X88618700Y-65276500D01*
X88811800Y-65677100D02*
X88782300Y-65569000D01*
X88782300Y-65569000D02*
X88684900Y-65367000D01*
X88684900Y-65367000D02*
X88618700Y-65276500D01*
X88811800Y-65677100D02*
X88988200Y-66322900D01*
X88988200Y-66322900D02*
X89097400Y-66722400D01*
X89097400Y-66722400D02*
X89755800Y-67225100D01*
X89755800Y-67225100D02*
X90584200Y-67225100D01*
X90584200Y-67225100D02*
X91242600Y-66722400D01*
X91242600Y-66722400D02*
X91351800Y-66322900D01*
X91351800Y-66322900D02*
X91528200Y-65677100D01*
X91722600Y-65274700D02*
X91655900Y-65365500D01*
X91655900Y-65365500D02*
X91557900Y-65568400D01*
X91557900Y-65568400D02*
X91528200Y-65677100D01*
X91722600Y-65274700D02*
X92994000Y-63543900D01*
X92994000Y-63543900D02*
X93088100Y-63415800D01*
X93088100Y-63415800D02*
X93181200Y-63111700D01*
X93181200Y-63111700D02*
X93174900Y-62952800D01*
X93174900Y-62952800D02*
X93148900Y-62298800D01*
X93148900Y-62081200D02*
X93146700Y-62135600D01*
X93146700Y-62135600D02*
X93146700Y-62244400D01*
X93146700Y-62244400D02*
X93148900Y-62298800D01*
X93148900Y-62081200D02*
X93174900Y-61427200D01*
X93174900Y-61427200D02*
X93175600Y-61395400D01*
X93175600Y-61395400D02*
X93215200Y-54580300D01*
X93215200Y-54580300D02*
X93215600Y-54517300D01*
X93215600Y-54517300D02*
X93207400Y-54391500D01*
X93207400Y-54391500D02*
X93198800Y-54329100D01*
X93198800Y-54329100D02*
X92710000Y-50760000D01*
X100380000Y-46240000D02*
X106050200Y-49715500D01*
X106591800Y-50437100D02*
X106530200Y-50211600D01*
X106530200Y-50211600D02*
X106249500Y-49837600D01*
X106249500Y-49837600D02*
X106050200Y-49715500D01*
X106591800Y-50437100D02*
X106768200Y-51082900D01*
X106768200Y-51082900D02*
X106823400Y-51285100D01*
X106823400Y-51285100D02*
X107062000Y-51629700D01*
X107062000Y-51629700D02*
X107231800Y-51752500D01*
X107231800Y-51752500D02*
X111125000Y-54570000D01*
X105410000Y-66000000D02*
X100965000Y-62190000D01*
X105410000Y-50760000D02*
X104835100Y-54377700D01*
X104835100Y-54377700D02*
X104819700Y-54474400D01*
X104819700Y-54474400D02*
X104820100Y-54670300D01*
X104820100Y-54670300D02*
X104835800Y-54767000D01*
X104835800Y-54767000D02*
X106045000Y-62190000D01*
X95300000Y-46240000D02*
X96432800Y-50441000D01*
X96311900Y-51370900D02*
X96433400Y-51159700D01*
X96433400Y-51159700D02*
X96496300Y-50676300D01*
X96496300Y-50676300D02*
X96432800Y-50441000D01*
X96311900Y-51370900D02*
X94823100Y-53959100D01*
X94823100Y-53959100D02*
X94752400Y-54082000D01*
X94752400Y-54082000D02*
X94670900Y-54353600D01*
X94670900Y-54353600D02*
X94662200Y-54495100D01*
X94662200Y-54495100D02*
X94232500Y-61512000D01*
X94227800Y-61572600D02*
X94232500Y-61512000D01*
X94227800Y-61572600D02*
X94185500Y-62033900D01*
X94185500Y-62033900D02*
X94170500Y-62197600D01*
X94170500Y-62197600D02*
X94203400Y-62524800D01*
X94203400Y-62524800D02*
X94250800Y-62682200D01*
X94250800Y-62682200D02*
X95250000Y-66000000D01*
X90220000Y-46240000D02*
X91527300Y-51079500D01*
X91527300Y-51079500D02*
X91532900Y-51100400D01*
X91532900Y-51100400D02*
X91545700Y-51141700D01*
X91545700Y-51141700D02*
X91552800Y-51162100D01*
X91552800Y-51162100D02*
X92597200Y-54167900D01*
X92665100Y-54573600D02*
X92665400Y-54470000D01*
X92665400Y-54470000D02*
X92631200Y-54265700D01*
X92631200Y-54265700D02*
X92597200Y-54167900D01*
X92665100Y-54573600D02*
X92645300Y-61391200D01*
X92645300Y-61391200D02*
X92645200Y-61397700D01*
X92645200Y-61397700D02*
X92631400Y-62128400D01*
X92631400Y-62128400D02*
X92631400Y-62251600D01*
X92631400Y-62251600D02*
X92645200Y-62982300D01*
X92546400Y-63255300D02*
X92595500Y-63198500D01*
X92595500Y-63198500D02*
X92646600Y-63057400D01*
X92646600Y-63057400D02*
X92645200Y-62982300D01*
X92546400Y-63255300D02*
X90170000Y-66000000D01*
X95885000Y-54570000D02*
X94708800Y-62003900D01*
X94708800Y-62003900D02*
X94677500Y-62202000D01*
X94677500Y-62202000D02*
X94748000Y-62596900D01*
X94748000Y-62596900D02*
X94846100Y-62771900D01*
X94846100Y-62771900D02*
X96318900Y-65401300D01*
X96090300Y-66891500D02*
X96397000Y-66602400D01*
X96397000Y-66602400D02*
X96524800Y-65769100D01*
X96524800Y-65769100D02*
X96318900Y-65401300D01*
X96090300Y-66891500D02*
X92920000Y-69880000D01*
X97840000Y-46240000D02*
X98972800Y-50441000D01*
X98851900Y-51370900D02*
X98973400Y-51159700D01*
X98973400Y-51159700D02*
X99036300Y-50676300D01*
X99036300Y-50676300D02*
X98972800Y-50441000D01*
X98851900Y-51370900D02*
X97363100Y-53959100D01*
X97363100Y-53959100D02*
X97282900Y-54098500D01*
X97282900Y-54098500D02*
X97199900Y-54409200D01*
X97199900Y-54409200D02*
X97199900Y-54570000D01*
X97199900Y-54570000D02*
X97199900Y-62190000D01*
X97199900Y-62190000D02*
X97199900Y-62238300D01*
X97199900Y-62238300D02*
X97207500Y-62334600D01*
X97207500Y-62334600D02*
X97215100Y-62382300D01*
X97215100Y-62382300D02*
X97790000Y-66000000D01*
X107950000Y-66000000D02*
X106650700Y-67269700D01*
X106495000Y-67405000D02*
X106535800Y-67373500D01*
X106535800Y-67373500D02*
X106613700Y-67305700D01*
X106613700Y-67305700D02*
X106650700Y-67269700D01*
X106495000Y-67405000D02*
X104811200Y-68705400D01*
X104811200Y-68705400D02*
X104748100Y-68754200D01*
X104748100Y-68754200D02*
X104635500Y-68867200D01*
X104635500Y-68867200D02*
X104587000Y-68930600D01*
X104587000Y-68930600D02*
X98700700Y-76624000D01*
X98700700Y-76624000D02*
X98688200Y-76640400D01*
X98688200Y-76640400D02*
X98675000Y-76679400D01*
X98675000Y-76679400D02*
X98675000Y-76700000D01*
X98675000Y-76700000D02*
X98675000Y-76825000D01*
X98675000Y-76825000D02*
X98000000Y-77500000D01*
X113030000Y-50760000D02*
X113705000Y-51435000D01*
X113705000Y-51435000D02*
X113705000Y-51560000D01*
X113705000Y-51560000D02*
X113705000Y-51572800D01*
X113705000Y-51572800D02*
X113710200Y-51598000D01*
X113710200Y-51598000D02*
X113715300Y-51609800D01*
X113715300Y-51609800D02*
X114788800Y-54082100D01*
X114890100Y-54570000D02*
X114890100Y-54444100D01*
X114890100Y-54444100D02*
X114838900Y-54197600D01*
X114838900Y-54197600D02*
X114788800Y-54082100D01*
X114890100Y-54570000D02*
X114890100Y-62990000D01*
X114881400Y-63075500D02*
X114885700Y-63054400D01*
X114885700Y-63054400D02*
X114890100Y-63011500D01*
X114890100Y-63011500D02*
X114890100Y-62990000D01*
X114881400Y-63075500D02*
X114230000Y-66246500D01*
X114020300Y-66721300D02*
X114097600Y-66615200D01*
X114097600Y-66615200D02*
X114203700Y-66375100D01*
X114203700Y-66375100D02*
X114230000Y-66246500D01*
X114020300Y-66721300D02*
X110360300Y-71746300D01*
X109922000Y-72118700D02*
X110052200Y-72053000D01*
X110052200Y-72053000D02*
X110274400Y-71864100D01*
X110274400Y-71864100D02*
X110360300Y-71746300D01*
X109922000Y-72118700D02*
X101833000Y-76201300D01*
X101833000Y-76201300D02*
X101760400Y-76237900D01*
X101760400Y-76237900D02*
X101626200Y-76329800D01*
X101626200Y-76329800D02*
X101565700Y-76384100D01*
X101565700Y-76384100D02*
X99084300Y-78616100D01*
X98800000Y-78725100D02*
X98878700Y-78725100D01*
X98878700Y-78725100D02*
X99025700Y-78668700D01*
X99025700Y-78668700D02*
X99084300Y-78616100D01*
X98800000Y-78725100D02*
X97200000Y-78725100D01*
X96941100Y-78637200D02*
X96996800Y-78680000D01*
X96996800Y-78680000D02*
X97129800Y-78725100D01*
X97129800Y-78725100D02*
X97200000Y-78725100D01*
X96941100Y-78637200D02*
X95460000Y-77500000D01*
X105460000Y-46240000D02*
X108852000Y-49931000D01*
X109131800Y-50437100D02*
X109093100Y-50295600D01*
X109093100Y-50295600D02*
X108951300Y-50039000D01*
X108951300Y-50039000D02*
X108852000Y-49931000D01*
X109131800Y-50437100D02*
X109308200Y-51082900D01*
X109308200Y-51082900D02*
X109355800Y-51257200D01*
X109355800Y-51257200D02*
X109547600Y-51563400D01*
X109547600Y-51563400D02*
X109683600Y-51682300D01*
X109683600Y-51682300D02*
X111931400Y-53647700D01*
X112350100Y-54570000D02*
X112350100Y-54304900D01*
X112350100Y-54304900D02*
X112130900Y-53822200D01*
X112130900Y-53822200D02*
X111931400Y-53647700D01*
X112350100Y-54570000D02*
X112350100Y-62190000D01*
X112207200Y-62764300D02*
X112277600Y-62631600D01*
X112277600Y-62631600D02*
X112350100Y-62340200D01*
X112350100Y-62340200D02*
X112350100Y-62190000D01*
X112207200Y-62764300D02*
X110490000Y-66000000D01*
X99180000Y-40500000D02*
X97230900Y-39426800D01*
X97230900Y-39426800D02*
X97095100Y-39352100D01*
X97095100Y-39352100D02*
X96795000Y-39274900D01*
X96795000Y-39274900D02*
X96640000Y-39274900D01*
X96640000Y-39274900D02*
X94100000Y-39274900D01*
X94100000Y-39274900D02*
X93685800Y-39274900D01*
X93685800Y-39274900D02*
X93027400Y-39777600D01*
X93027400Y-39777600D02*
X92918200Y-40177100D01*
X92918200Y-40177100D02*
X92741800Y-40822900D01*
X91560000Y-41725100D02*
X91974200Y-41725100D01*
X91974200Y-41725100D02*
X92632600Y-41222400D01*
X92632600Y-41222400D02*
X92741800Y-40822900D01*
X91560000Y-41725100D02*
X89020000Y-41725100D01*
X87838200Y-40822900D02*
X87947400Y-41222400D01*
X87947400Y-41222400D02*
X88605800Y-41725100D01*
X88605800Y-41725100D02*
X89020000Y-41725100D01*
X87838200Y-40822900D02*
X87661800Y-40177100D01*
X87661800Y-40177100D02*
X87552600Y-39777600D01*
X87552600Y-39777600D02*
X86894200Y-39274900D01*
X86894200Y-39274900D02*
X86480000Y-39274900D01*
X86480000Y-39274900D02*
X83940000Y-39274900D01*
X83940000Y-39274900D02*
X83511200Y-39274900D01*
X83511200Y-39274900D02*
X82840900Y-39809600D01*
X82840900Y-39809600D02*
X82650200Y-40645700D01*
X82650200Y-40645700D02*
X83022500Y-41418100D01*
X83022500Y-41418100D02*
X83408900Y-41604000D01*
X83408900Y-41604000D02*
X90751100Y-45136000D01*
X90810900Y-45166800D02*
X90751100Y-45136000D01*
X90810900Y-45166800D02*
X92760000Y-46240000D01*
X92760000Y-46240000D02*
X93892800Y-50441000D01*
X93934800Y-50786400D02*
X93936700Y-50699000D01*
X93936700Y-50699000D02*
X93915600Y-50525400D01*
X93915600Y-50525400D02*
X93892800Y-50441000D01*
X93934800Y-50786400D02*
X93705600Y-61421600D01*
X93702900Y-61483000D02*
X93705600Y-61421600D01*
X93702900Y-61483000D02*
X93667000Y-62049000D01*
X93667000Y-62049000D02*
X93662500Y-62119400D01*
X93662500Y-62119400D02*
X93662500Y-62260600D01*
X93662500Y-62260600D02*
X93667000Y-62331000D01*
X93667000Y-62331000D02*
X93702900Y-62897000D01*
X93618500Y-63488700D02*
X93669900Y-63346700D01*
X93669900Y-63346700D02*
X93712600Y-63047700D01*
X93712600Y-63047700D02*
X93702900Y-62897000D01*
X93618500Y-63488700D02*
X92710000Y-66000000D01*
X125080000Y-55500000D02*
X109345000Y-44343100D01*
X109345000Y-44343100D02*
X109091500Y-44163400D01*
X109091500Y-44163400D02*
X108507900Y-43949600D01*
X108507900Y-43949600D02*
X108198300Y-43923200D01*
X108198300Y-43923200D02*
X88868600Y-42268700D01*
X87779300Y-41769700D02*
X88000000Y-41985400D01*
X88000000Y-41985400D02*
X88561100Y-42242500D01*
X88561100Y-42242500D02*
X88868600Y-42268700D01*
X87779300Y-41769700D02*
X86480000Y-40500000D01*
X122540000Y-55500000D02*
X109102700Y-44848800D01*
X109102700Y-44848800D02*
X108897800Y-44686400D01*
X108897800Y-44686400D02*
X108411900Y-44493500D01*
X108411900Y-44493500D02*
X108151400Y-44471300D01*
X108151400Y-44471300D02*
X88821700Y-42816800D01*
X88012800Y-42595800D02*
X88203300Y-42687400D01*
X88203300Y-42687400D02*
X88611100Y-42798800D01*
X88611100Y-42798800D02*
X88821700Y-42816800D01*
X88012800Y-42595800D02*
X85949300Y-41604200D01*
X85889100Y-41573200D02*
X85949300Y-41604200D01*
X85889100Y-41573200D02*
X83940000Y-40500000D01*
M02*
