G04 #@! TF.GenerationSoftware,KiCad,Pcbnew,(5.0.0-rc2-83-gda392728d)*
G04 #@! TF.CreationDate,2018-06-14T18:24:26+09:00*
G04 #@! TF.ProjectId,cpu,6370752E6B696361645F706362000000,rev?*
G04 #@! TF.SameCoordinates,Original*
G04 #@! TF.FileFunction,Soldermask,Top*
G04 #@! TF.FilePolarity,Negative*
%FSLAX46Y46*%
G04 Gerber Fmt 4.6, Leading zero omitted, Abs format (unit mm)*
G04 Created by KiCad (PCBNEW (5.0.0-rc2-83-gda392728d)) date 06/14/18 18:24:26*
%MOMM*%
%LPD*%
G01*
G04 APERTURE LIST*
%ADD10C,2.000000*%
%ADD11R,2.000000X2.000000*%
%ADD12O,2.000000X2.000000*%
%ADD13C,2.400000*%
%ADD14C,1.900000*%
%ADD15C,2.200000*%
%ADD16R,2.200000X2.200000*%
%ADD17R,1.700000X0.850000*%
%ADD18O,2.400000X1.850000*%
%ADD19O,2.200000X1.550000*%
%ADD20O,1.200000X1.200000*%
%ADD21R,3.200000X3.200000*%
%ADD22O,3.200000X3.200000*%
%ADD23R,2.127200X2.127200*%
%ADD24O,2.127200X2.127200*%
%ADD25C,1.924000*%
%ADD26R,3.900000X3.900000*%
%ADD27C,0.100000*%
%ADD28C,3.400000*%
%ADD29C,3.900000*%
%ADD30R,1.600000X1.600000*%
%ADD31C,1.600000*%
G04 APERTURE END LIST*
D10*
G04 #@! TO.C,C83*
X240000000Y-167500000D03*
X235000000Y-167500000D03*
G04 #@! TD*
D11*
G04 #@! TO.C,U21-LM555*
X138500000Y-39500000D03*
D12*
X146120000Y-31880000D03*
X141040000Y-39500000D03*
X143580000Y-31880000D03*
X143580000Y-39500000D03*
X141040000Y-31880000D03*
X146120000Y-39500000D03*
X138500000Y-31880000D03*
G04 #@! TD*
G04 #@! TO.C,R1*
X248120000Y-39500000D03*
D10*
X240500000Y-39500000D03*
G04 #@! TD*
G04 #@! TO.C,R3*
X259000000Y-34000000D03*
D12*
X251380000Y-34000000D03*
G04 #@! TD*
D10*
G04 #@! TO.C,R4*
X160500000Y-30500000D03*
D12*
X168120000Y-30500000D03*
G04 #@! TD*
D10*
G04 #@! TO.C,R5*
X160500000Y-27000000D03*
D12*
X168120000Y-27000000D03*
G04 #@! TD*
D10*
G04 #@! TO.C,R6*
X178000000Y-30500000D03*
D12*
X170380000Y-30500000D03*
G04 #@! TD*
G04 #@! TO.C,R7*
X170380000Y-27000000D03*
D10*
X178000000Y-27000000D03*
G04 #@! TD*
G04 #@! TO.C,R8*
X178000000Y-23500000D03*
D12*
X170380000Y-23500000D03*
G04 #@! TD*
G04 #@! TO.C,R9*
X168120000Y-23500000D03*
D10*
X160500000Y-23500000D03*
G04 #@! TD*
D12*
G04 #@! TO.C,R10*
X240380000Y-50000000D03*
D10*
X248000000Y-50000000D03*
G04 #@! TD*
G04 #@! TO.C,R11*
X240500000Y-46500000D03*
D12*
X248120000Y-46500000D03*
G04 #@! TD*
D10*
G04 #@! TO.C,R12*
X221000000Y-80500000D03*
D12*
X221000000Y-72880000D03*
G04 #@! TD*
D10*
G04 #@! TO.C,R13*
X217500000Y-80500000D03*
D12*
X217500000Y-72880000D03*
G04 #@! TD*
D11*
G04 #@! TO.C,SW1*
X163000000Y-20000000D03*
D12*
X168080000Y-12380000D03*
X165540000Y-20000000D03*
X165540000Y-12380000D03*
X168080000Y-20000000D03*
X163000000Y-12380000D03*
G04 #@! TD*
D13*
G04 #@! TO.C,SW2*
X252000000Y-47000000D03*
X252000000Y-42500000D03*
X258500000Y-47000000D03*
X258500000Y-42500000D03*
G04 #@! TD*
D11*
G04 #@! TO.C,U1-LM555*
X248500000Y-32000000D03*
D12*
X240880000Y-24380000D03*
X248500000Y-29460000D03*
X240880000Y-26920000D03*
X248500000Y-26920000D03*
X240880000Y-29460000D03*
X248500000Y-24380000D03*
X240880000Y-32000000D03*
G04 #@! TD*
G04 #@! TO.C,U2-74HC14*
X203500000Y-31120000D03*
X188260000Y-23500000D03*
X200960000Y-31120000D03*
X190800000Y-23500000D03*
X198420000Y-31120000D03*
X193340000Y-23500000D03*
X195880000Y-31120000D03*
X195880000Y-23500000D03*
X193340000Y-31120000D03*
X198420000Y-23500000D03*
X190800000Y-31120000D03*
X200960000Y-23500000D03*
X188260000Y-31120000D03*
D11*
X203500000Y-23500000D03*
G04 #@! TD*
G04 #@! TO.C,U3-74151*
X216500000Y-3500000D03*
D12*
X198720000Y-11120000D03*
X213960000Y-3500000D03*
X201260000Y-11120000D03*
X211420000Y-3500000D03*
X203800000Y-11120000D03*
X208880000Y-3500000D03*
X206340000Y-11120000D03*
X206340000Y-3500000D03*
X208880000Y-11120000D03*
X203800000Y-3500000D03*
X211420000Y-11120000D03*
X201260000Y-3500000D03*
X213960000Y-11120000D03*
X198720000Y-3500000D03*
X216500000Y-11120000D03*
G04 #@! TD*
G04 #@! TO.C,U4-LM555 - Button Clock*
X237500000Y-47120000D03*
X229880000Y-39500000D03*
X234960000Y-47120000D03*
X232420000Y-39500000D03*
X232420000Y-47120000D03*
X234960000Y-39500000D03*
X229880000Y-47120000D03*
D11*
X237500000Y-39500000D03*
G04 #@! TD*
D12*
G04 #@! TO.C,U5-74HC04*
X192500000Y-72380000D03*
X207740000Y-80000000D03*
X195040000Y-72380000D03*
X205200000Y-80000000D03*
X197580000Y-72380000D03*
X202660000Y-80000000D03*
X200120000Y-72380000D03*
X200120000Y-80000000D03*
X202660000Y-72380000D03*
X197580000Y-80000000D03*
X205200000Y-72380000D03*
X195040000Y-80000000D03*
X207740000Y-72380000D03*
D11*
X192500000Y-80000000D03*
G04 #@! TD*
D14*
G04 #@! TO.C,Y1*
X212500000Y-78000000D03*
X212500000Y-73120000D03*
G04 #@! TD*
D15*
G04 #@! TO.C,D1*
X194000000Y-5460000D03*
D16*
X194000000Y-8000000D03*
G04 #@! TD*
G04 #@! TO.C,D2*
X189500000Y-8000000D03*
D15*
X189500000Y-5460000D03*
G04 #@! TD*
G04 #@! TO.C,D3*
X185000000Y-5460000D03*
D16*
X185000000Y-8000000D03*
G04 #@! TD*
G04 #@! TO.C,D4*
X180500000Y-8000000D03*
D15*
X180500000Y-5460000D03*
G04 #@! TD*
G04 #@! TO.C,D5*
X176000000Y-5460000D03*
D16*
X176000000Y-8000000D03*
G04 #@! TD*
D15*
G04 #@! TO.C,D6*
X171500000Y-5460000D03*
D16*
X171500000Y-8000000D03*
G04 #@! TD*
G04 #@! TO.C,D7*
X167000000Y-8000000D03*
D15*
X167000000Y-5460000D03*
G04 #@! TD*
D16*
G04 #@! TO.C,D8*
X162500000Y-8000000D03*
D15*
X162500000Y-5460000D03*
G04 #@! TD*
D10*
G04 #@! TO.C,R14*
X173000000Y-20000000D03*
D12*
X173000000Y-12380000D03*
G04 #@! TD*
G04 #@! TO.C,U6-74LS138*
X195000000Y-20120000D03*
X177220000Y-12500000D03*
X192460000Y-20120000D03*
X179760000Y-12500000D03*
X189920000Y-20120000D03*
X182300000Y-12500000D03*
X187380000Y-20120000D03*
X184840000Y-12500000D03*
X184840000Y-20120000D03*
X187380000Y-12500000D03*
X182300000Y-20120000D03*
X189920000Y-12500000D03*
X179760000Y-20120000D03*
X192460000Y-12500000D03*
X177220000Y-20120000D03*
D11*
X195000000Y-12500000D03*
G04 #@! TD*
D10*
G04 #@! TO.C,R15*
X239500000Y-21000000D03*
D12*
X239500000Y-13380000D03*
G04 #@! TD*
G04 #@! TO.C,R16*
X236000000Y-13380000D03*
D10*
X236000000Y-21000000D03*
G04 #@! TD*
D11*
G04 #@! TO.C,U7-74HC245*
X116500000Y-25000000D03*
D12*
X108880000Y-2140000D03*
X116500000Y-22460000D03*
X108880000Y-4680000D03*
X116500000Y-19920000D03*
X108880000Y-7220000D03*
X116500000Y-17380000D03*
X108880000Y-9760000D03*
X116500000Y-14840000D03*
X108880000Y-12300000D03*
X116500000Y-12300000D03*
X108880000Y-14840000D03*
X116500000Y-9760000D03*
X108880000Y-17380000D03*
X116500000Y-7220000D03*
X108880000Y-19920000D03*
X116500000Y-4680000D03*
X108880000Y-22460000D03*
X116500000Y-2140000D03*
X108880000Y-25000000D03*
G04 #@! TD*
D11*
G04 #@! TO.C,U8-74HCT574*
X145500000Y-168000000D03*
D12*
X122640000Y-175620000D03*
X142960000Y-168000000D03*
X125180000Y-175620000D03*
X140420000Y-168000000D03*
X127720000Y-175620000D03*
X137880000Y-168000000D03*
X130260000Y-175620000D03*
X135340000Y-168000000D03*
X132800000Y-175620000D03*
X132800000Y-168000000D03*
X135340000Y-175620000D03*
X130260000Y-168000000D03*
X137880000Y-175620000D03*
X127720000Y-168000000D03*
X140420000Y-175620000D03*
X125180000Y-168000000D03*
X142960000Y-175620000D03*
X122640000Y-168000000D03*
X145500000Y-175620000D03*
G04 #@! TD*
G04 #@! TO.C,U10-74HCT574*
X145500000Y-197620000D03*
X122640000Y-190000000D03*
X142960000Y-197620000D03*
X125180000Y-190000000D03*
X140420000Y-197620000D03*
X127720000Y-190000000D03*
X137880000Y-197620000D03*
X130260000Y-190000000D03*
X135340000Y-197620000D03*
X132800000Y-190000000D03*
X132800000Y-197620000D03*
X135340000Y-190000000D03*
X130260000Y-197620000D03*
X137880000Y-190000000D03*
X127720000Y-197620000D03*
X140420000Y-190000000D03*
X125180000Y-197620000D03*
X142960000Y-190000000D03*
X122640000Y-197620000D03*
D11*
X145500000Y-190000000D03*
G04 #@! TD*
D12*
G04 #@! TO.C,U12-74HCT574*
X175500000Y-164620000D03*
X152640000Y-157000000D03*
X172960000Y-164620000D03*
X155180000Y-157000000D03*
X170420000Y-164620000D03*
X157720000Y-157000000D03*
X167880000Y-164620000D03*
X160260000Y-157000000D03*
X165340000Y-164620000D03*
X162800000Y-157000000D03*
X162800000Y-164620000D03*
X165340000Y-157000000D03*
X160260000Y-164620000D03*
X167880000Y-157000000D03*
X157720000Y-164620000D03*
X170420000Y-157000000D03*
X155180000Y-164620000D03*
X172960000Y-157000000D03*
X152640000Y-164620000D03*
D11*
X175500000Y-157000000D03*
G04 #@! TD*
G04 #@! TO.C,U14-74HCT574*
X175500000Y-168000000D03*
D12*
X152640000Y-175620000D03*
X172960000Y-168000000D03*
X155180000Y-175620000D03*
X170420000Y-168000000D03*
X157720000Y-175620000D03*
X167880000Y-168000000D03*
X160260000Y-175620000D03*
X165340000Y-168000000D03*
X162800000Y-175620000D03*
X162800000Y-168000000D03*
X165340000Y-175620000D03*
X160260000Y-168000000D03*
X167880000Y-175620000D03*
X157720000Y-168000000D03*
X170420000Y-175620000D03*
X155180000Y-168000000D03*
X172960000Y-175620000D03*
X152640000Y-168000000D03*
X175500000Y-175620000D03*
G04 #@! TD*
D11*
G04 #@! TO.C,U16-74HCT574*
X175500000Y-179000000D03*
D12*
X152640000Y-186620000D03*
X172960000Y-179000000D03*
X155180000Y-186620000D03*
X170420000Y-179000000D03*
X157720000Y-186620000D03*
X167880000Y-179000000D03*
X160260000Y-186620000D03*
X165340000Y-179000000D03*
X162800000Y-186620000D03*
X162800000Y-179000000D03*
X165340000Y-186620000D03*
X160260000Y-179000000D03*
X167880000Y-186620000D03*
X157720000Y-179000000D03*
X170420000Y-186620000D03*
X155180000Y-179000000D03*
X172960000Y-186620000D03*
X152640000Y-179000000D03*
X175500000Y-186620000D03*
G04 #@! TD*
D17*
G04 #@! TO.C,J1*
X259400000Y-4700000D03*
X259400000Y-5350000D03*
X259400000Y-6000000D03*
X259400000Y-6650000D03*
X259400000Y-7300000D03*
D18*
X259350000Y-2275000D03*
X259350000Y-9725000D03*
D19*
X255550000Y-2125000D03*
X255550000Y-9875000D03*
D20*
X258300000Y-3500000D03*
X258300000Y-8500000D03*
G04 #@! TD*
D11*
G04 #@! TO.C,U18-74HCT574*
X175500000Y-190000000D03*
D12*
X152640000Y-197620000D03*
X172960000Y-190000000D03*
X155180000Y-197620000D03*
X170420000Y-190000000D03*
X157720000Y-197620000D03*
X167880000Y-190000000D03*
X160260000Y-197620000D03*
X165340000Y-190000000D03*
X162800000Y-197620000D03*
X162800000Y-190000000D03*
X165340000Y-197620000D03*
X160260000Y-190000000D03*
X167880000Y-197620000D03*
X157720000Y-190000000D03*
X170420000Y-197620000D03*
X155180000Y-190000000D03*
X172960000Y-197620000D03*
X152640000Y-190000000D03*
X175500000Y-197620000D03*
G04 #@! TD*
G04 #@! TO.C,U9-74HC245*
X145500000Y-186620000D03*
X122640000Y-179000000D03*
X142960000Y-186620000D03*
X125180000Y-179000000D03*
X140420000Y-186620000D03*
X127720000Y-179000000D03*
X137880000Y-186620000D03*
X130260000Y-179000000D03*
X135340000Y-186620000D03*
X132800000Y-179000000D03*
X132800000Y-186620000D03*
X135340000Y-179000000D03*
X130260000Y-186620000D03*
X137880000Y-179000000D03*
X127720000Y-186620000D03*
X140420000Y-179000000D03*
X125180000Y-186620000D03*
X142960000Y-179000000D03*
X122640000Y-186620000D03*
D11*
X145500000Y-179000000D03*
G04 #@! TD*
G04 #@! TO.C,U11-74HC245*
X145500000Y-201000000D03*
D12*
X122640000Y-208620000D03*
X142960000Y-201000000D03*
X125180000Y-208620000D03*
X140420000Y-201000000D03*
X127720000Y-208620000D03*
X137880000Y-201000000D03*
X130260000Y-208620000D03*
X135340000Y-201000000D03*
X132800000Y-208620000D03*
X132800000Y-201000000D03*
X135340000Y-208620000D03*
X130260000Y-201000000D03*
X137880000Y-208620000D03*
X127720000Y-201000000D03*
X140420000Y-208620000D03*
X125180000Y-201000000D03*
X142960000Y-208620000D03*
X122640000Y-201000000D03*
X145500000Y-208620000D03*
G04 #@! TD*
D11*
G04 #@! TO.C,U13-74HC86*
X111500000Y-193500000D03*
D12*
X119120000Y-208740000D03*
X111500000Y-196040000D03*
X119120000Y-206200000D03*
X111500000Y-198580000D03*
X119120000Y-203660000D03*
X111500000Y-201120000D03*
X119120000Y-201120000D03*
X111500000Y-203660000D03*
X119120000Y-198580000D03*
X111500000Y-206200000D03*
X119120000Y-196040000D03*
X111500000Y-208740000D03*
X119120000Y-193500000D03*
G04 #@! TD*
D11*
G04 #@! TO.C,U15-74HC86*
X100500000Y-193500000D03*
D12*
X108120000Y-208740000D03*
X100500000Y-196040000D03*
X108120000Y-206200000D03*
X100500000Y-198580000D03*
X108120000Y-203660000D03*
X100500000Y-201120000D03*
X108120000Y-201120000D03*
X100500000Y-203660000D03*
X108120000Y-198580000D03*
X100500000Y-206200000D03*
X108120000Y-196040000D03*
X100500000Y-208740000D03*
X108120000Y-193500000D03*
G04 #@! TD*
G04 #@! TO.C,U17-74LS283*
X119120000Y-169000000D03*
X111500000Y-186780000D03*
X119120000Y-171540000D03*
X111500000Y-184240000D03*
X119120000Y-174080000D03*
X111500000Y-181700000D03*
X119120000Y-176620000D03*
X111500000Y-179160000D03*
X119120000Y-179160000D03*
X111500000Y-176620000D03*
X119120000Y-181700000D03*
X111500000Y-174080000D03*
X119120000Y-184240000D03*
X111500000Y-171540000D03*
X119120000Y-186780000D03*
D11*
X111500000Y-169000000D03*
G04 #@! TD*
G04 #@! TO.C,U19-74LS283*
X100500000Y-169000000D03*
D12*
X108120000Y-186780000D03*
X100500000Y-171540000D03*
X108120000Y-184240000D03*
X100500000Y-174080000D03*
X108120000Y-181700000D03*
X100500000Y-176620000D03*
X108120000Y-179160000D03*
X100500000Y-179160000D03*
X108120000Y-176620000D03*
X100500000Y-181700000D03*
X108120000Y-174080000D03*
X100500000Y-184240000D03*
X108120000Y-171540000D03*
X100500000Y-186780000D03*
X108120000Y-169000000D03*
G04 #@! TD*
D11*
G04 #@! TO.C,U20-74HC245*
X100000000Y-130000000D03*
D12*
X107620000Y-152860000D03*
X100000000Y-132540000D03*
X107620000Y-150320000D03*
X100000000Y-135080000D03*
X107620000Y-147780000D03*
X100000000Y-137620000D03*
X107620000Y-145240000D03*
X100000000Y-140160000D03*
X107620000Y-142700000D03*
X100000000Y-142700000D03*
X107620000Y-140160000D03*
X100000000Y-145240000D03*
X107620000Y-137620000D03*
X100000000Y-147780000D03*
X107620000Y-135080000D03*
X100000000Y-150320000D03*
X107620000Y-132540000D03*
X100000000Y-152860000D03*
X107620000Y-130000000D03*
G04 #@! TD*
G04 #@! TO.C,R31*
X149380000Y-35500000D03*
D10*
X157000000Y-35500000D03*
G04 #@! TD*
G04 #@! TO.C,R32*
X157000000Y-39000000D03*
D12*
X149380000Y-39000000D03*
G04 #@! TD*
D10*
G04 #@! TO.C,R33*
X176000000Y-71000000D03*
D12*
X176000000Y-78620000D03*
G04 #@! TD*
G04 #@! TO.C,R34*
X172500000Y-78620000D03*
D10*
X172500000Y-71000000D03*
G04 #@! TD*
G04 #@! TO.C,R35*
X169000000Y-71000000D03*
D12*
X169000000Y-78620000D03*
G04 #@! TD*
D11*
G04 #@! TO.C,SW5*
X175000000Y-60500000D03*
D12*
X169920000Y-68120000D03*
X172460000Y-60500000D03*
X172460000Y-68120000D03*
X169920000Y-60500000D03*
X175000000Y-68120000D03*
G04 #@! TD*
D11*
G04 #@! TO.C,U22-74LS107*
X146500000Y-52000000D03*
D12*
X154120000Y-67240000D03*
X146500000Y-54540000D03*
X154120000Y-64700000D03*
X146500000Y-57080000D03*
X154120000Y-62160000D03*
X146500000Y-59620000D03*
X154120000Y-59620000D03*
X146500000Y-62160000D03*
X154120000Y-57080000D03*
X146500000Y-64700000D03*
X154120000Y-54540000D03*
X146500000Y-67240000D03*
X154120000Y-52000000D03*
G04 #@! TD*
D11*
G04 #@! TO.C,U23-74LS139*
X157500000Y-49500000D03*
D12*
X165120000Y-67280000D03*
X157500000Y-52040000D03*
X165120000Y-64740000D03*
X157500000Y-54580000D03*
X165120000Y-62200000D03*
X157500000Y-57120000D03*
X165120000Y-59660000D03*
X157500000Y-59660000D03*
X165120000Y-57120000D03*
X157500000Y-62200000D03*
X165120000Y-54580000D03*
X157500000Y-64740000D03*
X165120000Y-52040000D03*
X157500000Y-67280000D03*
X165120000Y-49500000D03*
G04 #@! TD*
D11*
G04 #@! TO.C,U24-AT28C64B*
X225500000Y-80500000D03*
D12*
X258520000Y-65260000D03*
X228040000Y-80500000D03*
X255980000Y-65260000D03*
X230580000Y-80500000D03*
X253440000Y-65260000D03*
X233120000Y-80500000D03*
X250900000Y-65260000D03*
X235660000Y-80500000D03*
X248360000Y-65260000D03*
X238200000Y-80500000D03*
X245820000Y-65260000D03*
X240740000Y-80500000D03*
X243280000Y-65260000D03*
X243280000Y-80500000D03*
X240740000Y-65260000D03*
X245820000Y-80500000D03*
X238200000Y-65260000D03*
X248360000Y-80500000D03*
X235660000Y-65260000D03*
X250900000Y-80500000D03*
X233120000Y-65260000D03*
X253440000Y-80500000D03*
X230580000Y-65260000D03*
X255980000Y-80500000D03*
X228040000Y-65260000D03*
X258520000Y-80500000D03*
X225500000Y-65260000D03*
G04 #@! TD*
D11*
G04 #@! TO.C,U25-HDSP-7803*
X173500000Y-57000000D03*
D10*
X173500000Y-54460000D03*
X173500000Y-51920000D03*
X173500000Y-49380000D03*
X173500000Y-46840000D03*
X168420000Y-46840000D03*
X168420000Y-49380000D03*
X168420000Y-51920000D03*
X168420000Y-54460000D03*
X168420000Y-57000000D03*
G04 #@! TD*
G04 #@! TO.C,U26-HDSP-7803*
X176920000Y-57000000D03*
X176920000Y-54460000D03*
X176920000Y-51920000D03*
X176920000Y-49380000D03*
X176920000Y-46840000D03*
X182000000Y-46840000D03*
X182000000Y-49380000D03*
X182000000Y-51920000D03*
X182000000Y-54460000D03*
D11*
X182000000Y-57000000D03*
G04 #@! TD*
G04 #@! TO.C,U27-HDSP-7803*
X190500000Y-57000000D03*
D10*
X190500000Y-54460000D03*
X190500000Y-51920000D03*
X190500000Y-49380000D03*
X190500000Y-46840000D03*
X185420000Y-46840000D03*
X185420000Y-49380000D03*
X185420000Y-51920000D03*
X185420000Y-54460000D03*
X185420000Y-57000000D03*
G04 #@! TD*
G04 #@! TO.C,U28-HDSP-7803*
X193920000Y-57000000D03*
X193920000Y-54460000D03*
X193920000Y-51920000D03*
X193920000Y-49380000D03*
X193920000Y-46840000D03*
X199000000Y-46840000D03*
X199000000Y-49380000D03*
X199000000Y-51920000D03*
X199000000Y-54460000D03*
D11*
X199000000Y-57000000D03*
G04 #@! TD*
D12*
G04 #@! TO.C,U29-74HCT574*
X250000000Y-61620000D03*
X227140000Y-54000000D03*
X247460000Y-61620000D03*
X229680000Y-54000000D03*
X244920000Y-61620000D03*
X232220000Y-54000000D03*
X242380000Y-61620000D03*
X234760000Y-54000000D03*
X239840000Y-61620000D03*
X237300000Y-54000000D03*
X237300000Y-61620000D03*
X239840000Y-54000000D03*
X234760000Y-61620000D03*
X242380000Y-54000000D03*
X232220000Y-61620000D03*
X244920000Y-54000000D03*
X229680000Y-61620000D03*
X247460000Y-54000000D03*
X227140000Y-61620000D03*
D11*
X250000000Y-54000000D03*
G04 #@! TD*
D10*
G04 #@! TO.C,R36*
X165500000Y-71000000D03*
D12*
X165500000Y-78620000D03*
G04 #@! TD*
G04 #@! TO.C,R37*
X179380000Y-68000000D03*
D10*
X187000000Y-68000000D03*
G04 #@! TD*
G04 #@! TO.C,R38*
X187000000Y-64500000D03*
D12*
X179380000Y-64500000D03*
G04 #@! TD*
G04 #@! TO.C,R39*
X179380000Y-61000000D03*
D10*
X187000000Y-61000000D03*
G04 #@! TD*
G04 #@! TO.C,R40*
X214500000Y-58000000D03*
D12*
X222120000Y-58000000D03*
G04 #@! TD*
D11*
G04 #@! TO.C,U30-74HC86*
X199500000Y-34500000D03*
D12*
X184260000Y-42120000D03*
X196960000Y-34500000D03*
X186800000Y-42120000D03*
X194420000Y-34500000D03*
X189340000Y-42120000D03*
X191880000Y-34500000D03*
X191880000Y-42120000D03*
X189340000Y-34500000D03*
X194420000Y-42120000D03*
X186800000Y-34500000D03*
X196960000Y-42120000D03*
X184260000Y-34500000D03*
X199500000Y-42120000D03*
G04 #@! TD*
D11*
G04 #@! TO.C,U32-74LS107*
X222500000Y-14500000D03*
D12*
X207260000Y-22120000D03*
X219960000Y-14500000D03*
X209800000Y-22120000D03*
X217420000Y-14500000D03*
X212340000Y-22120000D03*
X214880000Y-14500000D03*
X214880000Y-22120000D03*
X212340000Y-14500000D03*
X217420000Y-22120000D03*
X209800000Y-14500000D03*
X219960000Y-22120000D03*
X207260000Y-14500000D03*
X222500000Y-22120000D03*
G04 #@! TD*
G04 #@! TO.C,U33-74LS08*
X177500000Y-42120000D03*
X162260000Y-34500000D03*
X174960000Y-42120000D03*
X164800000Y-34500000D03*
X172420000Y-42120000D03*
X167340000Y-34500000D03*
X169880000Y-42120000D03*
X169880000Y-34500000D03*
X167340000Y-42120000D03*
X172420000Y-34500000D03*
X164800000Y-42120000D03*
X174960000Y-34500000D03*
X162260000Y-42120000D03*
D11*
X177500000Y-34500000D03*
G04 #@! TD*
G04 #@! TO.C,U34-74LS107*
X222500000Y-29000000D03*
D12*
X207260000Y-36620000D03*
X219960000Y-29000000D03*
X209800000Y-36620000D03*
X217420000Y-29000000D03*
X212340000Y-36620000D03*
X214880000Y-29000000D03*
X214880000Y-36620000D03*
X212340000Y-29000000D03*
X217420000Y-36620000D03*
X209800000Y-29000000D03*
X219960000Y-36620000D03*
X207260000Y-29000000D03*
X222500000Y-36620000D03*
G04 #@! TD*
G04 #@! TO.C,U35-74LS107*
X222500000Y-51120000D03*
X207260000Y-43500000D03*
X219960000Y-51120000D03*
X209800000Y-43500000D03*
X217420000Y-51120000D03*
X212340000Y-43500000D03*
X214880000Y-51120000D03*
X214880000Y-43500000D03*
X212340000Y-51120000D03*
X217420000Y-43500000D03*
X209800000Y-51120000D03*
X219960000Y-43500000D03*
X207260000Y-51120000D03*
D11*
X222500000Y-43500000D03*
G04 #@! TD*
G04 #@! TO.C,U31-SST39SF040*
X111000000Y-148500000D03*
D12*
X149100000Y-133260000D03*
X113540000Y-148500000D03*
X146560000Y-133260000D03*
X116080000Y-148500000D03*
X144020000Y-133260000D03*
X118620000Y-148500000D03*
X141480000Y-133260000D03*
X121160000Y-148500000D03*
X138940000Y-133260000D03*
X123700000Y-148500000D03*
X136400000Y-133260000D03*
X126240000Y-148500000D03*
X133860000Y-133260000D03*
X128780000Y-148500000D03*
X131320000Y-133260000D03*
X131320000Y-148500000D03*
X128780000Y-133260000D03*
X133860000Y-148500000D03*
X126240000Y-133260000D03*
X136400000Y-148500000D03*
X123700000Y-133260000D03*
X138940000Y-148500000D03*
X121160000Y-133260000D03*
X141480000Y-148500000D03*
X118620000Y-133260000D03*
X144020000Y-148500000D03*
X116080000Y-133260000D03*
X146560000Y-148500000D03*
X113540000Y-133260000D03*
X149100000Y-148500000D03*
X111000000Y-133260000D03*
G04 #@! TD*
D11*
G04 #@! TO.C,U36-74HC00*
X130500000Y-164000000D03*
D12*
X145740000Y-156380000D03*
X133040000Y-164000000D03*
X143200000Y-156380000D03*
X135580000Y-164000000D03*
X140660000Y-156380000D03*
X138120000Y-164000000D03*
X138120000Y-156380000D03*
X140660000Y-164000000D03*
X135580000Y-156380000D03*
X143200000Y-164000000D03*
X133040000Y-156380000D03*
X145740000Y-164000000D03*
X130500000Y-156380000D03*
G04 #@! TD*
D11*
G04 #@! TO.C,U37-74HC74*
X157500000Y-2000000D03*
D12*
X142260000Y-9620000D03*
X154960000Y-2000000D03*
X144800000Y-9620000D03*
X152420000Y-2000000D03*
X147340000Y-9620000D03*
X149880000Y-2000000D03*
X149880000Y-9620000D03*
X147340000Y-2000000D03*
X152420000Y-9620000D03*
X144800000Y-2000000D03*
X154960000Y-9620000D03*
X142260000Y-2000000D03*
X157500000Y-9620000D03*
G04 #@! TD*
G04 #@! TO.C,U38-74HC74*
X157500000Y-24620000D03*
X142260000Y-17000000D03*
X154960000Y-24620000D03*
X144800000Y-17000000D03*
X152420000Y-24620000D03*
X147340000Y-17000000D03*
X149880000Y-24620000D03*
X149880000Y-17000000D03*
X147340000Y-24620000D03*
X152420000Y-17000000D03*
X144800000Y-24620000D03*
X154960000Y-17000000D03*
X142260000Y-24620000D03*
D11*
X157500000Y-17000000D03*
G04 #@! TD*
G04 #@! TO.C,U39-74LS161*
X169000000Y-114000000D03*
D12*
X151220000Y-121620000D03*
X166460000Y-114000000D03*
X153760000Y-121620000D03*
X163920000Y-114000000D03*
X156300000Y-121620000D03*
X161380000Y-114000000D03*
X158840000Y-121620000D03*
X158840000Y-114000000D03*
X161380000Y-121620000D03*
X156300000Y-114000000D03*
X163920000Y-121620000D03*
X153760000Y-114000000D03*
X166460000Y-121620000D03*
X151220000Y-114000000D03*
X169000000Y-121620000D03*
G04 #@! TD*
G04 #@! TO.C,U40-74LS161*
X57500000Y-122120000D03*
X39720000Y-114500000D03*
X54960000Y-122120000D03*
X42260000Y-114500000D03*
X52420000Y-122120000D03*
X44800000Y-114500000D03*
X49880000Y-122120000D03*
X47340000Y-114500000D03*
X47340000Y-122120000D03*
X49880000Y-114500000D03*
X44800000Y-122120000D03*
X52420000Y-114500000D03*
X42260000Y-122120000D03*
X54960000Y-114500000D03*
X39720000Y-122120000D03*
D11*
X57500000Y-114500000D03*
G04 #@! TD*
D12*
G04 #@! TO.C,U41-74LS161*
X112000000Y-122120000D03*
X94220000Y-114500000D03*
X109460000Y-122120000D03*
X96760000Y-114500000D03*
X106920000Y-122120000D03*
X99300000Y-114500000D03*
X104380000Y-122120000D03*
X101840000Y-114500000D03*
X101840000Y-122120000D03*
X104380000Y-114500000D03*
X99300000Y-122120000D03*
X106920000Y-114500000D03*
X96760000Y-122120000D03*
X109460000Y-114500000D03*
X94220000Y-122120000D03*
D11*
X112000000Y-114500000D03*
G04 #@! TD*
G04 #@! TO.C,U42-74LS161*
X33000000Y-115000000D03*
D12*
X15220000Y-122620000D03*
X30460000Y-115000000D03*
X17760000Y-122620000D03*
X27920000Y-115000000D03*
X20300000Y-122620000D03*
X25380000Y-115000000D03*
X22840000Y-122620000D03*
X22840000Y-115000000D03*
X25380000Y-122620000D03*
X20300000Y-115000000D03*
X27920000Y-122620000D03*
X17760000Y-115000000D03*
X30460000Y-122620000D03*
X15220000Y-115000000D03*
X33000000Y-122620000D03*
G04 #@! TD*
D11*
G04 #@! TO.C,U43-74LS161*
X87500000Y-114500000D03*
D12*
X69720000Y-122120000D03*
X84960000Y-114500000D03*
X72260000Y-122120000D03*
X82420000Y-114500000D03*
X74800000Y-122120000D03*
X79880000Y-114500000D03*
X77340000Y-122120000D03*
X77340000Y-114500000D03*
X79880000Y-122120000D03*
X74800000Y-114500000D03*
X82420000Y-122120000D03*
X72260000Y-114500000D03*
X84960000Y-122120000D03*
X69720000Y-114500000D03*
X87500000Y-122120000D03*
G04 #@! TD*
G04 #@! TO.C,U44-74LS161*
X144500000Y-121620000D03*
X126720000Y-114000000D03*
X141960000Y-121620000D03*
X129260000Y-114000000D03*
X139420000Y-121620000D03*
X131800000Y-114000000D03*
X136880000Y-121620000D03*
X134340000Y-114000000D03*
X134340000Y-121620000D03*
X136880000Y-114000000D03*
X131800000Y-121620000D03*
X139420000Y-114000000D03*
X129260000Y-121620000D03*
X141960000Y-114000000D03*
X126720000Y-121620000D03*
D11*
X144500000Y-114000000D03*
G04 #@! TD*
G04 #@! TO.C,U45-74HC245*
X38000000Y-103000000D03*
D12*
X15140000Y-110620000D03*
X35460000Y-103000000D03*
X17680000Y-110620000D03*
X32920000Y-103000000D03*
X20220000Y-110620000D03*
X30380000Y-103000000D03*
X22760000Y-110620000D03*
X27840000Y-103000000D03*
X25300000Y-110620000D03*
X25300000Y-103000000D03*
X27840000Y-110620000D03*
X22760000Y-103000000D03*
X30380000Y-110620000D03*
X20220000Y-103000000D03*
X32920000Y-110620000D03*
X17680000Y-103000000D03*
X35460000Y-110620000D03*
X15140000Y-103000000D03*
X38000000Y-110620000D03*
G04 #@! TD*
G04 #@! TO.C,U46-74HC245*
X92500000Y-110120000D03*
X69640000Y-102500000D03*
X89960000Y-110120000D03*
X72180000Y-102500000D03*
X87420000Y-110120000D03*
X74720000Y-102500000D03*
X84880000Y-110120000D03*
X77260000Y-102500000D03*
X82340000Y-110120000D03*
X79800000Y-102500000D03*
X79800000Y-110120000D03*
X82340000Y-102500000D03*
X77260000Y-110120000D03*
X84880000Y-102500000D03*
X74720000Y-110120000D03*
X87420000Y-102500000D03*
X72180000Y-110120000D03*
X89960000Y-102500000D03*
X69640000Y-110120000D03*
D11*
X92500000Y-102500000D03*
G04 #@! TD*
G04 #@! TO.C,U47-74HC245*
X149500000Y-102500000D03*
D12*
X126640000Y-110120000D03*
X146960000Y-102500000D03*
X129180000Y-110120000D03*
X144420000Y-102500000D03*
X131720000Y-110120000D03*
X141880000Y-102500000D03*
X134260000Y-110120000D03*
X139340000Y-102500000D03*
X136800000Y-110120000D03*
X136800000Y-102500000D03*
X139340000Y-110120000D03*
X134260000Y-102500000D03*
X141880000Y-110120000D03*
X131720000Y-102500000D03*
X144420000Y-110120000D03*
X129180000Y-102500000D03*
X146960000Y-110120000D03*
X126640000Y-102500000D03*
X149500000Y-110120000D03*
G04 #@! TD*
D11*
G04 #@! TO.C,U48-74LS191*
X85500000Y-179500000D03*
D12*
X93120000Y-197280000D03*
X85500000Y-182040000D03*
X93120000Y-194740000D03*
X85500000Y-184580000D03*
X93120000Y-192200000D03*
X85500000Y-187120000D03*
X93120000Y-189660000D03*
X85500000Y-189660000D03*
X93120000Y-187120000D03*
X85500000Y-192200000D03*
X93120000Y-184580000D03*
X85500000Y-194740000D03*
X93120000Y-182040000D03*
X85500000Y-197280000D03*
X93120000Y-179500000D03*
G04 #@! TD*
G04 #@! TO.C,U49-74LS191*
X76120000Y-179500000D03*
X68500000Y-197280000D03*
X76120000Y-182040000D03*
X68500000Y-194740000D03*
X76120000Y-184580000D03*
X68500000Y-192200000D03*
X76120000Y-187120000D03*
X68500000Y-189660000D03*
X76120000Y-189660000D03*
X68500000Y-187120000D03*
X76120000Y-192200000D03*
X68500000Y-184580000D03*
X76120000Y-194740000D03*
X68500000Y-182040000D03*
X76120000Y-197280000D03*
D11*
X68500000Y-179500000D03*
G04 #@! TD*
G04 #@! TO.C,U50-74LS191*
X51500000Y-179500000D03*
D12*
X59120000Y-197280000D03*
X51500000Y-182040000D03*
X59120000Y-194740000D03*
X51500000Y-184580000D03*
X59120000Y-192200000D03*
X51500000Y-187120000D03*
X59120000Y-189660000D03*
X51500000Y-189660000D03*
X59120000Y-187120000D03*
X51500000Y-192200000D03*
X59120000Y-184580000D03*
X51500000Y-194740000D03*
X59120000Y-182040000D03*
X51500000Y-197280000D03*
X59120000Y-179500000D03*
G04 #@! TD*
D11*
G04 #@! TO.C,U51-74LS191*
X85500000Y-157500000D03*
D12*
X93120000Y-175280000D03*
X85500000Y-160040000D03*
X93120000Y-172740000D03*
X85500000Y-162580000D03*
X93120000Y-170200000D03*
X85500000Y-165120000D03*
X93120000Y-167660000D03*
X85500000Y-167660000D03*
X93120000Y-165120000D03*
X85500000Y-170200000D03*
X93120000Y-162580000D03*
X85500000Y-172740000D03*
X93120000Y-160040000D03*
X85500000Y-175280000D03*
X93120000Y-157500000D03*
G04 #@! TD*
D11*
G04 #@! TO.C,U52-74LS191*
X68500000Y-157500000D03*
D12*
X76120000Y-175280000D03*
X68500000Y-160040000D03*
X76120000Y-172740000D03*
X68500000Y-162580000D03*
X76120000Y-170200000D03*
X68500000Y-165120000D03*
X76120000Y-167660000D03*
X68500000Y-167660000D03*
X76120000Y-165120000D03*
X68500000Y-170200000D03*
X76120000Y-162580000D03*
X68500000Y-172740000D03*
X76120000Y-160040000D03*
X68500000Y-175280000D03*
X76120000Y-157500000D03*
G04 #@! TD*
G04 #@! TO.C,U53-74LS191*
X59120000Y-157500000D03*
X51500000Y-175280000D03*
X59120000Y-160040000D03*
X51500000Y-172740000D03*
X59120000Y-162580000D03*
X51500000Y-170200000D03*
X59120000Y-165120000D03*
X51500000Y-167660000D03*
X59120000Y-167660000D03*
X51500000Y-165120000D03*
X59120000Y-170200000D03*
X51500000Y-162580000D03*
X59120000Y-172740000D03*
X51500000Y-160040000D03*
X59120000Y-175280000D03*
D11*
X51500000Y-157500000D03*
G04 #@! TD*
G04 #@! TO.C,U54-74LS08*
X67000000Y-201500000D03*
D12*
X51760000Y-209120000D03*
X64460000Y-201500000D03*
X54300000Y-209120000D03*
X61920000Y-201500000D03*
X56840000Y-209120000D03*
X59380000Y-201500000D03*
X59380000Y-209120000D03*
X56840000Y-201500000D03*
X61920000Y-209120000D03*
X54300000Y-201500000D03*
X64460000Y-209120000D03*
X51760000Y-201500000D03*
X67000000Y-209120000D03*
G04 #@! TD*
G04 #@! TO.C,U55-74HC04*
X89500000Y-209120000D03*
X74260000Y-201500000D03*
X86960000Y-209120000D03*
X76800000Y-201500000D03*
X84420000Y-209120000D03*
X79340000Y-201500000D03*
X81880000Y-209120000D03*
X81880000Y-201500000D03*
X79340000Y-209120000D03*
X84420000Y-201500000D03*
X76800000Y-209120000D03*
X86960000Y-201500000D03*
X74260000Y-209120000D03*
D11*
X89500000Y-201500000D03*
G04 #@! TD*
D12*
G04 #@! TO.C,U56-74HC245*
X93120000Y-130000000D03*
X85500000Y-152860000D03*
X93120000Y-132540000D03*
X85500000Y-150320000D03*
X93120000Y-135080000D03*
X85500000Y-147780000D03*
X93120000Y-137620000D03*
X85500000Y-145240000D03*
X93120000Y-140160000D03*
X85500000Y-142700000D03*
X93120000Y-142700000D03*
X85500000Y-140160000D03*
X93120000Y-145240000D03*
X85500000Y-137620000D03*
X93120000Y-147780000D03*
X85500000Y-135080000D03*
X93120000Y-150320000D03*
X85500000Y-132540000D03*
X93120000Y-152860000D03*
D11*
X85500000Y-130000000D03*
G04 #@! TD*
D12*
G04 #@! TO.C,U57-74HC245*
X76120000Y-130500000D03*
X68500000Y-153360000D03*
X76120000Y-133040000D03*
X68500000Y-150820000D03*
X76120000Y-135580000D03*
X68500000Y-148280000D03*
X76120000Y-138120000D03*
X68500000Y-145740000D03*
X76120000Y-140660000D03*
X68500000Y-143200000D03*
X76120000Y-143200000D03*
X68500000Y-140660000D03*
X76120000Y-145740000D03*
X68500000Y-138120000D03*
X76120000Y-148280000D03*
X68500000Y-135580000D03*
X76120000Y-150820000D03*
X68500000Y-133040000D03*
X76120000Y-153360000D03*
D11*
X68500000Y-130500000D03*
G04 #@! TD*
G04 #@! TO.C,U58-74HC245*
X51500000Y-130500000D03*
D12*
X59120000Y-153360000D03*
X51500000Y-133040000D03*
X59120000Y-150820000D03*
X51500000Y-135580000D03*
X59120000Y-148280000D03*
X51500000Y-138120000D03*
X59120000Y-145740000D03*
X51500000Y-140660000D03*
X59120000Y-143200000D03*
X51500000Y-143200000D03*
X59120000Y-140660000D03*
X51500000Y-145740000D03*
X59120000Y-138120000D03*
X51500000Y-148280000D03*
X59120000Y-135580000D03*
X51500000Y-150820000D03*
X59120000Y-133040000D03*
X51500000Y-153360000D03*
X59120000Y-130500000D03*
G04 #@! TD*
G04 #@! TO.C,U59-74LS191*
X42620000Y-179500000D03*
X35000000Y-197280000D03*
X42620000Y-182040000D03*
X35000000Y-194740000D03*
X42620000Y-184580000D03*
X35000000Y-192200000D03*
X42620000Y-187120000D03*
X35000000Y-189660000D03*
X42620000Y-189660000D03*
X35000000Y-187120000D03*
X42620000Y-192200000D03*
X35000000Y-184580000D03*
X42620000Y-194740000D03*
X35000000Y-182040000D03*
X42620000Y-197280000D03*
D11*
X35000000Y-179500000D03*
G04 #@! TD*
D12*
G04 #@! TO.C,U60-74LS191*
X26620000Y-179500000D03*
X19000000Y-197280000D03*
X26620000Y-182040000D03*
X19000000Y-194740000D03*
X26620000Y-184580000D03*
X19000000Y-192200000D03*
X26620000Y-187120000D03*
X19000000Y-189660000D03*
X26620000Y-189660000D03*
X19000000Y-187120000D03*
X26620000Y-192200000D03*
X19000000Y-184580000D03*
X26620000Y-194740000D03*
X19000000Y-182040000D03*
X26620000Y-197280000D03*
D11*
X19000000Y-179500000D03*
G04 #@! TD*
D12*
G04 #@! TO.C,U61-74LS191*
X10620000Y-179500000D03*
X3000000Y-197280000D03*
X10620000Y-182040000D03*
X3000000Y-194740000D03*
X10620000Y-184580000D03*
X3000000Y-192200000D03*
X10620000Y-187120000D03*
X3000000Y-189660000D03*
X10620000Y-189660000D03*
X3000000Y-187120000D03*
X10620000Y-192200000D03*
X3000000Y-184580000D03*
X10620000Y-194740000D03*
X3000000Y-182040000D03*
X10620000Y-197280000D03*
D11*
X3000000Y-179500000D03*
G04 #@! TD*
G04 #@! TO.C,U62-74LS191*
X35000000Y-157500000D03*
D12*
X42620000Y-175280000D03*
X35000000Y-160040000D03*
X42620000Y-172740000D03*
X35000000Y-162580000D03*
X42620000Y-170200000D03*
X35000000Y-165120000D03*
X42620000Y-167660000D03*
X35000000Y-167660000D03*
X42620000Y-165120000D03*
X35000000Y-170200000D03*
X42620000Y-162580000D03*
X35000000Y-172740000D03*
X42620000Y-160040000D03*
X35000000Y-175280000D03*
X42620000Y-157500000D03*
G04 #@! TD*
D11*
G04 #@! TO.C,U63-74LS191*
X19000000Y-157500000D03*
D12*
X26620000Y-175280000D03*
X19000000Y-160040000D03*
X26620000Y-172740000D03*
X19000000Y-162580000D03*
X26620000Y-170200000D03*
X19000000Y-165120000D03*
X26620000Y-167660000D03*
X19000000Y-167660000D03*
X26620000Y-165120000D03*
X19000000Y-170200000D03*
X26620000Y-162580000D03*
X19000000Y-172740000D03*
X26620000Y-160040000D03*
X19000000Y-175280000D03*
X26620000Y-157500000D03*
G04 #@! TD*
G04 #@! TO.C,U64-74LS191*
X10620000Y-157500000D03*
X3000000Y-175280000D03*
X10620000Y-160040000D03*
X3000000Y-172740000D03*
X10620000Y-162580000D03*
X3000000Y-170200000D03*
X10620000Y-165120000D03*
X3000000Y-167660000D03*
X10620000Y-167660000D03*
X3000000Y-165120000D03*
X10620000Y-170200000D03*
X3000000Y-162580000D03*
X10620000Y-172740000D03*
X3000000Y-160040000D03*
X10620000Y-175280000D03*
D11*
X3000000Y-157500000D03*
G04 #@! TD*
G04 #@! TO.C,U65-74LS08*
X18500000Y-201500000D03*
D12*
X3260000Y-209120000D03*
X15960000Y-201500000D03*
X5800000Y-209120000D03*
X13420000Y-201500000D03*
X8340000Y-209120000D03*
X10880000Y-201500000D03*
X10880000Y-209120000D03*
X8340000Y-201500000D03*
X13420000Y-209120000D03*
X5800000Y-201500000D03*
X15960000Y-209120000D03*
X3260000Y-201500000D03*
X18500000Y-209120000D03*
G04 #@! TD*
G04 #@! TO.C,U66-74HC04*
X41500000Y-209120000D03*
X26260000Y-201500000D03*
X38960000Y-209120000D03*
X28800000Y-201500000D03*
X36420000Y-209120000D03*
X31340000Y-201500000D03*
X33880000Y-209120000D03*
X33880000Y-201500000D03*
X31340000Y-209120000D03*
X36420000Y-201500000D03*
X28800000Y-209120000D03*
X38960000Y-201500000D03*
X26260000Y-209120000D03*
D11*
X41500000Y-201500000D03*
G04 #@! TD*
D12*
G04 #@! TO.C,U67-74HC245*
X42620000Y-130500000D03*
X35000000Y-153360000D03*
X42620000Y-133040000D03*
X35000000Y-150820000D03*
X42620000Y-135580000D03*
X35000000Y-148280000D03*
X42620000Y-138120000D03*
X35000000Y-145740000D03*
X42620000Y-140660000D03*
X35000000Y-143200000D03*
X42620000Y-143200000D03*
X35000000Y-140660000D03*
X42620000Y-145740000D03*
X35000000Y-138120000D03*
X42620000Y-148280000D03*
X35000000Y-135580000D03*
X42620000Y-150820000D03*
X35000000Y-133040000D03*
X42620000Y-153360000D03*
D11*
X35000000Y-130500000D03*
G04 #@! TD*
G04 #@! TO.C,U68-74HC245*
X19000000Y-130500000D03*
D12*
X26620000Y-153360000D03*
X19000000Y-133040000D03*
X26620000Y-150820000D03*
X19000000Y-135580000D03*
X26620000Y-148280000D03*
X19000000Y-138120000D03*
X26620000Y-145740000D03*
X19000000Y-140660000D03*
X26620000Y-143200000D03*
X19000000Y-143200000D03*
X26620000Y-140660000D03*
X19000000Y-145740000D03*
X26620000Y-138120000D03*
X19000000Y-148280000D03*
X26620000Y-135580000D03*
X19000000Y-150820000D03*
X26620000Y-133040000D03*
X19000000Y-153360000D03*
X26620000Y-130500000D03*
G04 #@! TD*
D11*
G04 #@! TO.C,U69-74HC245*
X3000000Y-130500000D03*
D12*
X10620000Y-153360000D03*
X3000000Y-133040000D03*
X10620000Y-150820000D03*
X3000000Y-135580000D03*
X10620000Y-148280000D03*
X3000000Y-138120000D03*
X10620000Y-145740000D03*
X3000000Y-140660000D03*
X10620000Y-143200000D03*
X3000000Y-143200000D03*
X10620000Y-140660000D03*
X3000000Y-145740000D03*
X10620000Y-138120000D03*
X3000000Y-148280000D03*
X10620000Y-135580000D03*
X3000000Y-150820000D03*
X10620000Y-133040000D03*
X3000000Y-153360000D03*
X10620000Y-130500000D03*
G04 #@! TD*
G04 #@! TO.C,U70-74LS154*
X192500000Y-123380000D03*
X220440000Y-131000000D03*
X195040000Y-123380000D03*
X217900000Y-131000000D03*
X197580000Y-123380000D03*
X215360000Y-131000000D03*
X200120000Y-123380000D03*
X212820000Y-131000000D03*
X202660000Y-123380000D03*
X210280000Y-131000000D03*
X205200000Y-123380000D03*
X207740000Y-131000000D03*
X207740000Y-123380000D03*
X205200000Y-131000000D03*
X210280000Y-123380000D03*
X202660000Y-131000000D03*
X212820000Y-123380000D03*
X200120000Y-131000000D03*
X215360000Y-123380000D03*
X197580000Y-131000000D03*
X217900000Y-123380000D03*
X195040000Y-131000000D03*
X220440000Y-123380000D03*
D11*
X192500000Y-131000000D03*
G04 #@! TD*
D12*
G04 #@! TO.C,U71-SST39SF040*
X221240000Y-171000000D03*
X206000000Y-209100000D03*
X221240000Y-173540000D03*
X206000000Y-206560000D03*
X221240000Y-176080000D03*
X206000000Y-204020000D03*
X221240000Y-178620000D03*
X206000000Y-201480000D03*
X221240000Y-181160000D03*
X206000000Y-198940000D03*
X221240000Y-183700000D03*
X206000000Y-196400000D03*
X221240000Y-186240000D03*
X206000000Y-193860000D03*
X221240000Y-188780000D03*
X206000000Y-191320000D03*
X221240000Y-191320000D03*
X206000000Y-188780000D03*
X221240000Y-193860000D03*
X206000000Y-186240000D03*
X221240000Y-196400000D03*
X206000000Y-183700000D03*
X221240000Y-198940000D03*
X206000000Y-181160000D03*
X221240000Y-201480000D03*
X206000000Y-178620000D03*
X221240000Y-204020000D03*
X206000000Y-176080000D03*
X221240000Y-206560000D03*
X206000000Y-173540000D03*
X221240000Y-209100000D03*
D11*
X206000000Y-171000000D03*
G04 #@! TD*
G04 #@! TO.C,U72-628128*
X225000000Y-125500000D03*
D12*
X240240000Y-163600000D03*
X225000000Y-128040000D03*
X240240000Y-161060000D03*
X225000000Y-130580000D03*
X240240000Y-158520000D03*
X225000000Y-133120000D03*
X240240000Y-155980000D03*
X225000000Y-135660000D03*
X240240000Y-153440000D03*
X225000000Y-138200000D03*
X240240000Y-150900000D03*
X225000000Y-140740000D03*
X240240000Y-148360000D03*
X225000000Y-143280000D03*
X240240000Y-145820000D03*
X225000000Y-145820000D03*
X240240000Y-143280000D03*
X225000000Y-148360000D03*
X240240000Y-140740000D03*
X225000000Y-150900000D03*
X240240000Y-138200000D03*
X225000000Y-153440000D03*
X240240000Y-135660000D03*
X225000000Y-155980000D03*
X240240000Y-133120000D03*
X225000000Y-158520000D03*
X240240000Y-130580000D03*
X225000000Y-161060000D03*
X240240000Y-128040000D03*
X225000000Y-163600000D03*
X240240000Y-125500000D03*
G04 #@! TD*
D11*
G04 #@! TO.C,U73-628128*
X244000000Y-125500000D03*
D12*
X259240000Y-163600000D03*
X244000000Y-128040000D03*
X259240000Y-161060000D03*
X244000000Y-130580000D03*
X259240000Y-158520000D03*
X244000000Y-133120000D03*
X259240000Y-155980000D03*
X244000000Y-135660000D03*
X259240000Y-153440000D03*
X244000000Y-138200000D03*
X259240000Y-150900000D03*
X244000000Y-140740000D03*
X259240000Y-148360000D03*
X244000000Y-143280000D03*
X259240000Y-145820000D03*
X244000000Y-145820000D03*
X259240000Y-143280000D03*
X244000000Y-148360000D03*
X259240000Y-140740000D03*
X244000000Y-150900000D03*
X259240000Y-138200000D03*
X244000000Y-153440000D03*
X259240000Y-135660000D03*
X244000000Y-155980000D03*
X259240000Y-133120000D03*
X244000000Y-158520000D03*
X259240000Y-130580000D03*
X244000000Y-161060000D03*
X259240000Y-128040000D03*
X244000000Y-163600000D03*
X259240000Y-125500000D03*
G04 #@! TD*
G04 #@! TO.C,U74-628128*
X176000000Y-103260000D03*
X214100000Y-118500000D03*
X178540000Y-103260000D03*
X211560000Y-118500000D03*
X181080000Y-103260000D03*
X209020000Y-118500000D03*
X183620000Y-103260000D03*
X206480000Y-118500000D03*
X186160000Y-103260000D03*
X203940000Y-118500000D03*
X188700000Y-103260000D03*
X201400000Y-118500000D03*
X191240000Y-103260000D03*
X198860000Y-118500000D03*
X193780000Y-103260000D03*
X196320000Y-118500000D03*
X196320000Y-103260000D03*
X193780000Y-118500000D03*
X198860000Y-103260000D03*
X191240000Y-118500000D03*
X201400000Y-103260000D03*
X188700000Y-118500000D03*
X203940000Y-103260000D03*
X186160000Y-118500000D03*
X206480000Y-103260000D03*
X183620000Y-118500000D03*
X209020000Y-103260000D03*
X181080000Y-118500000D03*
X211560000Y-103260000D03*
X178540000Y-118500000D03*
X214100000Y-103260000D03*
D11*
X176000000Y-118500000D03*
G04 #@! TD*
D12*
G04 #@! TO.C,U75-628128*
X176000000Y-84260000D03*
X214100000Y-99500000D03*
X178540000Y-84260000D03*
X211560000Y-99500000D03*
X181080000Y-84260000D03*
X209020000Y-99500000D03*
X183620000Y-84260000D03*
X206480000Y-99500000D03*
X186160000Y-84260000D03*
X203940000Y-99500000D03*
X188700000Y-84260000D03*
X201400000Y-99500000D03*
X191240000Y-84260000D03*
X198860000Y-99500000D03*
X193780000Y-84260000D03*
X196320000Y-99500000D03*
X196320000Y-84260000D03*
X193780000Y-99500000D03*
X198860000Y-84260000D03*
X191240000Y-99500000D03*
X201400000Y-84260000D03*
X188700000Y-99500000D03*
X203940000Y-84260000D03*
X186160000Y-99500000D03*
X206480000Y-84260000D03*
X183620000Y-99500000D03*
X209020000Y-84260000D03*
X181080000Y-99500000D03*
X211560000Y-84260000D03*
X178540000Y-99500000D03*
X214100000Y-84260000D03*
D11*
X176000000Y-99500000D03*
G04 #@! TD*
G04 #@! TO.C,U76-628128*
X225000000Y-171000000D03*
D12*
X240240000Y-209100000D03*
X225000000Y-173540000D03*
X240240000Y-206560000D03*
X225000000Y-176080000D03*
X240240000Y-204020000D03*
X225000000Y-178620000D03*
X240240000Y-201480000D03*
X225000000Y-181160000D03*
X240240000Y-198940000D03*
X225000000Y-183700000D03*
X240240000Y-196400000D03*
X225000000Y-186240000D03*
X240240000Y-193860000D03*
X225000000Y-188780000D03*
X240240000Y-191320000D03*
X225000000Y-191320000D03*
X240240000Y-188780000D03*
X225000000Y-193860000D03*
X240240000Y-186240000D03*
X225000000Y-196400000D03*
X240240000Y-183700000D03*
X225000000Y-198940000D03*
X240240000Y-181160000D03*
X225000000Y-201480000D03*
X240240000Y-178620000D03*
X225000000Y-204020000D03*
X240240000Y-176080000D03*
X225000000Y-206560000D03*
X240240000Y-173540000D03*
X225000000Y-209100000D03*
X240240000Y-171000000D03*
G04 #@! TD*
G04 #@! TO.C,U77-628128*
X259240000Y-171000000D03*
X244000000Y-209100000D03*
X259240000Y-173540000D03*
X244000000Y-206560000D03*
X259240000Y-176080000D03*
X244000000Y-204020000D03*
X259240000Y-178620000D03*
X244000000Y-201480000D03*
X259240000Y-181160000D03*
X244000000Y-198940000D03*
X259240000Y-183700000D03*
X244000000Y-196400000D03*
X259240000Y-186240000D03*
X244000000Y-193860000D03*
X259240000Y-188780000D03*
X244000000Y-191320000D03*
X259240000Y-191320000D03*
X244000000Y-188780000D03*
X259240000Y-193860000D03*
X244000000Y-186240000D03*
X259240000Y-196400000D03*
X244000000Y-183700000D03*
X259240000Y-198940000D03*
X244000000Y-181160000D03*
X259240000Y-201480000D03*
X244000000Y-178620000D03*
X259240000Y-204020000D03*
X244000000Y-176080000D03*
X259240000Y-206560000D03*
X244000000Y-173540000D03*
X259240000Y-209100000D03*
D11*
X244000000Y-171000000D03*
G04 #@! TD*
G04 #@! TO.C,U78-628128*
X221000000Y-118500000D03*
D12*
X259100000Y-103260000D03*
X223540000Y-118500000D03*
X256560000Y-103260000D03*
X226080000Y-118500000D03*
X254020000Y-103260000D03*
X228620000Y-118500000D03*
X251480000Y-103260000D03*
X231160000Y-118500000D03*
X248940000Y-103260000D03*
X233700000Y-118500000D03*
X246400000Y-103260000D03*
X236240000Y-118500000D03*
X243860000Y-103260000D03*
X238780000Y-118500000D03*
X241320000Y-103260000D03*
X241320000Y-118500000D03*
X238780000Y-103260000D03*
X243860000Y-118500000D03*
X236240000Y-103260000D03*
X246400000Y-118500000D03*
X233700000Y-103260000D03*
X248940000Y-118500000D03*
X231160000Y-103260000D03*
X251480000Y-118500000D03*
X228620000Y-103260000D03*
X254020000Y-118500000D03*
X226080000Y-103260000D03*
X256560000Y-118500000D03*
X223540000Y-103260000D03*
X259100000Y-118500000D03*
X221000000Y-103260000D03*
G04 #@! TD*
G04 #@! TO.C,U79-628128*
X221000000Y-84260000D03*
X259100000Y-99500000D03*
X223540000Y-84260000D03*
X256560000Y-99500000D03*
X226080000Y-84260000D03*
X254020000Y-99500000D03*
X228620000Y-84260000D03*
X251480000Y-99500000D03*
X231160000Y-84260000D03*
X248940000Y-99500000D03*
X233700000Y-84260000D03*
X246400000Y-99500000D03*
X236240000Y-84260000D03*
X243860000Y-99500000D03*
X238780000Y-84260000D03*
X241320000Y-99500000D03*
X241320000Y-84260000D03*
X238780000Y-99500000D03*
X243860000Y-84260000D03*
X236240000Y-99500000D03*
X246400000Y-84260000D03*
X233700000Y-99500000D03*
X248940000Y-84260000D03*
X231160000Y-99500000D03*
X251480000Y-84260000D03*
X228620000Y-99500000D03*
X254020000Y-84260000D03*
X226080000Y-99500000D03*
X256560000Y-84260000D03*
X223540000Y-99500000D03*
X259100000Y-84260000D03*
D11*
X221000000Y-99500000D03*
G04 #@! TD*
G04 #@! TO.C,U80-74HCT574*
X218500000Y-160500000D03*
D12*
X210880000Y-137640000D03*
X218500000Y-157960000D03*
X210880000Y-140180000D03*
X218500000Y-155420000D03*
X210880000Y-142720000D03*
X218500000Y-152880000D03*
X210880000Y-145260000D03*
X218500000Y-150340000D03*
X210880000Y-147800000D03*
X218500000Y-147800000D03*
X210880000Y-150340000D03*
X218500000Y-145260000D03*
X210880000Y-152880000D03*
X218500000Y-142720000D03*
X210880000Y-155420000D03*
X218500000Y-140180000D03*
X210880000Y-157960000D03*
X218500000Y-137640000D03*
X210880000Y-160500000D03*
G04 #@! TD*
G04 #@! TO.C,U81-74HCT574*
X196880000Y-160500000D03*
X204500000Y-137640000D03*
X196880000Y-157960000D03*
X204500000Y-140180000D03*
X196880000Y-155420000D03*
X204500000Y-142720000D03*
X196880000Y-152880000D03*
X204500000Y-145260000D03*
X196880000Y-150340000D03*
X204500000Y-147800000D03*
X196880000Y-147800000D03*
X204500000Y-150340000D03*
X196880000Y-145260000D03*
X204500000Y-152880000D03*
X196880000Y-142720000D03*
X204500000Y-155420000D03*
X196880000Y-140180000D03*
X204500000Y-157960000D03*
X196880000Y-137640000D03*
D11*
X204500000Y-160500000D03*
G04 #@! TD*
G04 #@! TO.C,U82-74HCT574*
X190500000Y-160500000D03*
D12*
X182880000Y-137640000D03*
X190500000Y-157960000D03*
X182880000Y-140180000D03*
X190500000Y-155420000D03*
X182880000Y-142720000D03*
X190500000Y-152880000D03*
X182880000Y-145260000D03*
X190500000Y-150340000D03*
X182880000Y-147800000D03*
X190500000Y-147800000D03*
X182880000Y-150340000D03*
X190500000Y-145260000D03*
X182880000Y-152880000D03*
X190500000Y-142720000D03*
X182880000Y-155420000D03*
X190500000Y-140180000D03*
X182880000Y-157960000D03*
X190500000Y-137640000D03*
X182880000Y-160500000D03*
G04 #@! TD*
G04 #@! TO.C,U83-74HC245*
X175500000Y-208620000D03*
X152640000Y-201000000D03*
X172960000Y-208620000D03*
X155180000Y-201000000D03*
X170420000Y-208620000D03*
X157720000Y-201000000D03*
X167880000Y-208620000D03*
X160260000Y-201000000D03*
X165340000Y-208620000D03*
X162800000Y-201000000D03*
X162800000Y-208620000D03*
X165340000Y-201000000D03*
X160260000Y-208620000D03*
X167880000Y-201000000D03*
X157720000Y-208620000D03*
X170420000Y-201000000D03*
X155180000Y-208620000D03*
X172960000Y-201000000D03*
X152640000Y-208620000D03*
D11*
X175500000Y-201000000D03*
G04 #@! TD*
G04 #@! TO.C,U84-628128*
X187000000Y-171000000D03*
D12*
X202240000Y-209100000D03*
X187000000Y-173540000D03*
X202240000Y-206560000D03*
X187000000Y-176080000D03*
X202240000Y-204020000D03*
X187000000Y-178620000D03*
X202240000Y-201480000D03*
X187000000Y-181160000D03*
X202240000Y-198940000D03*
X187000000Y-183700000D03*
X202240000Y-196400000D03*
X187000000Y-186240000D03*
X202240000Y-193860000D03*
X187000000Y-188780000D03*
X202240000Y-191320000D03*
X187000000Y-191320000D03*
X202240000Y-188780000D03*
X187000000Y-193860000D03*
X202240000Y-186240000D03*
X187000000Y-196400000D03*
X202240000Y-183700000D03*
X187000000Y-198940000D03*
X202240000Y-181160000D03*
X187000000Y-201480000D03*
X202240000Y-178620000D03*
X187000000Y-204020000D03*
X202240000Y-176080000D03*
X187000000Y-206560000D03*
X202240000Y-173540000D03*
X187000000Y-209100000D03*
X202240000Y-171000000D03*
G04 #@! TD*
D11*
G04 #@! TO.C,U85-74LS153*
X153000000Y-139000000D03*
D12*
X170780000Y-131380000D03*
X155540000Y-139000000D03*
X168240000Y-131380000D03*
X158080000Y-139000000D03*
X165700000Y-131380000D03*
X160620000Y-139000000D03*
X163160000Y-131380000D03*
X163160000Y-139000000D03*
X160620000Y-131380000D03*
X165700000Y-139000000D03*
X158080000Y-131380000D03*
X168240000Y-139000000D03*
X155540000Y-131380000D03*
X170780000Y-139000000D03*
X153000000Y-131380000D03*
G04 #@! TD*
D11*
G04 #@! TO.C,U86-74HC245*
X175500000Y-143000000D03*
D12*
X152640000Y-150620000D03*
X172960000Y-143000000D03*
X155180000Y-150620000D03*
X170420000Y-143000000D03*
X157720000Y-150620000D03*
X167880000Y-143000000D03*
X160260000Y-150620000D03*
X165340000Y-143000000D03*
X162800000Y-150620000D03*
X162800000Y-143000000D03*
X165340000Y-150620000D03*
X160260000Y-143000000D03*
X167880000Y-150620000D03*
X157720000Y-143000000D03*
X170420000Y-150620000D03*
X155180000Y-143000000D03*
X172960000Y-150620000D03*
X152640000Y-143000000D03*
X175500000Y-150620000D03*
G04 #@! TD*
D21*
G04 #@! TO.C,D17*
X250000000Y-3000000D03*
D22*
X237300000Y-3000000D03*
G04 #@! TD*
D10*
G04 #@! TO.C,F1*
X248500000Y-7500000D03*
X243500000Y-7500000D03*
G04 #@! TD*
D12*
G04 #@! TO.C,U87-74LS574*
X89000000Y-40120000D03*
X66140000Y-32500000D03*
X86460000Y-40120000D03*
X68680000Y-32500000D03*
X83920000Y-40120000D03*
X71220000Y-32500000D03*
X81380000Y-40120000D03*
X73760000Y-32500000D03*
X78840000Y-40120000D03*
X76300000Y-32500000D03*
X76300000Y-40120000D03*
X78840000Y-32500000D03*
X73760000Y-40120000D03*
X81380000Y-32500000D03*
X71220000Y-40120000D03*
X83920000Y-32500000D03*
X68680000Y-40120000D03*
X86460000Y-32500000D03*
X66140000Y-40120000D03*
D11*
X89000000Y-32500000D03*
G04 #@! TD*
D12*
G04 #@! TO.C,U88-SST39SF040*
X21500000Y-2260000D03*
X59600000Y-17500000D03*
X24040000Y-2260000D03*
X57060000Y-17500000D03*
X26580000Y-2260000D03*
X54520000Y-17500000D03*
X29120000Y-2260000D03*
X51980000Y-17500000D03*
X31660000Y-2260000D03*
X49440000Y-17500000D03*
X34200000Y-2260000D03*
X46900000Y-17500000D03*
X36740000Y-2260000D03*
X44360000Y-17500000D03*
X39280000Y-2260000D03*
X41820000Y-17500000D03*
X41820000Y-2260000D03*
X39280000Y-17500000D03*
X44360000Y-2260000D03*
X36740000Y-17500000D03*
X46900000Y-2260000D03*
X34200000Y-17500000D03*
X49440000Y-2260000D03*
X31660000Y-17500000D03*
X51980000Y-2260000D03*
X29120000Y-17500000D03*
X54520000Y-2260000D03*
X26580000Y-17500000D03*
X57060000Y-2260000D03*
X24040000Y-17500000D03*
X59600000Y-2260000D03*
D11*
X21500000Y-17500000D03*
G04 #@! TD*
G04 #@! TO.C,U89-74LS574*
X42500000Y-64000000D03*
D12*
X50120000Y-86860000D03*
X42500000Y-66540000D03*
X50120000Y-84320000D03*
X42500000Y-69080000D03*
X50120000Y-81780000D03*
X42500000Y-71620000D03*
X50120000Y-79240000D03*
X42500000Y-74160000D03*
X50120000Y-76700000D03*
X42500000Y-76700000D03*
X50120000Y-74160000D03*
X42500000Y-79240000D03*
X50120000Y-71620000D03*
X42500000Y-81780000D03*
X50120000Y-69080000D03*
X42500000Y-84320000D03*
X50120000Y-66540000D03*
X42500000Y-86860000D03*
X50120000Y-64000000D03*
G04 #@! TD*
D11*
G04 #@! TO.C,U90-SST39SF040*
X21500000Y-36500000D03*
D12*
X59600000Y-21260000D03*
X24040000Y-36500000D03*
X57060000Y-21260000D03*
X26580000Y-36500000D03*
X54520000Y-21260000D03*
X29120000Y-36500000D03*
X51980000Y-21260000D03*
X31660000Y-36500000D03*
X49440000Y-21260000D03*
X34200000Y-36500000D03*
X46900000Y-21260000D03*
X36740000Y-36500000D03*
X44360000Y-21260000D03*
X39280000Y-36500000D03*
X41820000Y-21260000D03*
X41820000Y-36500000D03*
X39280000Y-21260000D03*
X44360000Y-36500000D03*
X36740000Y-21260000D03*
X46900000Y-36500000D03*
X34200000Y-21260000D03*
X49440000Y-36500000D03*
X31660000Y-21260000D03*
X51980000Y-36500000D03*
X29120000Y-21260000D03*
X54520000Y-36500000D03*
X26580000Y-21260000D03*
X57060000Y-36500000D03*
X24040000Y-21260000D03*
X59600000Y-36500000D03*
X21500000Y-21260000D03*
G04 #@! TD*
D11*
G04 #@! TO.C,U92-74LS154*
X134500000Y-67500000D03*
D12*
X142120000Y-95440000D03*
X134500000Y-70040000D03*
X142120000Y-92900000D03*
X134500000Y-72580000D03*
X142120000Y-90360000D03*
X134500000Y-75120000D03*
X142120000Y-87820000D03*
X134500000Y-77660000D03*
X142120000Y-85280000D03*
X134500000Y-80200000D03*
X142120000Y-82740000D03*
X134500000Y-82740000D03*
X142120000Y-80200000D03*
X134500000Y-85280000D03*
X142120000Y-77660000D03*
X134500000Y-87820000D03*
X142120000Y-75120000D03*
X134500000Y-90360000D03*
X142120000Y-72580000D03*
X134500000Y-92900000D03*
X142120000Y-70040000D03*
X134500000Y-95440000D03*
X142120000Y-67500000D03*
G04 #@! TD*
G04 #@! TO.C,U93-74LS154*
X128000000Y-39620000D03*
X100060000Y-32000000D03*
X125460000Y-39620000D03*
X102600000Y-32000000D03*
X122920000Y-39620000D03*
X105140000Y-32000000D03*
X120380000Y-39620000D03*
X107680000Y-32000000D03*
X117840000Y-39620000D03*
X110220000Y-32000000D03*
X115300000Y-39620000D03*
X112760000Y-32000000D03*
X112760000Y-39620000D03*
X115300000Y-32000000D03*
X110220000Y-39620000D03*
X117840000Y-32000000D03*
X107680000Y-39620000D03*
X120380000Y-32000000D03*
X105140000Y-39620000D03*
X122920000Y-32000000D03*
X102600000Y-39620000D03*
X125460000Y-32000000D03*
X100060000Y-39620000D03*
D11*
X128000000Y-32000000D03*
G04 #@! TD*
G04 #@! TO.C,U94-74LS154*
X93000000Y-43500000D03*
D12*
X65060000Y-51120000D03*
X90460000Y-43500000D03*
X67600000Y-51120000D03*
X87920000Y-43500000D03*
X70140000Y-51120000D03*
X85380000Y-43500000D03*
X72680000Y-51120000D03*
X82840000Y-43500000D03*
X75220000Y-51120000D03*
X80300000Y-43500000D03*
X77760000Y-51120000D03*
X77760000Y-43500000D03*
X80300000Y-51120000D03*
X75220000Y-43500000D03*
X82840000Y-51120000D03*
X72680000Y-43500000D03*
X85380000Y-51120000D03*
X70140000Y-43500000D03*
X87920000Y-51120000D03*
X67600000Y-43500000D03*
X90460000Y-51120000D03*
X65060000Y-43500000D03*
X93000000Y-51120000D03*
G04 #@! TD*
D11*
G04 #@! TO.C,U95-74LS154*
X31500000Y-64000000D03*
D12*
X39120000Y-91940000D03*
X31500000Y-66540000D03*
X39120000Y-89400000D03*
X31500000Y-69080000D03*
X39120000Y-86860000D03*
X31500000Y-71620000D03*
X39120000Y-84320000D03*
X31500000Y-74160000D03*
X39120000Y-81780000D03*
X31500000Y-76700000D03*
X39120000Y-79240000D03*
X31500000Y-79240000D03*
X39120000Y-76700000D03*
X31500000Y-81780000D03*
X39120000Y-74160000D03*
X31500000Y-84320000D03*
X39120000Y-71620000D03*
X31500000Y-86860000D03*
X39120000Y-69080000D03*
X31500000Y-89400000D03*
X39120000Y-66540000D03*
X31500000Y-91940000D03*
X39120000Y-64000000D03*
G04 #@! TD*
G04 #@! TO.C,U96-74LS154*
X28120000Y-64000000D03*
X20500000Y-91940000D03*
X28120000Y-66540000D03*
X20500000Y-89400000D03*
X28120000Y-69080000D03*
X20500000Y-86860000D03*
X28120000Y-71620000D03*
X20500000Y-84320000D03*
X28120000Y-74160000D03*
X20500000Y-81780000D03*
X28120000Y-76700000D03*
X20500000Y-79240000D03*
X28120000Y-79240000D03*
X20500000Y-76700000D03*
X28120000Y-81780000D03*
X20500000Y-74160000D03*
X28120000Y-84320000D03*
X20500000Y-71620000D03*
X28120000Y-86860000D03*
X20500000Y-69080000D03*
X28120000Y-89400000D03*
X20500000Y-66540000D03*
X28120000Y-91940000D03*
D11*
X20500000Y-64000000D03*
G04 #@! TD*
D12*
G04 #@! TO.C,U97-74LS08*
X121380000Y-69500000D03*
X129000000Y-54260000D03*
X121380000Y-66960000D03*
X129000000Y-56800000D03*
X121380000Y-64420000D03*
X129000000Y-59340000D03*
X121380000Y-61880000D03*
X129000000Y-61880000D03*
X121380000Y-59340000D03*
X129000000Y-64420000D03*
X121380000Y-56800000D03*
X129000000Y-66960000D03*
X121380000Y-54260000D03*
D11*
X129000000Y-69500000D03*
G04 #@! TD*
G04 #@! TO.C,U98-74LS08*
X117500000Y-69500000D03*
D12*
X109880000Y-54260000D03*
X117500000Y-66960000D03*
X109880000Y-56800000D03*
X117500000Y-64420000D03*
X109880000Y-59340000D03*
X117500000Y-61880000D03*
X109880000Y-61880000D03*
X117500000Y-59340000D03*
X109880000Y-64420000D03*
X117500000Y-56800000D03*
X109880000Y-66960000D03*
X117500000Y-54260000D03*
X109880000Y-69500000D03*
G04 #@! TD*
G04 #@! TO.C,U99-74LS08*
X106120000Y-57500000D03*
X98500000Y-72740000D03*
X106120000Y-60040000D03*
X98500000Y-70200000D03*
X106120000Y-62580000D03*
X98500000Y-67660000D03*
X106120000Y-65120000D03*
X98500000Y-65120000D03*
X106120000Y-67660000D03*
X98500000Y-62580000D03*
X106120000Y-70200000D03*
X98500000Y-60040000D03*
X106120000Y-72740000D03*
D11*
X98500000Y-57500000D03*
G04 #@! TD*
G04 #@! TO.C,U100-74LS08*
X91000000Y-95500000D03*
D12*
X106240000Y-87880000D03*
X93540000Y-95500000D03*
X103700000Y-87880000D03*
X96080000Y-95500000D03*
X101160000Y-87880000D03*
X98620000Y-95500000D03*
X98620000Y-87880000D03*
X101160000Y-95500000D03*
X96080000Y-87880000D03*
X103700000Y-95500000D03*
X93540000Y-87880000D03*
X106240000Y-95500000D03*
X91000000Y-87880000D03*
G04 #@! TD*
G04 #@! TO.C,U101-74LS08*
X91000000Y-76880000D03*
X106240000Y-84500000D03*
X93540000Y-76880000D03*
X103700000Y-84500000D03*
X96080000Y-76880000D03*
X101160000Y-84500000D03*
X98620000Y-76880000D03*
X98620000Y-84500000D03*
X101160000Y-76880000D03*
X96080000Y-84500000D03*
X103700000Y-76880000D03*
X93540000Y-84500000D03*
X106240000Y-76880000D03*
D11*
X91000000Y-84500000D03*
G04 #@! TD*
G04 #@! TO.C,U102-74LS08*
X68500000Y-84000000D03*
D12*
X83740000Y-76380000D03*
X71040000Y-84000000D03*
X81200000Y-76380000D03*
X73580000Y-84000000D03*
X78660000Y-76380000D03*
X76120000Y-84000000D03*
X76120000Y-76380000D03*
X78660000Y-84000000D03*
X73580000Y-76380000D03*
X81200000Y-84000000D03*
X71040000Y-76380000D03*
X83740000Y-84000000D03*
X68500000Y-76380000D03*
G04 #@! TD*
D13*
G04 #@! TO.C,SW4*
X232000000Y-20500000D03*
X227500000Y-20500000D03*
X232000000Y-14000000D03*
X227500000Y-14000000D03*
G04 #@! TD*
D11*
G04 #@! TO.C,U91-74LS161*
X14000000Y-20000000D03*
D12*
X6380000Y-2220000D03*
X14000000Y-17460000D03*
X6380000Y-4760000D03*
X14000000Y-14920000D03*
X6380000Y-7300000D03*
X14000000Y-12380000D03*
X6380000Y-9840000D03*
X14000000Y-9840000D03*
X6380000Y-12380000D03*
X14000000Y-7300000D03*
X6380000Y-14920000D03*
X14000000Y-4760000D03*
X6380000Y-17460000D03*
X14000000Y-2220000D03*
X6380000Y-20000000D03*
G04 #@! TD*
D11*
G04 #@! TO.C,U105-74LS161*
X14000000Y-41500000D03*
D12*
X6380000Y-23720000D03*
X14000000Y-38960000D03*
X6380000Y-26260000D03*
X14000000Y-36420000D03*
X6380000Y-28800000D03*
X14000000Y-33880000D03*
X6380000Y-31340000D03*
X14000000Y-31340000D03*
X6380000Y-33880000D03*
X14000000Y-28800000D03*
X6380000Y-36420000D03*
X14000000Y-26260000D03*
X6380000Y-38960000D03*
X14000000Y-23720000D03*
X6380000Y-41500000D03*
G04 #@! TD*
G04 #@! TO.C,U106-74LS161*
X6380000Y-63000000D03*
X14000000Y-45220000D03*
X6380000Y-60460000D03*
X14000000Y-47760000D03*
X6380000Y-57920000D03*
X14000000Y-50300000D03*
X6380000Y-55380000D03*
X14000000Y-52840000D03*
X6380000Y-52840000D03*
X14000000Y-55380000D03*
X6380000Y-50300000D03*
X14000000Y-57920000D03*
X6380000Y-47760000D03*
X14000000Y-60460000D03*
X6380000Y-45220000D03*
D11*
X14000000Y-63000000D03*
G04 #@! TD*
D12*
G04 #@! TO.C,U107-74LS161*
X61620000Y-61000000D03*
X54000000Y-78780000D03*
X61620000Y-63540000D03*
X54000000Y-76240000D03*
X61620000Y-66080000D03*
X54000000Y-73700000D03*
X61620000Y-68620000D03*
X54000000Y-71160000D03*
X61620000Y-71160000D03*
X54000000Y-68620000D03*
X61620000Y-73700000D03*
X54000000Y-66080000D03*
X61620000Y-76240000D03*
X54000000Y-63540000D03*
X61620000Y-78780000D03*
D11*
X54000000Y-61000000D03*
G04 #@! TD*
D12*
G04 #@! TO.C,U108-74HC04*
X138000000Y-50620000D03*
X122760000Y-43000000D03*
X135460000Y-50620000D03*
X125300000Y-43000000D03*
X132920000Y-50620000D03*
X127840000Y-43000000D03*
X130380000Y-50620000D03*
X130380000Y-43000000D03*
X127840000Y-50620000D03*
X132920000Y-43000000D03*
X125300000Y-50620000D03*
X135460000Y-43000000D03*
X122760000Y-50620000D03*
D11*
X138000000Y-43000000D03*
G04 #@! TD*
D12*
G04 #@! TO.C,U109-74HC04*
X115500000Y-50620000D03*
X100260000Y-43000000D03*
X112960000Y-50620000D03*
X102800000Y-43000000D03*
X110420000Y-50620000D03*
X105340000Y-43000000D03*
X107880000Y-50620000D03*
X107880000Y-43000000D03*
X105340000Y-50620000D03*
X110420000Y-43000000D03*
X102800000Y-50620000D03*
X112960000Y-43000000D03*
X100260000Y-50620000D03*
D11*
X115500000Y-43000000D03*
G04 #@! TD*
G04 #@! TO.C,U110-74HC04*
X95000000Y-70000000D03*
D12*
X87380000Y-54760000D03*
X95000000Y-67460000D03*
X87380000Y-57300000D03*
X95000000Y-64920000D03*
X87380000Y-59840000D03*
X95000000Y-62380000D03*
X87380000Y-62380000D03*
X95000000Y-59840000D03*
X87380000Y-64920000D03*
X95000000Y-57300000D03*
X87380000Y-67460000D03*
X95000000Y-54760000D03*
X87380000Y-70000000D03*
G04 #@! TD*
D11*
G04 #@! TO.C,U111-74HC04*
X80000000Y-54500000D03*
D12*
X64760000Y-62120000D03*
X77460000Y-54500000D03*
X67300000Y-62120000D03*
X74920000Y-54500000D03*
X69840000Y-62120000D03*
X72380000Y-54500000D03*
X72380000Y-62120000D03*
X69840000Y-54500000D03*
X74920000Y-62120000D03*
X67300000Y-54500000D03*
X77460000Y-62120000D03*
X64760000Y-54500000D03*
X80000000Y-62120000D03*
G04 #@! TD*
D11*
G04 #@! TO.C,U112-74LS574*
X138500000Y-25000000D03*
D12*
X130880000Y-2140000D03*
X138500000Y-22460000D03*
X130880000Y-4680000D03*
X138500000Y-19920000D03*
X130880000Y-7220000D03*
X138500000Y-17380000D03*
X130880000Y-9760000D03*
X138500000Y-14840000D03*
X130880000Y-12300000D03*
X138500000Y-12300000D03*
X130880000Y-14840000D03*
X138500000Y-9760000D03*
X130880000Y-17380000D03*
X138500000Y-7220000D03*
X130880000Y-19920000D03*
X138500000Y-4680000D03*
X130880000Y-22460000D03*
X138500000Y-2140000D03*
X130880000Y-25000000D03*
G04 #@! TD*
D11*
G04 #@! TO.C,U113-SST39SF040*
X21500000Y-55500000D03*
D12*
X59600000Y-40260000D03*
X24040000Y-55500000D03*
X57060000Y-40260000D03*
X26580000Y-55500000D03*
X54520000Y-40260000D03*
X29120000Y-55500000D03*
X51980000Y-40260000D03*
X31660000Y-55500000D03*
X49440000Y-40260000D03*
X34200000Y-55500000D03*
X46900000Y-40260000D03*
X36740000Y-55500000D03*
X44360000Y-40260000D03*
X39280000Y-55500000D03*
X41820000Y-40260000D03*
X41820000Y-55500000D03*
X39280000Y-40260000D03*
X44360000Y-55500000D03*
X36740000Y-40260000D03*
X46900000Y-55500000D03*
X34200000Y-40260000D03*
X49440000Y-55500000D03*
X31660000Y-40260000D03*
X51980000Y-55500000D03*
X29120000Y-40260000D03*
X54520000Y-55500000D03*
X26580000Y-40260000D03*
X57060000Y-55500000D03*
X24040000Y-40260000D03*
X59600000Y-55500000D03*
X21500000Y-40260000D03*
G04 #@! TD*
D11*
G04 #@! TO.C,U114-74HC04*
X123500000Y-80000000D03*
D12*
X131120000Y-95240000D03*
X123500000Y-82540000D03*
X131120000Y-92700000D03*
X123500000Y-85080000D03*
X131120000Y-90160000D03*
X123500000Y-87620000D03*
X131120000Y-87620000D03*
X123500000Y-90160000D03*
X131120000Y-85080000D03*
X123500000Y-92700000D03*
X131120000Y-82540000D03*
X123500000Y-95240000D03*
X131120000Y-80000000D03*
G04 #@! TD*
G04 #@! TO.C,U115-74HC04*
X68500000Y-65380000D03*
X83740000Y-73000000D03*
X71040000Y-65380000D03*
X81200000Y-73000000D03*
X73580000Y-65380000D03*
X78660000Y-73000000D03*
X76120000Y-65380000D03*
X76120000Y-73000000D03*
X78660000Y-65380000D03*
X73580000Y-73000000D03*
X81200000Y-65380000D03*
X71040000Y-73000000D03*
X83740000Y-65380000D03*
D11*
X68500000Y-73000000D03*
G04 #@! TD*
G04 #@! TO.C,U117-74LS08*
X146000000Y-80000000D03*
D12*
X153620000Y-95240000D03*
X146000000Y-82540000D03*
X153620000Y-92700000D03*
X146000000Y-85080000D03*
X153620000Y-90160000D03*
X146000000Y-87620000D03*
X153620000Y-87620000D03*
X146000000Y-90160000D03*
X153620000Y-85080000D03*
X146000000Y-92700000D03*
X153620000Y-82540000D03*
X146000000Y-95240000D03*
X153620000Y-80000000D03*
G04 #@! TD*
G04 #@! TO.C,U118-74HC245*
X119880000Y-25000000D03*
X127500000Y-2140000D03*
X119880000Y-22460000D03*
X127500000Y-4680000D03*
X119880000Y-19920000D03*
X127500000Y-7220000D03*
X119880000Y-17380000D03*
X127500000Y-9760000D03*
X119880000Y-14840000D03*
X127500000Y-12300000D03*
X119880000Y-12300000D03*
X127500000Y-14840000D03*
X119880000Y-9760000D03*
X127500000Y-17380000D03*
X119880000Y-7220000D03*
X127500000Y-19920000D03*
X119880000Y-4680000D03*
X127500000Y-22460000D03*
X119880000Y-2140000D03*
D11*
X127500000Y-25000000D03*
G04 #@! TD*
D12*
G04 #@! TO.C,U119-74LS32*
X72620000Y-6000000D03*
X65000000Y-21240000D03*
X72620000Y-8540000D03*
X65000000Y-18700000D03*
X72620000Y-11080000D03*
X65000000Y-16160000D03*
X72620000Y-13620000D03*
X65000000Y-13620000D03*
X72620000Y-16160000D03*
X65000000Y-11080000D03*
X72620000Y-18700000D03*
X65000000Y-8540000D03*
X72620000Y-21240000D03*
D11*
X65000000Y-6000000D03*
G04 #@! TD*
G04 #@! TO.C,U120-74LS32*
X76000000Y-6000000D03*
D12*
X83620000Y-21240000D03*
X76000000Y-8540000D03*
X83620000Y-18700000D03*
X76000000Y-11080000D03*
X83620000Y-16160000D03*
X76000000Y-13620000D03*
X83620000Y-13620000D03*
X76000000Y-16160000D03*
X83620000Y-11080000D03*
X76000000Y-18700000D03*
X83620000Y-8540000D03*
X76000000Y-21240000D03*
X83620000Y-6000000D03*
G04 #@! TD*
D11*
G04 #@! TO.C,U121-74HCT574*
X94500000Y-25000000D03*
D12*
X86880000Y-2140000D03*
X94500000Y-22460000D03*
X86880000Y-4680000D03*
X94500000Y-19920000D03*
X86880000Y-7220000D03*
X94500000Y-17380000D03*
X86880000Y-9760000D03*
X94500000Y-14840000D03*
X86880000Y-12300000D03*
X94500000Y-12300000D03*
X86880000Y-14840000D03*
X94500000Y-9760000D03*
X86880000Y-17380000D03*
X94500000Y-7220000D03*
X86880000Y-19920000D03*
X94500000Y-4680000D03*
X86880000Y-22460000D03*
X94500000Y-2140000D03*
X86880000Y-25000000D03*
G04 #@! TD*
G04 #@! TO.C,U122-74HC245*
X97880000Y-25000000D03*
X105500000Y-2140000D03*
X97880000Y-22460000D03*
X105500000Y-4680000D03*
X97880000Y-19920000D03*
X105500000Y-7220000D03*
X97880000Y-17380000D03*
X105500000Y-9760000D03*
X97880000Y-14840000D03*
X105500000Y-12300000D03*
X97880000Y-12300000D03*
X105500000Y-14840000D03*
X97880000Y-9760000D03*
X105500000Y-17380000D03*
X97880000Y-7220000D03*
X105500000Y-19920000D03*
X97880000Y-4680000D03*
X105500000Y-22460000D03*
X97880000Y-2140000D03*
D11*
X105500000Y-25000000D03*
G04 #@! TD*
G04 #@! TO.C,U123-74LS08*
X68500000Y-95000000D03*
D12*
X83740000Y-87380000D03*
X71040000Y-95000000D03*
X81200000Y-87380000D03*
X73580000Y-95000000D03*
X78660000Y-87380000D03*
X76120000Y-95000000D03*
X76120000Y-87380000D03*
X78660000Y-95000000D03*
X73580000Y-87380000D03*
X81200000Y-95000000D03*
X71040000Y-87380000D03*
X83740000Y-95000000D03*
X68500000Y-87380000D03*
G04 #@! TD*
G04 #@! TO.C,U125-74HC04*
X109880000Y-92000000D03*
X117500000Y-76760000D03*
X109880000Y-89460000D03*
X117500000Y-79300000D03*
X109880000Y-86920000D03*
X117500000Y-81840000D03*
X109880000Y-84380000D03*
X117500000Y-84380000D03*
X109880000Y-81840000D03*
X117500000Y-86920000D03*
X109880000Y-79300000D03*
X117500000Y-89460000D03*
X109880000Y-76760000D03*
D11*
X117500000Y-92000000D03*
G04 #@! TD*
D23*
G04 #@! TO.C,J2*
X7500000Y-120000000D03*
D24*
X4960000Y-120000000D03*
X7500000Y-117460000D03*
X4960000Y-117460000D03*
X7500000Y-114920000D03*
X4960000Y-114920000D03*
X7500000Y-112380000D03*
X4960000Y-112380000D03*
X7500000Y-109840000D03*
X4960000Y-109840000D03*
X7500000Y-107300000D03*
X4960000Y-107300000D03*
X7500000Y-104760000D03*
X4960000Y-104760000D03*
X7500000Y-102220000D03*
X4960000Y-102220000D03*
X7500000Y-99680000D03*
X4960000Y-99680000D03*
X7500000Y-97140000D03*
X4960000Y-97140000D03*
X7500000Y-94600000D03*
X4960000Y-94600000D03*
X7500000Y-92060000D03*
X4960000Y-92060000D03*
X7500000Y-89520000D03*
X4960000Y-89520000D03*
X7500000Y-86980000D03*
X4960000Y-86980000D03*
X7500000Y-84440000D03*
X4960000Y-84440000D03*
X7500000Y-81900000D03*
X4960000Y-81900000D03*
X7500000Y-79360000D03*
X4960000Y-79360000D03*
X7500000Y-76820000D03*
X4960000Y-76820000D03*
X7500000Y-74280000D03*
X4960000Y-74280000D03*
X7500000Y-71740000D03*
X4960000Y-71740000D03*
G04 #@! TD*
D25*
G04 #@! TO.C,R2*
X257296051Y-27296051D03*
X255500000Y-25500000D03*
X253703949Y-27296051D03*
G04 #@! TD*
D26*
G04 #@! TO.C,J3*
X247000000Y-16500000D03*
D27*
G36*
X253933315Y-14554093D02*
X254015827Y-14566333D01*
X254096742Y-14586601D01*
X254175281Y-14614702D01*
X254250687Y-14650367D01*
X254322235Y-14693251D01*
X254389234Y-14742941D01*
X254451041Y-14798959D01*
X254507059Y-14860766D01*
X254556749Y-14927765D01*
X254599633Y-14999313D01*
X254635298Y-15074719D01*
X254663399Y-15153258D01*
X254683667Y-15234173D01*
X254695907Y-15316685D01*
X254700000Y-15400000D01*
X254700000Y-17600000D01*
X254695907Y-17683315D01*
X254683667Y-17765827D01*
X254663399Y-17846742D01*
X254635298Y-17925281D01*
X254599633Y-18000687D01*
X254556749Y-18072235D01*
X254507059Y-18139234D01*
X254451041Y-18201041D01*
X254389234Y-18257059D01*
X254322235Y-18306749D01*
X254250687Y-18349633D01*
X254175281Y-18385298D01*
X254096742Y-18413399D01*
X254015827Y-18433667D01*
X253933315Y-18445907D01*
X253850000Y-18450000D01*
X252150000Y-18450000D01*
X252066685Y-18445907D01*
X251984173Y-18433667D01*
X251903258Y-18413399D01*
X251824719Y-18385298D01*
X251749313Y-18349633D01*
X251677765Y-18306749D01*
X251610766Y-18257059D01*
X251548959Y-18201041D01*
X251492941Y-18139234D01*
X251443251Y-18072235D01*
X251400367Y-18000687D01*
X251364702Y-17925281D01*
X251336601Y-17846742D01*
X251316333Y-17765827D01*
X251304093Y-17683315D01*
X251300000Y-17600000D01*
X251300000Y-15400000D01*
X251304093Y-15316685D01*
X251316333Y-15234173D01*
X251336601Y-15153258D01*
X251364702Y-15074719D01*
X251400367Y-14999313D01*
X251443251Y-14927765D01*
X251492941Y-14860766D01*
X251548959Y-14798959D01*
X251610766Y-14742941D01*
X251677765Y-14693251D01*
X251749313Y-14650367D01*
X251824719Y-14614702D01*
X251903258Y-14586601D01*
X251984173Y-14566333D01*
X252066685Y-14554093D01*
X252150000Y-14550000D01*
X253850000Y-14550000D01*
X253933315Y-14554093D01*
X253933315Y-14554093D01*
G37*
D28*
X253000000Y-16500000D03*
D27*
G36*
X251070567Y-9854695D02*
X251165213Y-9868734D01*
X251258028Y-9891983D01*
X251348116Y-9924217D01*
X251434612Y-9965127D01*
X251516681Y-10014317D01*
X251593533Y-10071315D01*
X251664429Y-10135571D01*
X251728685Y-10206467D01*
X251785683Y-10283319D01*
X251834873Y-10365388D01*
X251875783Y-10451884D01*
X251908017Y-10541972D01*
X251931266Y-10634787D01*
X251945305Y-10729433D01*
X251950000Y-10825000D01*
X251950000Y-12775000D01*
X251945305Y-12870567D01*
X251931266Y-12965213D01*
X251908017Y-13058028D01*
X251875783Y-13148116D01*
X251834873Y-13234612D01*
X251785683Y-13316681D01*
X251728685Y-13393533D01*
X251664429Y-13464429D01*
X251593533Y-13528685D01*
X251516681Y-13585683D01*
X251434612Y-13634873D01*
X251348116Y-13675783D01*
X251258028Y-13708017D01*
X251165213Y-13731266D01*
X251070567Y-13745305D01*
X250975000Y-13750000D01*
X249025000Y-13750000D01*
X248929433Y-13745305D01*
X248834787Y-13731266D01*
X248741972Y-13708017D01*
X248651884Y-13675783D01*
X248565388Y-13634873D01*
X248483319Y-13585683D01*
X248406467Y-13528685D01*
X248335571Y-13464429D01*
X248271315Y-13393533D01*
X248214317Y-13316681D01*
X248165127Y-13234612D01*
X248124217Y-13148116D01*
X248091983Y-13058028D01*
X248068734Y-12965213D01*
X248054695Y-12870567D01*
X248050000Y-12775000D01*
X248050000Y-10825000D01*
X248054695Y-10729433D01*
X248068734Y-10634787D01*
X248091983Y-10541972D01*
X248124217Y-10451884D01*
X248165127Y-10365388D01*
X248214317Y-10283319D01*
X248271315Y-10206467D01*
X248335571Y-10135571D01*
X248406467Y-10071315D01*
X248483319Y-10014317D01*
X248565388Y-9965127D01*
X248651884Y-9924217D01*
X248741972Y-9891983D01*
X248834787Y-9868734D01*
X248929433Y-9854695D01*
X249025000Y-9850000D01*
X250975000Y-9850000D01*
X251070567Y-9854695D01*
X251070567Y-9854695D01*
G37*
D29*
X250000000Y-11800000D03*
G04 #@! TD*
D10*
G04 #@! TO.C,C1*
X246000000Y-35500000D03*
X241000000Y-35500000D03*
G04 #@! TD*
G04 #@! TO.C,C2*
X236000000Y-32000000D03*
D11*
X236000000Y-34000000D03*
G04 #@! TD*
G04 #@! TO.C,C3*
X230000000Y-32000000D03*
D10*
X230000000Y-34000000D03*
G04 #@! TD*
G04 #@! TO.C,C4*
X237500000Y-29000000D03*
X237500000Y-24000000D03*
G04 #@! TD*
G04 #@! TO.C,C5*
X180500000Y-30500000D03*
X185500000Y-30500000D03*
G04 #@! TD*
G04 #@! TO.C,C6*
X185500000Y-27000000D03*
X180500000Y-27000000D03*
G04 #@! TD*
G04 #@! TO.C,C7*
X180500000Y-23500000D03*
X185500000Y-23500000D03*
G04 #@! TD*
G04 #@! TO.C,C8*
X226500000Y-47000000D03*
X226500000Y-42000000D03*
G04 #@! TD*
G04 #@! TO.C,C9*
X232500000Y-50500000D03*
X237500000Y-50500000D03*
G04 #@! TD*
G04 #@! TO.C,C10*
X220000000Y-10500000D03*
X220000000Y-5500000D03*
G04 #@! TD*
G04 #@! TO.C,C11*
X240500000Y-43000000D03*
X245500000Y-43000000D03*
G04 #@! TD*
G04 #@! TO.C,C12*
X217500000Y-65500000D03*
X217500000Y-70500000D03*
G04 #@! TD*
G04 #@! TO.C,C13*
X214500000Y-67500000D03*
X209500000Y-67500000D03*
G04 #@! TD*
G04 #@! TO.C,C14*
X189000000Y-77500000D03*
X189000000Y-72500000D03*
G04 #@! TD*
G04 #@! TO.C,C15*
X203000000Y-39000000D03*
X203000000Y-34000000D03*
G04 #@! TD*
G04 #@! TO.C,C16*
X179000000Y-159500000D03*
X179000000Y-164500000D03*
G04 #@! TD*
G04 #@! TO.C,C17*
X179000000Y-175500000D03*
X179000000Y-170500000D03*
G04 #@! TD*
G04 #@! TO.C,C18*
X179000000Y-181500000D03*
X179000000Y-186500000D03*
G04 #@! TD*
G04 #@! TO.C,C19*
X179000000Y-197500000D03*
X179000000Y-192500000D03*
G04 #@! TD*
G04 #@! TO.C,C20*
X149000000Y-170500000D03*
X149000000Y-175500000D03*
G04 #@! TD*
G04 #@! TO.C,C21*
X149000000Y-186500000D03*
X149000000Y-181500000D03*
G04 #@! TD*
G04 #@! TO.C,C22*
X149000000Y-192500000D03*
X149000000Y-197500000D03*
G04 #@! TD*
G04 #@! TO.C,C23*
X149000000Y-208500000D03*
X149000000Y-203500000D03*
G04 #@! TD*
G04 #@! TO.C,C24*
X114000000Y-190000000D03*
X119000000Y-190000000D03*
G04 #@! TD*
G04 #@! TO.C,C25*
X110500000Y-130000000D03*
X115500000Y-130000000D03*
G04 #@! TD*
G04 #@! TO.C,C26*
X103000000Y-165500000D03*
X108000000Y-165500000D03*
G04 #@! TD*
G04 #@! TO.C,C27*
X119000000Y-165500000D03*
X114000000Y-165500000D03*
G04 #@! TD*
G04 #@! TO.C,C28*
X108000000Y-190000000D03*
X103000000Y-190000000D03*
G04 #@! TD*
G04 #@! TO.C,C29*
X154500000Y-32000000D03*
X149500000Y-32000000D03*
G04 #@! TD*
G04 #@! TO.C,C30*
X138500000Y-28500000D03*
X143500000Y-28500000D03*
G04 #@! TD*
G04 #@! TO.C,C32*
X135000000Y-37000000D03*
X135000000Y-32000000D03*
G04 #@! TD*
G04 #@! TO.C,C33*
X154000000Y-48500000D03*
X149000000Y-48500000D03*
G04 #@! TD*
G04 #@! TO.C,C34*
X160000000Y-46000000D03*
X165000000Y-46000000D03*
G04 #@! TD*
G04 #@! TO.C,C35*
X222000000Y-70500000D03*
X222000000Y-65500000D03*
G04 #@! TD*
G04 #@! TO.C,C36*
X253500000Y-56500000D03*
X253500000Y-61500000D03*
G04 #@! TD*
G04 #@! TO.C,C37*
X203000000Y-42000000D03*
X203000000Y-47000000D03*
G04 #@! TD*
G04 #@! TO.C,C38*
X123000000Y-130000000D03*
X118000000Y-130000000D03*
G04 #@! TD*
G04 #@! TO.C,C39*
X215000000Y-54500000D03*
X210000000Y-54500000D03*
G04 #@! TD*
G04 #@! TO.C,C40*
X181000000Y-37000000D03*
X181000000Y-42000000D03*
G04 #@! TD*
G04 #@! TO.C,C41*
X222000000Y-25500000D03*
X217000000Y-25500000D03*
G04 #@! TD*
G04 #@! TO.C,C42*
X217000000Y-40000000D03*
X222000000Y-40000000D03*
G04 #@! TD*
G04 #@! TO.C,C43*
X217500000Y-54500000D03*
X222500000Y-54500000D03*
G04 #@! TD*
G04 #@! TO.C,C44*
X127000000Y-161500000D03*
X127000000Y-156500000D03*
G04 #@! TD*
G04 #@! TO.C,C45*
X157000000Y-13000000D03*
X152000000Y-13000000D03*
G04 #@! TD*
G04 #@! TO.C,C46*
X157500000Y-28000000D03*
X152500000Y-28000000D03*
G04 #@! TD*
G04 #@! TO.C,C47*
X172500000Y-122000000D03*
X172500000Y-117000000D03*
G04 #@! TD*
G04 #@! TO.C,C48*
X61000000Y-122000000D03*
X61000000Y-117000000D03*
G04 #@! TD*
G04 #@! TO.C,C49*
X115500000Y-122000000D03*
X115500000Y-117000000D03*
G04 #@! TD*
G04 #@! TO.C,C50*
X36500000Y-117500000D03*
X36500000Y-122500000D03*
G04 #@! TD*
G04 #@! TO.C,C51*
X91000000Y-117500000D03*
X91000000Y-122500000D03*
G04 #@! TD*
G04 #@! TO.C,C52*
X148000000Y-117000000D03*
X148000000Y-122000000D03*
G04 #@! TD*
G04 #@! TO.C,C53*
X41500000Y-105500000D03*
X41500000Y-110500000D03*
G04 #@! TD*
G04 #@! TO.C,C54*
X96000000Y-110000000D03*
X96000000Y-105000000D03*
G04 #@! TD*
G04 #@! TO.C,C55*
X153000000Y-105000000D03*
X153000000Y-110000000D03*
G04 #@! TD*
G04 #@! TO.C,C56*
X96500000Y-184500000D03*
X96500000Y-179500000D03*
G04 #@! TD*
G04 #@! TO.C,C57*
X79500000Y-184500000D03*
X79500000Y-179500000D03*
G04 #@! TD*
G04 #@! TO.C,C58*
X62500000Y-179500000D03*
X62500000Y-184500000D03*
G04 #@! TD*
G04 #@! TO.C,C59*
X96500000Y-157500000D03*
X96500000Y-162500000D03*
G04 #@! TD*
G04 #@! TO.C,C60*
X62500000Y-157500000D03*
X62500000Y-162500000D03*
G04 #@! TD*
G04 #@! TO.C,C61*
X96500000Y-130000000D03*
X96500000Y-135000000D03*
G04 #@! TD*
G04 #@! TO.C,C62*
X79500000Y-130500000D03*
X79500000Y-135500000D03*
G04 #@! TD*
G04 #@! TO.C,C63*
X70500000Y-204000000D03*
X70500000Y-209000000D03*
G04 #@! TD*
G04 #@! TO.C,C64*
X62500000Y-135500000D03*
X62500000Y-130500000D03*
G04 #@! TD*
G04 #@! TO.C,C65*
X93000000Y-204000000D03*
X93000000Y-209000000D03*
G04 #@! TD*
G04 #@! TO.C,C66*
X46000000Y-179500000D03*
X46000000Y-184500000D03*
G04 #@! TD*
G04 #@! TO.C,C67*
X30000000Y-184500000D03*
X30000000Y-179500000D03*
G04 #@! TD*
G04 #@! TO.C,C68*
X14000000Y-179000000D03*
X14000000Y-184000000D03*
G04 #@! TD*
G04 #@! TO.C,C69*
X46000000Y-162500000D03*
X46000000Y-157500000D03*
G04 #@! TD*
G04 #@! TO.C,C70*
X14000000Y-157500000D03*
X14000000Y-162500000D03*
G04 #@! TD*
G04 #@! TO.C,C71*
X46000000Y-130500000D03*
X46000000Y-135500000D03*
G04 #@! TD*
G04 #@! TO.C,C72*
X30000000Y-135500000D03*
X30000000Y-130500000D03*
G04 #@! TD*
G04 #@! TO.C,C73*
X22000000Y-204000000D03*
X22000000Y-209000000D03*
G04 #@! TD*
G04 #@! TO.C,C74*
X14000000Y-135500000D03*
X14000000Y-130500000D03*
G04 #@! TD*
G04 #@! TO.C,C75*
X45000000Y-209000000D03*
X45000000Y-204000000D03*
G04 #@! TD*
G04 #@! TO.C,C76*
X79500000Y-157500000D03*
X79500000Y-162500000D03*
G04 #@! TD*
G04 #@! TO.C,C77*
X30000000Y-162500000D03*
X30000000Y-157500000D03*
G04 #@! TD*
G04 #@! TO.C,C78*
X221000000Y-167500000D03*
X216000000Y-167500000D03*
G04 #@! TD*
G04 #@! TO.C,C79*
X240000000Y-122000000D03*
X235000000Y-122000000D03*
G04 #@! TD*
G04 #@! TO.C,C80*
X258500000Y-122000000D03*
X253500000Y-122000000D03*
G04 #@! TD*
G04 #@! TO.C,C81*
X172500000Y-108500000D03*
X172500000Y-103500000D03*
G04 #@! TD*
G04 #@! TO.C,C82*
X172500000Y-89500000D03*
X172500000Y-84500000D03*
G04 #@! TD*
G04 #@! TO.C,C84*
X259000000Y-167500000D03*
X254000000Y-167500000D03*
G04 #@! TD*
G04 #@! TO.C,C85*
X217500000Y-108500000D03*
X217500000Y-103500000D03*
G04 #@! TD*
G04 #@! TO.C,C86*
X217500000Y-89500000D03*
X217500000Y-84500000D03*
G04 #@! TD*
G04 #@! TO.C,C87*
X216000000Y-164000000D03*
X211000000Y-164000000D03*
G04 #@! TD*
G04 #@! TO.C,C88*
X197500000Y-164000000D03*
X202500000Y-164000000D03*
G04 #@! TD*
G04 #@! TO.C,C89*
X183000000Y-164000000D03*
X188000000Y-164000000D03*
G04 #@! TD*
G04 #@! TO.C,C90*
X179000000Y-203500000D03*
X179000000Y-208500000D03*
G04 #@! TD*
G04 #@! TO.C,C91*
X202000000Y-167500000D03*
X197000000Y-167500000D03*
G04 #@! TD*
G04 #@! TO.C,C92*
X153000000Y-128000000D03*
X158000000Y-128000000D03*
G04 #@! TD*
G04 #@! TO.C,C93*
X175500000Y-135000000D03*
X175500000Y-140000000D03*
G04 #@! TD*
G04 #@! TO.C,C94*
X189000000Y-123500000D03*
X189000000Y-128500000D03*
G04 #@! TD*
D30*
G04 #@! TO.C,C95*
X238000000Y-7000000D03*
D31*
X238000000Y-9000000D03*
G04 #@! TD*
D11*
G04 #@! TO.C,C96*
X232500000Y-8500000D03*
D10*
X232500000Y-10500000D03*
G04 #@! TD*
D11*
G04 #@! TO.C,C97*
X226500000Y-3000000D03*
D10*
X226500000Y-6800000D03*
G04 #@! TD*
G04 #@! TO.C,C98*
X92500000Y-40000000D03*
X92500000Y-35000000D03*
G04 #@! TD*
G04 #@! TO.C,C99*
X18000000Y-7500000D03*
X18000000Y-2500000D03*
G04 #@! TD*
G04 #@! TO.C,C100*
X50000000Y-60500000D03*
X45000000Y-60500000D03*
G04 #@! TD*
G04 #@! TO.C,C101*
X18000000Y-26500000D03*
X18000000Y-21500000D03*
G04 #@! TD*
G04 #@! TO.C,C102*
X142000000Y-64000000D03*
X137000000Y-64000000D03*
G04 #@! TD*
G04 #@! TO.C,C103*
X3000000Y-15000000D03*
X3000000Y-20000000D03*
G04 #@! TD*
G04 #@! TO.C,C104*
X131500000Y-39500000D03*
X131500000Y-34500000D03*
G04 #@! TD*
G04 #@! TO.C,C105*
X96500000Y-51000000D03*
X96500000Y-46000000D03*
G04 #@! TD*
G04 #@! TO.C,C106*
X34000000Y-60500000D03*
X39000000Y-60500000D03*
G04 #@! TD*
G04 #@! TO.C,C107*
X28000000Y-60500000D03*
X23000000Y-60500000D03*
G04 #@! TD*
G04 #@! TO.C,C108*
X126500000Y-73000000D03*
X121500000Y-73000000D03*
G04 #@! TD*
G04 #@! TO.C,C109*
X115000000Y-73000000D03*
X110000000Y-73000000D03*
G04 #@! TD*
G04 #@! TO.C,C110*
X101000000Y-54000000D03*
X106000000Y-54000000D03*
G04 #@! TD*
G04 #@! TO.C,C111*
X87500000Y-93000000D03*
X87500000Y-88000000D03*
G04 #@! TD*
G04 #@! TO.C,C112*
X87500000Y-77000000D03*
X87500000Y-82000000D03*
G04 #@! TD*
G04 #@! TO.C,C113*
X65000000Y-81500000D03*
X65000000Y-76500000D03*
G04 #@! TD*
G04 #@! TO.C,C114*
X243000000Y-21000000D03*
X243000000Y-16000000D03*
G04 #@! TD*
G04 #@! TO.C,C115*
X109000000Y-28500000D03*
X114000000Y-28500000D03*
G04 #@! TD*
G04 #@! TO.C,C116*
X3000000Y-41500000D03*
X3000000Y-36500000D03*
G04 #@! TD*
G04 #@! TO.C,C117*
X3000000Y-58000000D03*
X3000000Y-63000000D03*
G04 #@! TD*
G04 #@! TO.C,C118*
X56000000Y-82000000D03*
X61000000Y-82000000D03*
G04 #@! TD*
G04 #@! TO.C,C119*
X141500000Y-50500000D03*
X141500000Y-45500000D03*
G04 #@! TD*
G04 #@! TO.C,C120*
X119000000Y-50500000D03*
X119000000Y-45500000D03*
G04 #@! TD*
G04 #@! TO.C,C121*
X93000000Y-73500000D03*
X88000000Y-73500000D03*
G04 #@! TD*
G04 #@! TO.C,C122*
X83500000Y-62500000D03*
X83500000Y-57500000D03*
G04 #@! TD*
G04 #@! TO.C,C123*
X131000000Y-28500000D03*
X136000000Y-28500000D03*
G04 #@! TD*
G04 #@! TO.C,C124*
X18000000Y-45500000D03*
X18000000Y-40500000D03*
G04 #@! TD*
G04 #@! TO.C,C125*
X126000000Y-76500000D03*
X131000000Y-76500000D03*
G04 #@! TD*
G04 #@! TO.C,C126*
X65000000Y-66000000D03*
X65000000Y-71000000D03*
G04 #@! TD*
G04 #@! TO.C,C127*
X115000000Y-95500000D03*
X110000000Y-95500000D03*
G04 #@! TD*
G04 #@! TO.C,C128*
X153500000Y-76500000D03*
X148500000Y-76500000D03*
G04 #@! TD*
G04 #@! TO.C,C129*
X125000000Y-28500000D03*
X120000000Y-28500000D03*
G04 #@! TD*
G04 #@! TO.C,C130*
X67500000Y-2500000D03*
X72500000Y-2500000D03*
G04 #@! TD*
G04 #@! TO.C,C131*
X83500000Y-2500000D03*
X78500000Y-2500000D03*
G04 #@! TD*
G04 #@! TO.C,C132*
X87000000Y-28500000D03*
X92000000Y-28500000D03*
G04 #@! TD*
G04 #@! TO.C,C133*
X103000000Y-28500000D03*
X98000000Y-28500000D03*
G04 #@! TD*
G04 #@! TO.C,C134*
X65000000Y-87500000D03*
X65000000Y-92500000D03*
G04 #@! TD*
G04 #@! TO.C,C135*
X198500000Y-20000000D03*
X198500000Y-15000000D03*
G04 #@! TD*
M02*
