M48
;DRILL file {KiCad (5.0.0-rc2-83-gda392728d)} date 06/14/18 18:24:29
;FORMAT={-:-/ absolute / inch / decimal}
FMAT,2
INCH,TZ
T1C0.0118
T2C0.0217
T3C0.0236
T4C0.0300
T5C0.0315
T6C0.0335
T7C0.0354
T8C0.0394
T9C0.0400
T10C0.0433
T11C0.0551
T12C0.0315
%
G90
G05
M72
T1
X0.3608Y-3.4578
X0.3874Y-4.2667
X0.398Y-3.6498
X0.4037Y-3.7322
X0.4083Y-3.4688
X0.4156Y-3.4362
X0.4264Y-1.1294
X0.4292Y-3.8117
X0.4512Y-0.7824
X0.4707Y-3.8836
X0.5085Y-2.9555
X0.529Y-3.2762
X0.5399Y-3.2435
X0.5613Y-3.2793
X0.5887Y-3.1841
X0.6354Y-1.5143
X0.8324Y-3.9022
X1.0562Y-2.0623
X1.2325Y-3.7012
X1.2968Y-3.684
X1.4035Y-3.8141
X1.4362Y-3.8105
X1.4569Y-2.4226
X1.5846Y-2.6696
X1.7051Y-4.7701
X1.7525Y-2.4977
X1.7661Y-3.5656
X1.8048Y-3.562
X1.8721Y-3.5549
X2.0204Y-2.4948
X2.1885Y-0.1904
X2.305Y-0.1665
X2.315Y-4.6406
X2.4511Y-4.353
X2.4977Y-4.4239
X2.5121Y-4.3926
X2.6162Y-5.0032
X2.661Y-4.7861
X2.734Y-4.9506
X2.8967Y-2.7522
X2.938Y-7.7177
X3.0129Y-2.5063
X3.0997Y-3.2232
X3.1524Y-0.5278
X3.2113Y-0.6114
X3.2355Y-2.7892
X3.2467Y-3.961
X3.3979Y-3.0803
X3.5108Y-3.1986
X3.5338Y-4.7999
X3.5548Y-4.868
X3.6502Y-4.8476
X3.6525Y-5.0342
X3.6691Y-4.7323
X3.7971Y-5.2468
X3.8327Y-3.1402
X3.881Y-3.1839
X3.9194Y-4.4403
X3.9811Y-4.4116
X4.042Y-3.127
X4.0819Y-4.4624
X4.0839Y-3.6898
X4.1088Y-6.3573
X4.1203Y-4.4563
X4.1212Y-3.6592
X4.1743Y-6.7554
X4.2146Y-6.8029
X4.3006Y-4.6244
X4.4219Y-4.6604
X4.474Y-6.7525
X4.5778Y-6.5184
X4.6113Y-6.2095
X4.7898Y-4.678
X4.848Y-4.7189
X5.0299Y-3.5723
X5.0701Y-6.4617
X5.2062Y-3.7999
X5.2241Y-3.8241
X5.2412Y-2.5739
X5.3409Y-3.8503
X5.3633Y-3.1358
X5.3634Y-3.3636
X5.5515Y-3.4867
X5.6469Y-3.1752
X5.647Y-3.0137
X5.7512Y-4.4352
X5.9054Y-2.4099
X6.1626Y-4.8875
X6.4064Y-5.0856
X7.1192Y-6.9566
X7.1975Y-6.6612
X7.7171Y-5.1921
X7.7919Y-2.4356
X7.833Y-2.4638
X7.8656Y-2.4569
X8.1274Y-6.2604
X8.2183Y-6.5159
X8.2322Y-5.2576
X8.2359Y-6.5438
X8.2839Y-6.561
X8.3016Y-5.317
X8.302Y-5.2497
X8.3645Y-5.366
X8.3908Y-5.4737
X8.4908Y-5.3393
X8.5367Y-5.4378
X8.6482Y-5.4471
X8.6951Y-5.757
X9.3101Y-4.5973
T3
X9.3701Y-0.2756
X9.3701Y-0.3543
T4
X9.9883Y-1.0746
X10.0591Y-1.0039
X10.1298Y-1.0746
T5
X4.8283Y-6.6142
X4.8283Y-6.9142
X4.9283Y-6.6142
X4.9283Y-6.9142
X5.0283Y-6.6142
X5.0283Y-6.9142
X5.1283Y-6.6142
X5.1283Y-6.9142
X5.2283Y-6.6142
X5.2283Y-6.9142
X5.3283Y-6.6142
X5.3283Y-6.9142
X5.4283Y-6.6142
X5.4283Y-6.9142
X5.5283Y-6.6142
X5.5283Y-6.9142
X5.6283Y-6.6142
X5.6283Y-6.9142
X5.7283Y-6.6142
X5.7283Y-6.9142
X6.7913Y-4.0748
X6.7913Y-4.2717
X4.3307Y-2.874
X4.5276Y-2.874
X6.0094Y-6.6142
X6.0094Y-6.9142
X6.1094Y-6.6142
X6.1094Y-6.9142
X6.2094Y-6.6142
X6.2094Y-6.9142
X6.3094Y-6.6142
X6.3094Y-6.9142
X6.4094Y-6.6142
X6.4094Y-6.9142
X6.5094Y-6.6142
X6.5094Y-6.9142
X6.6094Y-6.6142
X6.6094Y-6.9142
X6.7094Y-6.6142
X6.7094Y-6.9142
X6.8094Y-6.6142
X6.8094Y-6.9142
X6.9094Y-6.6142
X6.9094Y-6.9142
X7.8236Y-0.1378
X7.8236Y-0.4378
X7.9236Y-0.1378
X7.9236Y-0.4378
X8.0236Y-0.1378
X8.0236Y-0.4378
X8.1236Y-0.1378
X8.1236Y-0.4378
X8.2236Y-0.1378
X8.2236Y-0.4378
X8.3236Y-0.1378
X8.3236Y-0.4378
X8.4236Y-0.1378
X8.4236Y-0.4378
X8.5236Y-0.1378
X8.5236Y-0.4378
X3.4646Y-2.8937
X3.6614Y-2.8937
X6.7079Y-1.063
X7.0079Y-1.063
X0.8465Y-0.089
X0.8465Y-0.689
X0.9465Y-0.089
X0.9465Y-0.689
X1.0465Y-0.089
X1.0465Y-0.689
X1.1465Y-0.089
X1.1465Y-0.689
X1.2465Y-0.089
X1.2465Y-0.689
X1.3465Y-0.089
X1.3465Y-0.689
X1.4465Y-0.089
X1.4465Y-0.689
X1.5465Y-0.089
X1.5465Y-0.689
X1.6465Y-0.089
X1.6465Y-0.689
X1.7465Y-0.089
X1.7465Y-0.689
X1.8465Y-0.089
X1.8465Y-0.689
X1.9465Y-0.089
X1.9465Y-0.689
X2.0465Y-0.089
X2.0465Y-0.689
X2.1465Y-0.089
X2.1465Y-0.689
X2.2465Y-0.089
X2.2465Y-0.689
X2.3465Y-0.089
X2.3465Y-0.689
X0.1181Y-1.437
X0.1181Y-1.6339
X9.3504Y-0.9449
X9.3504Y-1.1417
X4.0551Y-7.4803
X4.252Y-7.4803
X9.4685Y-1.5551
X9.7685Y-1.5551
X3.9394Y-1.2598
X3.9394Y-1.5598
X4.0394Y-1.2598
X4.0394Y-1.5598
X4.1394Y-1.2598
X4.1394Y-1.5598
X4.2394Y-1.2598
X4.2394Y-1.5598
X4.3394Y-1.2598
X4.3394Y-1.5598
X4.4394Y-1.2598
X4.4394Y-1.5598
X4.5394Y-1.2598
X4.5394Y-1.5598
X4.6394Y-1.2598
X4.6394Y-1.5598
X4.7394Y-1.2598
X4.7394Y-1.5598
X4.8394Y-1.2598
X4.8394Y-1.5598
X4.9394Y-1.2598
X4.9394Y-1.5598
X5.0394Y-1.2598
X5.0394Y-1.5598
X6.0236Y-5.0394
X6.2205Y-5.0394
X0.7087Y-1.5945
X0.7087Y-1.7913
X9.2913Y-1.2598
X9.2913Y-1.3386
X8.5433Y-1.0039
X8.7402Y-1.0039
X2.0276Y-7.0669
X2.0276Y-7.1669
X2.0276Y-7.2669
X2.0276Y-7.3669
X2.0276Y-7.4669
X2.0276Y-7.5669
X2.0276Y-7.6669
X2.0276Y-7.7669
X2.3276Y-7.0669
X2.3276Y-7.1669
X2.3276Y-7.2669
X2.3276Y-7.3669
X2.3276Y-7.4669
X2.3276Y-7.5669
X2.3276Y-7.6669
X2.3276Y-7.7669
X6.3189Y-1.2008
X6.6189Y-1.2008
X3.4252Y-1.122
X3.622Y-1.122
X9.4882Y-1.3976
X9.685Y-1.3976
X5.8661Y-6.7126
X5.8661Y-6.9094
X2.0378Y-7.9331
X2.0378Y-8.2331
X2.1378Y-7.9331
X2.1378Y-8.2331
X2.2378Y-7.9331
X2.2378Y-8.2331
X2.3378Y-7.9331
X2.3378Y-8.2331
X2.4378Y-7.9331
X2.4378Y-8.2331
X2.5378Y-7.9331
X2.5378Y-8.2331
X2.6378Y-7.9331
X2.6378Y-8.2331
X3.7094Y-4.5079
X3.7094Y-4.8079
X3.8094Y-4.5079
X3.8094Y-4.8079
X3.9094Y-4.5079
X3.9094Y-4.8079
X4.0094Y-4.5079
X4.0094Y-4.8079
X4.1094Y-4.5079
X4.1094Y-4.8079
X4.2094Y-4.5079
X4.2094Y-4.8079
X4.3094Y-4.5079
X4.3094Y-4.8079
X4.4094Y-4.5079
X4.4094Y-4.8079
X3.4402Y-2.1559
X3.4402Y-2.2559
X3.4402Y-2.3559
X3.4402Y-2.4559
X3.4402Y-2.5559
X3.4402Y-2.6559
X3.4402Y-2.7559
X3.7402Y-2.1559
X3.7402Y-2.2559
X3.7402Y-2.3559
X3.7402Y-2.4559
X3.7402Y-2.5559
X3.7402Y-2.6559
X3.7402Y-2.7559
X8.248Y-2.6575
X8.4449Y-2.6575
X3.3661Y-7.0669
X3.3661Y-7.1669
X3.3661Y-7.2669
X3.3661Y-7.3669
X3.3661Y-7.4669
X3.3661Y-7.5669
X3.3661Y-7.6669
X3.3661Y-7.7669
X3.6661Y-7.0669
X3.6661Y-7.1669
X3.6661Y-7.2669
X3.6661Y-7.3669
X3.6661Y-7.4669
X3.6661Y-7.5669
X3.6661Y-7.6669
X3.6661Y-7.7669
X2.5496Y-2.1457
X2.5496Y-2.4457
X2.6496Y-2.1457
X2.6496Y-2.4457
X2.7496Y-2.1457
X2.7496Y-2.4457
X2.8496Y-2.1457
X2.8496Y-2.4457
X2.9496Y-2.1457
X2.9496Y-2.4457
X3.0496Y-2.1457
X3.0496Y-2.4457
X3.1496Y-2.1457
X3.1496Y-2.4457
X7.0472Y-6.7126
X7.0472Y-6.9094
X2.7417Y-4.0354
X2.7417Y-4.3354
X2.8417Y-4.0354
X2.8417Y-4.3354
X2.9417Y-4.0354
X2.9417Y-4.3354
X3.0417Y-4.0354
X3.0417Y-4.3354
X3.1417Y-4.0354
X3.1417Y-4.3354
X3.2417Y-4.0354
X3.2417Y-4.3354
X3.3417Y-4.0354
X3.3417Y-4.3354
X3.4417Y-4.0354
X3.4417Y-4.3354
X3.5417Y-4.0354
X3.5417Y-4.3354
X3.6417Y-4.0354
X3.6417Y-4.3354
X8.8583Y-6.7323
X8.8583Y-6.8323
X8.8583Y-6.9323
X8.8583Y-7.0323
X8.8583Y-7.1323
X8.8583Y-7.2323
X8.8583Y-7.3323
X8.8583Y-7.4323
X8.8583Y-7.5323
X8.8583Y-7.6323
X8.8583Y-7.7323
X8.8583Y-7.8323
X8.8583Y-7.9323
X8.8583Y-8.0323
X8.8583Y-8.1323
X8.8583Y-8.2323
X9.4583Y-6.7323
X9.4583Y-6.8323
X9.4583Y-6.9323
X9.4583Y-7.0323
X9.4583Y-7.1323
X9.4583Y-7.2323
X9.4583Y-7.3323
X9.4583Y-7.4323
X9.4583Y-7.5323
X9.4583Y-7.6323
X9.4583Y-7.7323
X9.4583Y-7.8323
X9.4583Y-7.9323
X9.4583Y-8.0323
X9.4583Y-8.1323
X9.4583Y-8.2323
X7.1063Y-1.2008
X7.3031Y-1.2008
X8.7008Y-4.0654
X8.7008Y-4.6654
X8.8008Y-4.0654
X8.8008Y-4.6654
X8.9008Y-4.0654
X8.9008Y-4.6654
X9.0008Y-4.0654
X9.0008Y-4.6654
X9.1008Y-4.0654
X9.1008Y-4.6654
X9.2008Y-4.0654
X9.2008Y-4.6654
X9.3008Y-4.0654
X9.3008Y-4.6654
X9.4008Y-4.0654
X9.4008Y-4.6654
X9.5008Y-4.0654
X9.5008Y-4.6654
X9.6008Y-4.0654
X9.6008Y-4.6654
X9.7008Y-4.0654
X9.7008Y-4.6654
X9.8008Y-4.0654
X9.8008Y-4.6654
X9.9008Y-4.0654
X9.9008Y-4.6654
X10.0008Y-4.0654
X10.0008Y-4.6654
X10.1008Y-4.0654
X10.1008Y-4.6654
X10.2008Y-4.0654
X10.2008Y-4.6654
X7.2Y-5.4189
X7.2Y-5.5189
X7.2Y-5.6189
X7.2Y-5.7189
X7.2Y-5.8189
X7.2Y-5.9189
X7.2Y-6.0189
X7.2Y-6.1189
X7.2Y-6.2189
X7.2Y-6.3189
X7.5Y-5.4189
X7.5Y-5.5189
X7.5Y-5.6189
X7.5Y-5.7189
X7.5Y-5.8189
X7.5Y-5.9189
X7.5Y-6.0189
X7.5Y-6.1189
X7.5Y-6.2189
X7.5Y-6.3189
X1.7717Y-8.0315
X1.7717Y-8.2283
X6.5157Y-2.7953
X6.5157Y-3.0953
X1.1811Y-5.1378
X1.1811Y-5.3346
X7.6346Y-1.8441
X7.6346Y-1.9441
X7.6346Y-2.0441
X7.6346Y-2.1441
X7.6346Y-2.2441
X7.8346Y-1.8441
X7.8346Y-1.9441
X7.8346Y-2.0441
X7.8346Y-2.1441
X7.8346Y-2.2441
X3.7992Y-6.2008
X3.7992Y-6.3976
X7.0622Y-2.6772
X7.3622Y-2.6772
X5.8811Y-1.3976
X6.1811Y-1.3976
X6.9772Y-0.4921
X6.9772Y-0.7921
X7.0772Y-0.4921
X7.0772Y-0.7921
X7.1772Y-0.4921
X7.1772Y-0.7921
X7.2772Y-0.4921
X7.2772Y-0.7921
X7.3772Y-0.4921
X7.3772Y-0.7921
X7.4772Y-0.4921
X7.4772Y-0.7921
X7.5772Y-0.4921
X7.5772Y-0.7921
X7.6772Y-0.4921
X7.6772Y-0.7921
X3.1299Y-7.0669
X3.1299Y-7.2638
X5.5709Y-1.7913
X5.5709Y-1.9882
X9.2913Y-0.5268
X9.2913Y-0.8268
X9.9803Y-4.8031
X10.1772Y-4.8031
X4.7835Y-2.874
X4.9803Y-2.874
X9.4291Y-0.5268
X9.4291Y-0.8268
X2.2047Y-3.2283
X2.4016Y-3.2283
X6.3189Y-1.063
X6.6189Y-1.063
X9.5866Y-0.2953
X9.7835Y-0.2953
X5.1772Y-1.3583
X5.1772Y-1.5551
X5.1575Y-1.122
X5.3543Y-1.122
X3.8535Y-0.0843
X3.8535Y-0.1843
X3.8535Y-0.2843
X3.8535Y-0.3843
X3.8535Y-0.4843
X3.8535Y-0.5843
X3.8535Y-0.6843
X3.8535Y-0.7843
X3.8535Y-0.8843
X3.8535Y-0.9843
X4.1535Y-0.0843
X4.1535Y-0.1843
X4.1535Y-0.2843
X4.1535Y-0.3843
X4.1535Y-0.4843
X4.1535Y-0.5843
X4.1535Y-0.6843
X4.1535Y-0.7843
X4.1535Y-0.8843
X4.1535Y-0.9843
X4.4882Y-7.4803
X4.685Y-7.4803
X5.4528Y-1.2551
X5.4528Y-1.5551
X5.5528Y-1.2551
X5.5528Y-1.5551
X5.6528Y-1.2551
X5.6528Y-1.5551
X5.7528Y-1.2551
X5.7528Y-1.5551
X6.0236Y-5.1724
X6.0236Y-5.4724
X6.1236Y-5.1724
X6.1236Y-5.4724
X6.2236Y-5.1724
X6.2236Y-5.4724
X6.3236Y-5.1724
X6.3236Y-5.4724
X6.4236Y-5.1724
X6.4236Y-5.4724
X6.5236Y-5.1724
X6.5236Y-5.4724
X6.6236Y-5.1724
X6.6236Y-5.4724
X6.7236Y-5.1724
X6.7236Y-5.4724
X3.9764Y-2.126
X4.1732Y-2.126
X3.2874Y-2.2638
X3.2874Y-2.4606
X4.3504Y-5.1181
X4.5472Y-5.1181
X0.1181Y-6.2008
X0.1181Y-6.3008
X0.1181Y-6.4008
X0.1181Y-6.5008
X0.1181Y-6.6008
X0.1181Y-6.7008
X0.1181Y-6.8008
X0.1181Y-6.9008
X0.4181Y-6.2008
X0.4181Y-6.3008
X0.4181Y-6.4008
X0.4181Y-6.5008
X0.4181Y-6.6008
X0.4181Y-6.7008
X0.4181Y-6.8008
X0.4181Y-6.9008
X3.8583Y-1.122
X4.0551Y-1.122
X4.8622Y-3.1496
X4.8622Y-3.2496
X4.8622Y-3.3496
X4.8622Y-3.4496
X4.8622Y-3.5496
X4.8622Y-3.6496
X4.8622Y-3.7496
X5.1622Y-3.1496
X5.1622Y-3.2496
X5.1622Y-3.3496
X5.1622Y-3.4496
X5.1622Y-3.5496
X5.1622Y-3.6496
X5.1622Y-3.7496
X2.4016Y-4.6063
X2.4016Y-4.8031
X2.6969Y-6.2008
X2.6969Y-6.3008
X2.6969Y-6.4008
X2.6969Y-6.5008
X2.6969Y-6.6008
X2.6969Y-6.7008
X2.6969Y-6.8008
X2.6969Y-6.9008
X2.9969Y-6.2008
X2.9969Y-6.3008
X2.9969Y-6.4008
X2.9969Y-6.5008
X2.9969Y-6.6008
X2.9969Y-6.7008
X2.9969Y-6.8008
X2.9969Y-6.9008
X5.1378Y-6.1567
X5.1378Y-6.4567
X5.2378Y-6.1567
X5.2378Y-6.4567
X5.3378Y-6.1567
X5.3378Y-6.4567
X5.4378Y-6.1567
X5.4378Y-6.4567
X5.5378Y-6.1567
X5.5378Y-6.4567
X5.6378Y-6.1567
X5.6378Y-6.4567
X5.7378Y-6.1567
X5.7378Y-6.4567
X5.1528Y-0.0843
X5.1528Y-0.1843
X5.1528Y-0.2843
X5.1528Y-0.3843
X5.1528Y-0.4843
X5.1528Y-0.5843
X5.1528Y-0.6843
X5.1528Y-0.7843
X5.1528Y-0.8843
X5.1528Y-0.9843
X5.4528Y-0.0843
X5.4528Y-0.1843
X5.4528Y-0.2843
X5.4528Y-0.3843
X5.4528Y-0.4843
X5.4528Y-0.5843
X5.4528Y-0.6843
X5.4528Y-0.7843
X5.4528Y-0.8843
X5.4528Y-0.9843
X8.563Y-2.1457
X8.7598Y-2.1457
X0.5961Y-4.0551
X0.5961Y-4.3551
X0.6961Y-4.0551
X0.6961Y-4.3551
X0.7961Y-4.0551
X0.7961Y-4.3551
X0.8961Y-4.0551
X0.8961Y-4.3551
X0.9961Y-4.0551
X0.9961Y-4.3551
X1.0961Y-4.0551
X1.0961Y-4.3551
X1.1961Y-4.0551
X1.1961Y-4.3551
X1.2961Y-4.0551
X1.2961Y-4.3551
X1.3961Y-4.0551
X1.3961Y-4.3551
X1.4961Y-4.0551
X1.4961Y-4.3551
X9.4685Y-1.6929
X9.6654Y-1.6929
X7.4409Y-2.8543
X7.4409Y-3.0512
X4.989Y-4.4882
X4.989Y-4.7882
X5.089Y-4.4882
X5.089Y-4.7882
X5.189Y-4.4882
X5.189Y-4.7882
X5.289Y-4.4882
X5.289Y-4.7882
X5.389Y-4.4882
X5.389Y-4.7882
X5.489Y-4.4882
X5.489Y-4.7882
X5.589Y-4.4882
X5.589Y-4.7882
X5.689Y-4.4882
X5.689Y-4.7882
X6.9291Y-4.0654
X6.9291Y-4.6654
X7.0291Y-4.0654
X7.0291Y-4.6654
X7.1291Y-4.0654
X7.1291Y-4.6654
X7.2291Y-4.0654
X7.2291Y-4.6654
X7.3291Y-4.0654
X7.3291Y-4.6654
X7.4291Y-4.0654
X7.4291Y-4.6654
X7.5291Y-4.0654
X7.5291Y-4.6654
X7.6291Y-4.0654
X7.6291Y-4.6654
X7.7291Y-4.0654
X7.7291Y-4.6654
X7.8291Y-4.0654
X7.8291Y-4.6654
X7.9291Y-4.0654
X7.9291Y-4.6654
X8.0291Y-4.0654
X8.0291Y-4.6654
X8.1291Y-4.0654
X8.1291Y-4.6654
X8.2291Y-4.0654
X8.2291Y-4.6654
X8.3291Y-4.0654
X8.3291Y-4.6654
X8.4291Y-4.0654
X8.4291Y-4.6654
X6.9291Y-3.3173
X6.9291Y-3.9173
X7.0291Y-3.3173
X7.0291Y-3.9173
X7.1291Y-3.3173
X7.1291Y-3.9173
X7.2291Y-3.3173
X7.2291Y-3.9173
X7.3291Y-3.3173
X7.3291Y-3.9173
X7.4291Y-3.3173
X7.4291Y-3.9173
X7.5291Y-3.3173
X7.5291Y-3.9173
X7.6291Y-3.3173
X7.6291Y-3.9173
X7.7291Y-3.3173
X7.7291Y-3.9173
X7.8291Y-3.3173
X7.8291Y-3.9173
X7.9291Y-3.3173
X7.9291Y-3.9173
X8.0291Y-3.3173
X8.0291Y-3.9173
X8.1291Y-3.3173
X8.1291Y-3.9173
X8.2291Y-3.3173
X8.2291Y-3.9173
X8.3291Y-3.3173
X8.3291Y-3.9173
X8.4291Y-3.3173
X8.4291Y-3.9173
X7.7512Y-5.4189
X7.7512Y-5.5189
X7.7512Y-5.6189
X7.7512Y-5.7189
X7.7512Y-5.8189
X7.7512Y-5.9189
X7.7512Y-6.0189
X7.7512Y-6.1189
X7.7512Y-6.2189
X7.7512Y-6.3189
X8.0512Y-5.4189
X8.0512Y-5.5189
X8.0512Y-5.6189
X8.0512Y-5.7189
X8.0512Y-5.8189
X8.0512Y-5.9189
X8.0512Y-6.0189
X8.0512Y-6.1189
X8.0512Y-6.2189
X8.0512Y-6.3189
X5.8268Y-4.6063
X5.8268Y-4.8031
X6.6535Y-2.7953
X6.6535Y-3.0953
X6.0236Y-4.1339
X6.0236Y-4.3307
X6.7913Y-2.7953
X6.7913Y-3.0953
X3.7992Y-7.0669
X3.7992Y-7.2638
X7.2543Y-1.3583
X7.2543Y-1.6583
X7.3543Y-1.3583
X7.3543Y-1.6583
X7.4543Y-1.3583
X7.4543Y-1.6583
X7.5543Y-1.3583
X7.5543Y-1.6583
X7.6543Y-1.3583
X7.6543Y-1.6583
X7.7543Y-1.3583
X7.7543Y-1.6583
X7.8543Y-1.3583
X7.8543Y-1.6583
X4.8283Y-7.4803
X4.8283Y-7.7803
X4.9283Y-7.4803
X4.9283Y-7.7803
X5.0283Y-7.4803
X5.0283Y-7.7803
X5.1283Y-7.4803
X5.1283Y-7.7803
X5.2283Y-7.4803
X5.2283Y-7.7803
X5.3283Y-7.4803
X5.3283Y-7.7803
X5.4283Y-7.4803
X5.4283Y-7.7803
X5.5283Y-7.4803
X5.5283Y-7.7803
X5.6283Y-7.4803
X5.6283Y-7.7803
X5.7283Y-7.4803
X5.7283Y-7.7803
X6.811Y-0.4874
X6.811Y-0.7874
X1.811Y-7.0669
X1.811Y-7.2638
X3.7992Y-1.811
X3.7992Y-2.0079
X3.9567Y-6.6535
X3.9567Y-6.7535
X3.9567Y-6.8535
X3.9567Y-6.9535
X3.9567Y-7.0535
X3.9567Y-7.1535
X3.9567Y-7.2535
X3.9567Y-7.3535
X4.2567Y-6.6535
X4.2567Y-6.7535
X4.2567Y-6.8535
X4.2567Y-6.9535
X4.2567Y-7.0535
X4.2567Y-7.1535
X4.2567Y-7.2535
X4.2567Y-7.3535
X9.0504Y-1.5551
X9.0504Y-1.8551
X9.1504Y-1.5551
X9.1504Y-1.8551
X9.2504Y-1.5551
X9.2504Y-1.8551
X9.3504Y-1.5551
X9.3504Y-1.8551
X2.4606Y-7.0669
X2.4606Y-7.2638
X1.3386Y-2.3819
X1.5354Y-2.3819
X3.5827Y-3.4598
X3.5827Y-3.7598
X3.6827Y-3.4598
X3.6827Y-3.7598
X3.7827Y-3.4598
X3.7827Y-3.7598
X3.8827Y-3.4598
X3.8827Y-3.7598
X3.9827Y-3.4598
X3.9827Y-3.7598
X4.0827Y-3.4598
X4.0827Y-3.7598
X4.1827Y-3.4598
X4.1827Y-3.7598
X4.2913Y-1.122
X4.4882Y-1.122
X4.4882Y-6.5157
X4.685Y-6.5157
X9.8969Y-1.3386
X10.1969Y-1.3386
X9.1535Y-0.3346
X9.1535Y-0.4134
X9.0551Y-1.2598
X9.0551Y-1.3386
X5.8661Y-7.1457
X5.8661Y-7.3425
X9.252Y-6.5945
X9.4488Y-6.5945
X6.0094Y-5.6299
X6.0094Y-5.9299
X6.1094Y-5.6299
X6.1094Y-5.9299
X6.2094Y-5.6299
X6.2094Y-5.9299
X6.3094Y-5.6299
X6.3094Y-5.9299
X6.4094Y-5.6299
X6.4094Y-5.9299
X6.5094Y-5.6299
X6.5094Y-5.9299
X6.6094Y-5.6299
X6.6094Y-5.9299
X6.7094Y-5.6299
X6.7094Y-5.9299
X6.8094Y-5.6299
X6.8094Y-5.9299
X6.9094Y-5.6299
X6.9094Y-5.9299
X4.9606Y-3.0118
X5.1575Y-3.0118
X4.7197Y-0.0843
X4.7197Y-0.1843
X4.7197Y-0.2843
X4.7197Y-0.3843
X4.7197Y-0.4843
X4.7197Y-0.5843
X4.7197Y-0.6843
X4.7197Y-0.7843
X4.7197Y-0.8843
X4.7197Y-0.9843
X5.0197Y-0.0843
X5.0197Y-0.1843
X5.0197Y-0.2843
X5.0197Y-0.3843
X5.0197Y-0.4843
X5.0197Y-0.5843
X5.0197Y-0.6843
X5.0197Y-0.7843
X5.0197Y-0.8843
X5.0197Y-0.9843
X6.2992Y-1.811
X6.4961Y-1.811
X0.748Y-6.2008
X0.748Y-6.3008
X0.748Y-6.4008
X0.748Y-6.5008
X0.748Y-6.6008
X0.748Y-6.7008
X0.748Y-6.8008
X0.748Y-6.9008
X1.048Y-6.2008
X1.048Y-6.3008
X1.048Y-6.4008
X1.048Y-6.5008
X1.048Y-6.6008
X1.048Y-6.7008
X1.048Y-6.8008
X1.048Y-6.9008
X2.6575Y-0.0984
X2.8543Y-0.0984
X2.6969Y-3.4402
X2.6969Y-3.7402
X2.7969Y-3.4402
X2.7969Y-3.7402
X2.8969Y-3.4402
X2.8969Y-3.7402
X2.9969Y-3.4402
X2.9969Y-3.7402
X3.0969Y-3.4402
X3.0969Y-3.7402
X3.1969Y-3.4402
X3.1969Y-3.7402
X3.2969Y-3.4402
X3.2969Y-3.7402
X6.7913Y-4.6063
X6.7913Y-4.8031
X1.378Y-7.0669
X1.378Y-7.1669
X1.378Y-7.2669
X1.378Y-7.3669
X1.378Y-7.4669
X1.378Y-7.5669
X1.378Y-7.6669
X1.378Y-7.7669
X1.678Y-7.0669
X1.678Y-7.1669
X1.678Y-7.2669
X1.678Y-7.3669
X1.678Y-7.4669
X1.678Y-7.5669
X1.678Y-7.6669
X1.678Y-7.7669
X6.3882Y-1.3583
X6.3882Y-1.6583
X6.4882Y-1.3583
X6.4882Y-1.6583
X6.5882Y-1.3583
X6.5882Y-1.6583
X6.6882Y-1.3583
X6.6882Y-1.6583
X6.7882Y-1.3583
X6.7882Y-1.6583
X6.8882Y-1.3583
X6.8882Y-1.6583
X6.9882Y-1.3583
X6.9882Y-1.6583
X2.6969Y-3.0071
X2.6969Y-3.3071
X2.7969Y-3.0071
X2.7969Y-3.3071
X2.8969Y-3.0071
X2.8969Y-3.3071
X2.9969Y-3.0071
X2.9969Y-3.3071
X3.0969Y-3.0071
X3.0969Y-3.3071
X3.1969Y-3.0071
X3.1969Y-3.3071
X3.2969Y-3.0071
X3.2969Y-3.3071
X7.0472Y-7.1457
X7.0472Y-7.3425
X5.6008Y-0.0787
X5.6008Y-0.3787
X5.7008Y-0.0787
X5.7008Y-0.3787
X5.8008Y-0.0787
X5.8008Y-0.3787
X5.9008Y-0.0787
X5.9008Y-0.3787
X6.0008Y-0.0787
X6.0008Y-0.3787
X6.1008Y-0.0787
X6.1008Y-0.3787
X6.2008Y-0.0787
X6.2008Y-0.3787
X8.6614Y-0.2165
X8.6614Y-0.4134
X8.563Y-2.5787
X8.563Y-2.7756
X2.7449Y-4.5079
X2.7449Y-4.8079
X2.8449Y-4.5079
X2.8449Y-4.8079
X2.9449Y-4.5079
X2.9449Y-4.8079
X3.0449Y-4.5079
X3.0449Y-4.8079
X3.1449Y-4.5079
X3.1449Y-4.8079
X3.2449Y-4.5079
X3.2449Y-4.8079
X3.3449Y-4.5079
X3.3449Y-4.8079
X3.4449Y-4.5079
X3.4449Y-4.8079
X8.8583Y-4.9409
X8.8583Y-5.0409
X8.8583Y-5.1409
X8.8583Y-5.2409
X8.8583Y-5.3409
X8.8583Y-5.4409
X8.8583Y-5.5409
X8.8583Y-5.6409
X8.8583Y-5.7409
X8.8583Y-5.8409
X8.8583Y-5.9409
X8.8583Y-6.0409
X8.8583Y-6.1409
X8.8583Y-6.2409
X8.8583Y-6.3409
X8.8583Y-6.4409
X9.4583Y-4.9409
X9.4583Y-5.0409
X9.4583Y-5.1409
X9.4583Y-5.2409
X9.4583Y-5.3409
X9.4583Y-5.4409
X9.4583Y-5.5409
X9.4583Y-5.6409
X9.4583Y-5.7409
X9.4583Y-5.8409
X9.4583Y-5.9409
X9.4583Y-6.0409
X9.4583Y-6.1409
X9.4583Y-6.2409
X9.4583Y-6.3409
X9.4583Y-6.4409
X9.6063Y-4.9409
X9.6063Y-5.0409
X9.6063Y-5.1409
X9.6063Y-5.2409
X9.6063Y-5.3409
X9.6063Y-5.4409
X9.6063Y-5.5409
X9.6063Y-5.6409
X9.6063Y-5.7409
X9.6063Y-5.8409
X9.6063Y-5.9409
X9.6063Y-6.0409
X9.6063Y-6.1409
X9.6063Y-6.2409
X9.6063Y-6.3409
X9.6063Y-6.4409
X10.2063Y-4.9409
X10.2063Y-5.0409
X10.2063Y-5.1409
X10.2063Y-5.2409
X10.2063Y-5.3409
X10.2063Y-5.4409
X10.2063Y-5.5409
X10.2063Y-5.6409
X10.2063Y-5.7409
X10.2063Y-5.8409
X10.2063Y-5.9409
X10.2063Y-6.0409
X10.2063Y-6.1409
X10.2063Y-6.2409
X10.2063Y-6.3409
X10.2063Y-6.4409
X1.811Y-6.2008
X1.811Y-6.3976
X8.9425Y-2.126
X8.9425Y-2.426
X9.0425Y-2.126
X9.0425Y-2.426
X9.1425Y-2.126
X9.1425Y-2.426
X9.2425Y-2.126
X9.2425Y-2.426
X9.3425Y-2.126
X9.3425Y-2.426
X9.4425Y-2.126
X9.4425Y-2.426
X9.5425Y-2.126
X9.5425Y-2.426
X9.6425Y-2.126
X9.6425Y-2.426
X9.7425Y-2.126
X9.7425Y-2.426
X9.8425Y-2.126
X9.8425Y-2.426
X1.1811Y-7.0669
X1.1811Y-7.2638
X6.6307Y-1.8441
X6.6307Y-1.9441
X6.6307Y-2.0441
X6.6307Y-2.1441
X6.6307Y-2.2441
X6.8307Y-1.8441
X6.8307Y-1.9441
X6.8307Y-2.0441
X6.8307Y-2.1441
X6.8307Y-2.2441
X1.6339Y-4.1535
X1.6339Y-4.3504
X7.0472Y-8.0118
X7.0472Y-8.2087
X4.3898Y-6.6535
X4.3898Y-6.7535
X4.3898Y-6.8535
X4.3898Y-6.9535
X4.3898Y-7.0535
X4.3898Y-7.1535
X4.3898Y-7.2535
X4.3898Y-7.3535
X4.6898Y-6.6535
X4.6898Y-6.7535
X4.6898Y-6.8535
X4.6898Y-6.9535
X4.6898Y-7.0535
X4.6898Y-7.1535
X4.6898Y-7.2535
X4.6898Y-7.3535
X7.5787Y-2.8496
X7.5787Y-3.1496
X7.6787Y-2.8496
X7.6787Y-3.1496
X7.7787Y-2.8496
X7.7787Y-3.1496
X7.8787Y-2.8496
X7.8787Y-3.1496
X7.9787Y-2.8496
X7.9787Y-3.1496
X8.0787Y-2.8496
X8.0787Y-3.1496
X8.1787Y-2.8496
X8.1787Y-3.1496
X2.7756Y-8.0315
X2.7756Y-8.2283
X9.5669Y-0.6299
X9.5669Y-0.8268
X1.1811Y-6.2008
X1.1811Y-6.3976
X0.1181Y-0.5906
X0.1181Y-0.7874
X3.878Y-2.2638
X3.878Y-2.3638
X3.878Y-2.4638
X3.878Y-2.5638
X3.878Y-2.6638
X3.878Y-2.7638
X3.878Y-2.8638
X4.178Y-2.2638
X4.178Y-2.3638
X4.178Y-2.4638
X4.178Y-2.5638
X4.178Y-2.6638
X4.178Y-2.7638
X4.178Y-2.8638
X6.9094Y-5.315
X6.9094Y-5.5118
X5.8661Y-8.0118
X5.8661Y-8.2087
X9.4638Y-1.9685
X9.7638Y-1.9685
X2.6039Y-1.2795
X2.6039Y-1.5795
X2.7039Y-1.2795
X2.7039Y-1.5795
X2.8039Y-1.2795
X2.8039Y-1.5795
X2.9039Y-1.2795
X2.9039Y-1.5795
X3.0039Y-1.2795
X3.0039Y-1.5795
X3.1039Y-1.2795
X3.1039Y-1.5795
X3.2039Y-1.2795
X3.2039Y-1.5795
X3.3039Y-1.2795
X3.3039Y-1.5795
X3.4039Y-1.2795
X3.4039Y-1.5795
X3.5039Y-1.2795
X3.5039Y-1.5795
X8.3071Y-6.4567
X8.5039Y-6.4567
X5.748Y-3.1496
X5.748Y-3.2496
X5.748Y-3.3496
X5.748Y-3.4496
X5.748Y-3.5496
X5.748Y-3.6496
X5.748Y-3.7496
X6.048Y-3.1496
X6.048Y-3.2496
X6.048Y-3.3496
X6.048Y-3.4496
X6.048Y-3.5496
X6.048Y-3.6496
X6.048Y-3.7496
X9.9803Y-2.2244
X9.9803Y-2.4213
X1.0339Y-7.9331
X1.0339Y-8.2331
X1.1339Y-7.9331
X1.1339Y-8.2331
X1.2339Y-7.9331
X1.2339Y-8.2331
X1.3339Y-7.9331
X1.3339Y-8.2331
X1.4339Y-7.9331
X1.4339Y-8.2331
X1.5339Y-7.9331
X1.5339Y-8.2331
X1.6339Y-7.9331
X1.6339Y-8.2331
X6.4173Y-0.4874
X6.4173Y-0.7874
X6.5173Y-0.4874
X6.5173Y-0.7874
X6.6173Y-0.4874
X6.6173Y-0.7874
X3.5827Y-3.0268
X3.5827Y-3.3268
X3.6827Y-3.0268
X3.6827Y-3.3268
X3.7827Y-3.0268
X3.7827Y-3.3268
X3.8827Y-3.0268
X3.8827Y-3.3268
X3.9827Y-3.0268
X3.9827Y-3.3268
X4.0827Y-3.0268
X4.0827Y-3.3268
X4.1827Y-3.0268
X4.1827Y-3.3268
X2.5591Y-3.0118
X2.5591Y-3.2087
X0.2512Y-1.7803
X0.2512Y-1.8803
X0.2512Y-1.9803
X0.2512Y-2.0803
X0.2512Y-2.1803
X0.2512Y-2.2803
X0.2512Y-2.3803
X0.2512Y-2.4803
X0.5512Y-1.7803
X0.5512Y-1.8803
X0.5512Y-1.9803
X0.5512Y-2.0803
X0.5512Y-2.1803
X0.5512Y-2.2803
X0.5512Y-2.3803
X0.5512Y-2.4803
X5.4528Y-1.122
X5.6496Y-1.122
X1.378Y-6.2008
X1.378Y-6.3008
X1.378Y-6.4008
X1.378Y-6.5008
X1.378Y-6.6008
X1.378Y-6.7008
X1.378Y-6.8008
X1.378Y-6.9008
X1.678Y-6.2008
X1.678Y-6.3008
X1.678Y-6.4008
X1.678Y-6.5008
X1.678Y-6.6008
X1.678Y-6.7008
X1.678Y-6.8008
X1.678Y-6.9008
X2.9921Y-0.2362
X2.9921Y-0.3362
X2.9921Y-0.4362
X2.9921Y-0.5362
X2.9921Y-0.6362
X2.9921Y-0.7362
X2.9921Y-0.8362
X3.2921Y-0.2362
X3.2921Y-0.3362
X3.2921Y-0.4362
X3.2921Y-0.5362
X3.2921Y-0.6362
X3.2921Y-0.7362
X3.2921Y-0.8362
X6.0039Y-1.1024
X6.2008Y-1.1024
X2.6969Y-5.1378
X2.6969Y-5.2378
X2.6969Y-5.3378
X2.6969Y-5.4378
X2.6969Y-5.5378
X2.6969Y-5.6378
X2.6969Y-5.7378
X2.6969Y-5.8378
X2.6969Y-5.9378
X2.6969Y-6.0378
X2.9969Y-5.1378
X2.9969Y-5.2378
X2.9969Y-5.3378
X2.9969Y-5.4378
X2.9969Y-5.5378
X2.9969Y-5.6378
X2.9969Y-5.7378
X2.9969Y-5.8378
X2.9969Y-5.9378
X2.9969Y-6.0378
X8.1598Y-1.1417
X8.1598Y-1.4417
X8.2598Y-1.1417
X8.2598Y-1.4417
X8.3598Y-1.1417
X8.3598Y-1.4417
X8.4598Y-1.1417
X8.4598Y-1.4417
X8.5598Y-1.1417
X8.5598Y-1.4417
X8.6598Y-1.1417
X8.6598Y-1.4417
X8.7598Y-1.1417
X8.7598Y-1.4417
X7.126Y-1.4567
X7.126Y-1.6535
X1.5638Y-4.5079
X1.5638Y-4.8079
X1.6638Y-4.5079
X1.6638Y-4.8079
X1.7638Y-4.5079
X1.7638Y-4.8079
X1.8638Y-4.5079
X1.8638Y-4.8079
X1.9638Y-4.5079
X1.9638Y-4.8079
X2.0638Y-4.5079
X2.0638Y-4.8079
X2.1638Y-4.5079
X2.1638Y-4.8079
X2.2638Y-4.5079
X2.2638Y-4.8079
X9.1535Y-1.9882
X9.3504Y-1.9882
X8.1102Y-6.7323
X8.1102Y-6.8323
X8.1102Y-6.9323
X8.1102Y-7.0323
X8.1102Y-7.1323
X8.1102Y-7.2323
X8.1102Y-7.3323
X8.1102Y-7.4323
X8.1102Y-7.5323
X8.1102Y-7.6323
X8.1102Y-7.7323
X8.1102Y-7.8323
X8.1102Y-7.9323
X8.1102Y-8.0323
X8.1102Y-8.1323
X8.1102Y-8.2323
X8.7102Y-6.7323
X8.7102Y-6.8323
X8.7102Y-6.9323
X8.7102Y-7.0323
X8.7102Y-7.1323
X8.7102Y-7.2323
X8.7102Y-7.3323
X8.7102Y-7.4323
X8.7102Y-7.5323
X8.7102Y-7.6323
X8.7102Y-7.7323
X8.7102Y-7.8323
X8.7102Y-7.9323
X8.7102Y-8.0323
X8.7102Y-8.1323
X8.7102Y-8.2323
X1.378Y-5.1378
X1.378Y-5.2378
X1.378Y-5.3378
X1.378Y-5.4378
X1.378Y-5.5378
X1.378Y-5.6378
X1.378Y-5.7378
X1.378Y-5.8378
X1.378Y-5.9378
X1.378Y-6.0378
X1.678Y-5.1378
X1.678Y-5.2378
X1.678Y-5.3378
X1.678Y-5.4378
X1.678Y-5.5378
X1.678Y-5.6378
X1.678Y-5.7378
X1.678Y-5.8378
X1.678Y-5.9378
X1.678Y-6.0378
X0.5512Y-5.1378
X0.5512Y-5.3346
X6.9291Y-2.7953
X6.9291Y-3.0953
X0.5512Y-6.2008
X0.5512Y-6.3976
X6.9654Y-1.8441
X6.9654Y-1.9441
X6.9654Y-2.0441
X6.9654Y-2.1441
X6.9654Y-2.2441
X7.1654Y-1.8441
X7.1654Y-1.9441
X7.1654Y-2.0441
X7.1654Y-2.1441
X7.1654Y-2.2441
X4.8283Y-7.9134
X4.8283Y-8.2134
X4.9283Y-7.9134
X4.9283Y-8.2134
X5.0283Y-7.9134
X5.0283Y-8.2134
X5.1283Y-7.9134
X5.1283Y-8.2134
X5.2283Y-7.9134
X5.2283Y-8.2134
X5.3283Y-7.9134
X5.3283Y-8.2134
X5.4283Y-7.9134
X5.4283Y-8.2134
X5.5283Y-7.9134
X5.5283Y-8.2134
X5.6283Y-7.9134
X5.6283Y-8.2134
X5.7283Y-7.9134
X5.7283Y-8.2134
X4.5472Y-4.6063
X4.5472Y-4.8031
X5.3937Y-2.5197
X5.5906Y-2.5197
X4.3898Y-7.6181
X4.3898Y-7.7181
X4.3898Y-7.8181
X4.3898Y-7.9181
X4.3898Y-8.0181
X4.3898Y-8.1181
X4.3898Y-8.2181
X4.6898Y-7.6181
X4.6898Y-7.7181
X4.6898Y-7.8181
X4.6898Y-7.9181
X4.6898Y-8.0181
X4.6898Y-8.1181
X4.6898Y-8.2181
X8.563Y-4.0748
X8.563Y-4.2717
X3.4449Y-3.4646
X3.4449Y-3.6614
X3.9567Y-7.6181
X3.9567Y-7.7181
X3.9567Y-7.8181
X3.9567Y-7.9181
X3.9567Y-8.0181
X3.9567Y-8.1181
X3.9567Y-8.2181
X4.2567Y-7.6181
X4.2567Y-7.7181
X4.2567Y-7.8181
X4.2567Y-7.9181
X4.2567Y-8.0181
X4.2567Y-8.1181
X4.2567Y-8.2181
X9.252Y-4.8031
X9.4488Y-4.8031
X3.6417Y-1.378
X3.6417Y-1.5748
X9.4685Y-1.8307
X9.7685Y-1.8307
X5.2953Y-2.6575
X5.2953Y-2.7575
X5.2953Y-2.8575
X5.2953Y-2.9575
X5.2953Y-3.0575
X5.2953Y-3.1575
X5.2953Y-3.2575
X5.2953Y-3.3575
X5.2953Y-3.4575
X5.2953Y-3.5575
X5.2953Y-3.6575
X5.2953Y-3.7575
X5.5953Y-2.6575
X5.5953Y-2.7575
X5.5953Y-2.8575
X5.5953Y-2.9575
X5.5953Y-3.0575
X5.5953Y-3.1575
X5.5953Y-3.2575
X5.5953Y-3.3575
X5.5953Y-3.4575
X5.5953Y-3.5575
X5.5953Y-3.6575
X5.5953Y-3.7575
X0.7087Y-0.8465
X0.7087Y-1.0433
X2.5591Y-2.5984
X2.5591Y-2.7953
X7.0472Y-7.5787
X7.0472Y-7.7756
X6.3189Y-0.9252
X6.6189Y-0.9252
X4.326Y-2.1362
X4.326Y-2.2362
X4.326Y-2.3362
X4.326Y-2.4362
X4.326Y-2.5362
X4.326Y-2.6362
X4.326Y-2.7362
X4.626Y-2.1362
X4.626Y-2.2362
X4.626Y-2.3362
X4.626Y-2.4362
X4.626Y-2.5362
X4.626Y-2.6362
X4.626Y-2.7362
X8.563Y-3.3268
X8.563Y-3.5236
X3.4205Y-0.0843
X3.4205Y-0.1843
X3.4205Y-0.2843
X3.4205Y-0.3843
X3.4205Y-0.4843
X3.4205Y-0.5843
X3.4205Y-0.6843
X3.4205Y-0.7843
X3.4205Y-0.8843
X3.4205Y-0.9843
X3.7205Y-0.0843
X3.7205Y-0.1843
X3.7205Y-0.2843
X3.7205Y-0.3843
X3.7205Y-0.4843
X3.7205Y-0.5843
X3.7205Y-0.6843
X3.7205Y-0.7843
X3.7205Y-0.8843
X3.7205Y-0.9843
X8.5433Y-1.5748
X8.7402Y-1.5748
X0.1283Y-7.9331
X0.1283Y-8.2331
X0.2283Y-7.9331
X0.2283Y-8.2331
X0.3283Y-7.9331
X0.3283Y-8.2331
X0.4283Y-7.9331
X0.4283Y-8.2331
X0.5283Y-7.9331
X0.5283Y-8.2331
X0.6283Y-7.9331
X0.6283Y-8.2331
X0.7283Y-7.9331
X0.7283Y-8.2331
X8.563Y-2.8693
X8.563Y-3.1693
X1.6732Y-2.5197
X1.6732Y-2.6197
X1.6732Y-2.7197
X1.6732Y-2.8197
X1.6732Y-2.9197
X1.6732Y-3.0197
X1.6732Y-3.1197
X1.6732Y-3.2197
X1.6732Y-3.3197
X1.6732Y-3.4197
X1.9732Y-2.5197
X1.9732Y-2.6197
X1.9732Y-2.7197
X1.9732Y-2.8197
X1.9732Y-2.9197
X1.9732Y-3.0197
X1.9732Y-3.1197
X1.9732Y-3.2197
X1.9732Y-3.3197
X1.9732Y-3.4197
X3.9472Y-1.6929
X3.9472Y-1.9929
X4.0472Y-1.6929
X4.0472Y-1.9929
X4.1472Y-1.6929
X4.1472Y-1.9929
X4.2472Y-1.6929
X4.2472Y-1.9929
X4.3472Y-1.6929
X4.3472Y-1.9929
X4.4472Y-1.6929
X4.4472Y-1.9929
X4.5472Y-1.6929
X4.5472Y-1.9929
X5.8661Y-7.5787
X5.8661Y-7.7756
X2.6969Y-7.0669
X2.6969Y-7.1669
X2.6969Y-7.2669
X2.6969Y-7.3669
X2.6969Y-7.4669
X2.6969Y-7.5669
X2.6969Y-7.6669
X2.6969Y-7.7669
X2.9969Y-7.0669
X2.9969Y-7.1669
X2.9969Y-7.2669
X2.9969Y-7.3669
X2.9969Y-7.4669
X2.9969Y-7.5669
X2.9969Y-7.6669
X2.9969Y-7.7669
X4.3307Y-3.7598
X4.5276Y-3.7598
X5.9843Y-0.5118
X6.1811Y-0.5118
X3.3661Y-5.1181
X3.3661Y-5.2181
X3.3661Y-5.3181
X3.3661Y-5.4181
X3.3661Y-5.5181
X3.3661Y-5.6181
X3.3661Y-5.7181
X3.3661Y-5.8181
X3.3661Y-5.9181
X3.3661Y-6.0181
X3.6661Y-5.1181
X3.6661Y-5.2181
X3.6661Y-5.3181
X3.6661Y-5.4181
X3.6661Y-5.5181
X3.6661Y-5.6181
X3.6661Y-5.7181
X3.6661Y-5.8181
X3.6661Y-5.9181
X3.6661Y-6.0181
X0.5992Y-4.5276
X0.5992Y-4.8276
X0.6992Y-4.5276
X0.6992Y-4.8276
X0.7992Y-4.5276
X0.7992Y-4.8276
X0.8992Y-4.5276
X0.8992Y-4.8276
X0.9992Y-4.5276
X0.9992Y-4.8276
X1.0992Y-4.5276
X1.0992Y-4.8276
X1.1992Y-4.5276
X1.1992Y-4.8276
X1.2992Y-4.5276
X1.2992Y-4.8276
X4.326Y-3.022
X4.326Y-3.122
X4.326Y-3.222
X4.326Y-3.322
X4.326Y-3.422
X4.326Y-3.522
X4.326Y-3.622
X4.626Y-3.022
X4.626Y-3.122
X4.626Y-3.222
X4.626Y-3.322
X4.626Y-3.422
X4.626Y-3.522
X4.626Y-3.622
X8.2677Y-2.1457
X8.4646Y-2.1457
X8.1598Y-0.5709
X8.1598Y-0.8709
X8.2598Y-0.5709
X8.2598Y-0.8709
X8.3598Y-0.5709
X8.3598Y-0.8709
X8.4598Y-0.5709
X8.4598Y-0.8709
X8.5598Y-0.5709
X8.5598Y-0.8709
X8.6598Y-0.5709
X8.6598Y-0.8709
X8.7598Y-0.5709
X8.7598Y-0.8709
X7.1063Y-0.9252
X7.3031Y-0.9252
X0.748Y-5.1378
X0.748Y-5.2378
X0.748Y-5.3378
X0.748Y-5.4378
X0.748Y-5.5378
X0.748Y-5.6378
X0.748Y-5.7378
X0.748Y-5.8378
X0.748Y-5.9378
X0.748Y-6.0378
X1.048Y-5.1378
X1.048Y-5.2378
X1.048Y-5.3378
X1.048Y-5.4378
X1.048Y-5.5378
X1.048Y-5.6378
X1.048Y-5.7378
X1.048Y-5.8378
X1.048Y-5.9378
X1.048Y-6.0378
X7.3622Y-6.7323
X7.3622Y-6.8323
X7.3622Y-6.9323
X7.3622Y-7.0323
X7.3622Y-7.1323
X7.3622Y-7.2323
X7.3622Y-7.3323
X7.3622Y-7.4323
X7.3622Y-7.5323
X7.3622Y-7.6323
X7.3622Y-7.7323
X7.3622Y-7.8323
X7.3622Y-7.9323
X7.3622Y-8.0323
X7.3622Y-8.1323
X7.3622Y-8.2323
X7.9622Y-6.7323
X7.9622Y-6.8323
X7.9622Y-6.9323
X7.9622Y-7.0323
X7.9622Y-7.1323
X7.9622Y-7.2323
X7.9622Y-7.3323
X7.9622Y-7.4323
X7.9622Y-7.5323
X7.9622Y-7.6323
X7.9622Y-7.7323
X7.9622Y-7.8323
X7.9622Y-7.9323
X7.9622Y-8.0323
X7.9622Y-8.1323
X7.9622Y-8.2323
X3.7795Y-4.1339
X3.7795Y-4.3307
X7.0622Y-2.5394
X7.3622Y-2.5394
X1.811Y-5.1378
X1.811Y-5.3346
X8.878Y-2.5693
X8.878Y-3.1693
X8.978Y-2.5693
X8.978Y-3.1693
X9.078Y-2.5693
X9.078Y-3.1693
X9.178Y-2.5693
X9.178Y-3.1693
X9.278Y-2.5693
X9.278Y-3.1693
X9.378Y-2.5693
X9.378Y-3.1693
X9.478Y-2.5693
X9.478Y-3.1693
X9.578Y-2.5693
X9.578Y-3.1693
X9.678Y-2.5693
X9.678Y-3.1693
X9.778Y-2.5693
X9.778Y-3.1693
X9.878Y-2.5693
X9.878Y-3.1693
X9.978Y-2.5693
X9.978Y-3.1693
X10.078Y-2.5693
X10.078Y-3.1693
X10.178Y-2.5693
X10.178Y-3.1693
X3.937Y-5.1181
X3.937Y-5.2181
X3.937Y-5.3181
X3.937Y-5.4181
X3.937Y-5.5181
X3.937Y-5.6181
X3.937Y-5.7181
X3.937Y-5.8181
X3.937Y-5.9181
X3.937Y-6.0181
X4.237Y-5.1181
X4.237Y-5.2181
X4.237Y-5.3181
X4.237Y-5.4181
X4.237Y-5.5181
X4.237Y-5.6181
X4.237Y-5.7181
X4.237Y-5.8181
X4.237Y-5.9181
X4.237Y-6.0181
X2.4606Y-5.1378
X2.4606Y-5.3346
X3.4449Y-3.0315
X3.4449Y-3.2283
X6.0094Y-7.0472
X6.0094Y-7.3472
X6.1094Y-7.0472
X6.1094Y-7.3472
X6.2094Y-7.0472
X6.2094Y-7.3472
X6.3094Y-7.0472
X6.3094Y-7.3472
X6.4094Y-7.0472
X6.4094Y-7.3472
X6.5094Y-7.0472
X6.5094Y-7.3472
X6.6094Y-7.0472
X6.6094Y-7.3472
X6.7094Y-7.0472
X6.7094Y-7.3472
X6.8094Y-7.0472
X6.8094Y-7.3472
X6.9094Y-7.0472
X6.9094Y-7.3472
X10.Y-6.5945
X10.1969Y-6.5945
X0.9055Y-2.3819
X1.1024Y-2.3819
X4.2866Y-0.0843
X4.2866Y-0.1843
X4.2866Y-0.2843
X4.2866Y-0.3843
X4.2866Y-0.4843
X4.2866Y-0.5843
X4.2866Y-0.6843
X4.2866Y-0.7843
X4.2866Y-0.8843
X4.2866Y-0.9843
X4.5866Y-0.0843
X4.5866Y-0.1843
X4.5866Y-0.2843
X4.5866Y-0.3843
X4.5866Y-0.4843
X4.5866Y-0.5843
X4.5866Y-0.6843
X4.5866Y-0.7843
X4.5866Y-0.8843
X4.5866Y-0.9843
X8.5039Y-6.5945
X8.7008Y-6.5945
X7.2047Y-6.4567
X7.4016Y-6.4567
X6.7079Y-0.9252
X7.0079Y-0.9252
X0.8071Y-2.5197
X0.8071Y-2.6197
X0.8071Y-2.7197
X0.8071Y-2.8197
X0.8071Y-2.9197
X0.8071Y-3.0197
X0.8071Y-3.1197
X0.8071Y-3.2197
X0.8071Y-3.3197
X0.8071Y-3.4197
X0.8071Y-3.5197
X0.8071Y-3.6197
X1.1071Y-2.5197
X1.1071Y-2.6197
X1.1071Y-2.7197
X1.1071Y-2.8197
X1.1071Y-2.9197
X1.1071Y-3.0197
X1.1071Y-3.1197
X1.1071Y-3.2197
X1.1071Y-3.3197
X1.1071Y-3.4197
X1.1071Y-3.5197
X1.1071Y-3.6197
X1.7717Y-2.3819
X1.9685Y-2.3819
X3.0906Y-0.0984
X3.2874Y-0.0984
X7.9921Y-1.6535
X7.9921Y-1.8504
X4.7787Y-2.1362
X4.7787Y-2.2362
X4.7787Y-2.3362
X4.7787Y-2.4362
X4.7787Y-2.5362
X4.7787Y-2.6362
X4.7787Y-2.7362
X5.0787Y-2.1362
X5.0787Y-2.2362
X5.0787Y-2.3362
X5.0787Y-2.4362
X5.0787Y-2.5362
X5.0787Y-2.6362
X5.0787Y-2.7362
X0.1181Y-2.2835
X0.1181Y-2.4803
X5.8465Y-3.0118
X6.0433Y-3.0118
X0.2512Y-0.9339
X0.2512Y-1.0339
X0.2512Y-1.1339
X0.2512Y-1.2339
X0.2512Y-1.3339
X0.2512Y-1.4339
X0.2512Y-1.5339
X0.2512Y-1.6339
X0.5512Y-0.9339
X0.5512Y-1.0339
X0.5512Y-1.1339
X0.5512Y-1.2339
X0.5512Y-1.3339
X0.5512Y-1.4339
X0.5512Y-1.5339
X0.5512Y-1.6339
X8.7402Y-2.5787
X8.7402Y-2.7756
X0.1181Y-7.0669
X0.1181Y-7.1669
X0.1181Y-7.2669
X0.1181Y-7.3669
X0.1181Y-7.4669
X0.1181Y-7.5669
X0.1181Y-7.6669
X0.1181Y-7.7669
X0.4181Y-7.0669
X0.4181Y-7.1669
X0.4181Y-7.2669
X0.4181Y-7.3669
X0.4181Y-7.4669
X0.4181Y-7.5669
X0.4181Y-7.6669
X0.4181Y-7.7669
X0.8465Y-0.837
X0.8465Y-1.437
X0.9465Y-0.837
X0.9465Y-1.437
X1.0465Y-0.837
X1.0465Y-1.437
X1.1465Y-0.837
X1.1465Y-1.437
X1.2465Y-0.837
X1.2465Y-1.437
X1.3465Y-0.837
X1.3465Y-1.437
X1.4465Y-0.837
X1.4465Y-1.437
X1.5465Y-0.837
X1.5465Y-1.437
X1.6465Y-0.837
X1.6465Y-1.437
X1.7465Y-0.837
X1.7465Y-1.437
X1.8465Y-0.837
X1.8465Y-1.437
X1.9465Y-0.837
X1.9465Y-1.437
X2.0465Y-0.837
X2.0465Y-1.437
X2.1465Y-0.837
X2.1465Y-1.437
X2.2465Y-0.837
X2.2465Y-1.437
X2.3465Y-0.837
X2.3465Y-1.437
X7.815Y-0.5906
X7.815Y-0.7874
X2.126Y-2.4016
X2.126Y-2.5016
X2.126Y-2.6016
X2.126Y-2.7016
X2.126Y-2.8016
X2.126Y-2.9016
X2.126Y-3.0016
X2.126Y-3.1016
X2.426Y-2.4016
X2.426Y-2.5016
X2.426Y-2.6016
X2.426Y-2.7016
X2.426Y-2.8016
X2.426Y-2.9016
X2.426Y-3.0016
X2.426Y-3.1016
X5.8858Y-1.2598
X6.0827Y-1.2598
X0.748Y-7.0669
X0.748Y-7.1669
X0.748Y-7.2669
X0.748Y-7.3669
X0.748Y-7.4669
X0.748Y-7.5669
X0.748Y-7.6669
X0.748Y-7.7669
X1.048Y-7.0669
X1.048Y-7.1669
X1.048Y-7.2669
X1.048Y-7.3669
X1.048Y-7.4669
X1.048Y-7.5669
X1.048Y-7.6669
X1.048Y-7.7669
X4.6457Y-5.1181
X4.8425Y-5.1181
X2.0276Y-6.2008
X2.0276Y-6.3008
X2.0276Y-6.4008
X2.0276Y-6.5008
X2.0276Y-6.6008
X2.0276Y-6.7008
X2.0276Y-6.8008
X2.0276Y-6.9008
X2.3276Y-6.2008
X2.3276Y-6.3008
X2.3276Y-6.4008
X2.3276Y-6.5008
X2.3276Y-6.6008
X2.3276Y-6.7008
X2.3276Y-6.8008
X2.3276Y-6.9008
X8.1598Y-1.7126
X8.1598Y-2.0126
X8.2598Y-1.7126
X8.2598Y-2.0126
X8.3598Y-1.7126
X8.3598Y-2.0126
X8.4598Y-1.7126
X8.4598Y-2.0126
X8.5598Y-1.7126
X8.5598Y-2.0126
X8.6598Y-1.7126
X8.6598Y-2.0126
X8.7598Y-1.7126
X8.7598Y-2.0126
X2.5591Y-0.2362
X2.5591Y-0.3362
X2.5591Y-0.4362
X2.5591Y-0.5362
X2.5591Y-0.6362
X2.5591Y-0.7362
X2.5591Y-0.8362
X2.8591Y-0.2362
X2.8591Y-0.3362
X2.8591Y-0.4362
X2.8591Y-0.5362
X2.8591Y-0.6362
X2.8591Y-0.7362
X2.8591Y-0.8362
X7.0472Y-6.2795
X7.0472Y-6.4764
X5.6008Y-0.6693
X5.6008Y-0.9693
X5.7008Y-0.6693
X5.7008Y-0.9693
X5.8008Y-0.6693
X5.8008Y-0.9693
X5.9008Y-0.6693
X5.9008Y-0.9693
X6.0008Y-0.6693
X6.0008Y-0.9693
X6.1008Y-0.6693
X6.1008Y-0.9693
X6.2008Y-0.6693
X6.2008Y-0.9693
X8.3024Y-5.4189
X8.3024Y-5.5189
X8.3024Y-5.6189
X8.3024Y-5.7189
X8.3024Y-5.8189
X8.3024Y-5.9189
X8.3024Y-6.0189
X8.3024Y-6.1189
X8.3024Y-6.2189
X8.3024Y-6.3189
X8.6024Y-5.4189
X8.6024Y-5.5189
X8.6024Y-5.6189
X8.6024Y-5.7189
X8.6024Y-5.8189
X8.6024Y-5.9189
X8.6024Y-6.0189
X8.6024Y-6.1189
X8.6024Y-6.2189
X8.6024Y-6.3189
X8.9173Y-1.6535
X8.9173Y-1.8504
X7.5787Y-4.8575
X7.5787Y-5.1575
X7.6787Y-4.8575
X7.6787Y-5.1575
X7.7787Y-4.8575
X7.7787Y-5.1575
X7.8787Y-4.8575
X7.8787Y-5.1575
X7.9787Y-4.8575
X7.9787Y-5.1575
X8.0787Y-4.8575
X8.0787Y-5.1575
X8.1787Y-4.8575
X8.1787Y-5.1575
X8.2787Y-4.8575
X8.2787Y-5.1575
X8.3787Y-4.8575
X8.3787Y-5.1575
X8.4787Y-4.8575
X8.4787Y-5.1575
X8.5787Y-4.8575
X8.5787Y-5.1575
X8.6787Y-4.8575
X8.6787Y-5.1575
X6.0094Y-7.9134
X6.0094Y-8.2134
X6.1094Y-7.9134
X6.1094Y-8.2134
X6.2094Y-7.9134
X6.2094Y-8.2134
X6.3094Y-7.9134
X6.3094Y-8.2134
X6.4094Y-7.9134
X6.4094Y-8.2134
X6.5094Y-7.9134
X6.5094Y-8.2134
X6.6094Y-7.9134
X6.6094Y-8.2134
X6.7094Y-7.9134
X6.7094Y-8.2134
X6.8094Y-7.9134
X6.8094Y-8.2134
X6.9094Y-7.9134
X6.9094Y-8.2134
X0.5512Y-7.0472
X0.5512Y-7.2441
X7.0622Y-2.4016
X7.3622Y-2.4016
X3.5827Y-4.626
X3.5827Y-4.8228
X5.7677Y-2.0472
X5.7677Y-2.1472
X5.7677Y-2.2472
X5.7677Y-2.3472
X5.7677Y-2.4472
X5.7677Y-2.5472
X5.7677Y-2.6472
X6.0677Y-2.0472
X6.0677Y-2.1472
X6.0677Y-2.2472
X6.0677Y-2.3472
X6.0677Y-2.4472
X6.0677Y-2.5472
X6.0677Y-2.6472
X3.7992Y-5.1181
X3.7992Y-5.315
X8.4449Y-2.2835
X8.7449Y-2.2835
X5.8811Y-1.5354
X6.1811Y-1.5354
X7.4118Y-0.9252
X7.4118Y-1.2252
X7.5118Y-0.9252
X7.5118Y-1.2252
X7.6118Y-0.9252
X7.6118Y-1.2252
X7.7118Y-0.9252
X7.7118Y-1.2252
X7.8118Y-0.9252
X7.8118Y-1.2252
X7.9118Y-0.9252
X7.9118Y-1.2252
X8.0118Y-0.9252
X8.0118Y-1.2252
X2.4606Y-6.2008
X2.4606Y-6.3976
X8.9173Y-0.1181
X8.9173Y-0.2677
X6.0094Y-6.1811
X6.0094Y-6.4811
X6.1094Y-6.1811
X6.1094Y-6.4811
X6.2094Y-6.1811
X6.2094Y-6.4811
X6.3094Y-6.1811
X6.3094Y-6.4811
X6.4094Y-6.1811
X6.4094Y-6.4811
X6.5094Y-6.1811
X6.5094Y-6.4811
X6.6094Y-6.1811
X6.6094Y-6.4811
X6.7094Y-6.1811
X6.7094Y-6.4811
X6.8094Y-6.1811
X6.8094Y-6.4811
X6.9094Y-6.1811
X6.9094Y-6.4811
X6.7913Y-3.3268
X6.7913Y-3.5236
X7.4409Y-4.8622
X7.4409Y-5.0591
X6.0094Y-7.4803
X6.0094Y-7.7803
X6.1094Y-7.4803
X6.1094Y-7.7803
X6.2094Y-7.4803
X6.2094Y-7.7803
X6.3094Y-7.4803
X6.3094Y-7.7803
X6.4094Y-7.4803
X6.4094Y-7.7803
X6.5094Y-7.4803
X6.5094Y-7.7803
X6.6094Y-7.4803
X6.6094Y-7.7803
X6.7094Y-7.4803
X6.7094Y-7.7803
X6.8094Y-7.4803
X6.8094Y-7.7803
X6.9094Y-7.4803
X6.9094Y-7.7803
X8.3661Y-2.8787
X8.3661Y-3.0709
X3.1299Y-5.1378
X3.1299Y-5.3346
X7.7756Y-6.4567
X7.9724Y-6.4567
X1.2402Y-2.5197
X1.2402Y-2.6197
X1.2402Y-2.7197
X1.2402Y-2.8197
X1.2402Y-2.9197
X1.2402Y-3.0197
X1.2402Y-3.1197
X1.2402Y-3.2197
X1.2402Y-3.3197
X1.2402Y-3.4197
X1.2402Y-3.5197
X1.2402Y-3.6197
X1.5402Y-2.5197
X1.5402Y-2.6197
X1.5402Y-2.7197
X1.5402Y-2.8197
X1.5402Y-2.9197
X1.5402Y-3.0197
X1.5402Y-3.1197
X1.5402Y-3.2197
X1.5402Y-3.3197
X1.5402Y-3.4197
X1.5402Y-3.5197
X1.5402Y-3.6197
X4.685Y-1.7913
X4.685Y-1.9882
X5.8661Y-1.9094
X6.063Y-1.9094
X6.7079Y-1.2008
X7.0079Y-1.2008
X2.5614Y-1.7126
X2.5614Y-2.0126
X2.6614Y-1.7126
X2.6614Y-2.0126
X2.7614Y-1.7126
X2.7614Y-2.0126
X2.8614Y-1.7126
X2.8614Y-2.0126
X2.9614Y-1.7126
X2.9614Y-2.0126
X3.0614Y-1.7126
X3.0614Y-2.0126
X3.1614Y-1.7126
X3.1614Y-2.0126
X3.2614Y-1.7126
X3.2614Y-2.0126
X3.3614Y-1.7126
X3.3614Y-2.0126
X3.4614Y-1.7126
X3.4614Y-2.0126
X3.5614Y-1.7126
X3.5614Y-2.0126
X3.6614Y-1.7126
X3.6614Y-2.0126
X0.7087Y-0.0984
X0.7087Y-0.2953
X4.7244Y-1.122
X4.9213Y-1.122
X4.8331Y-1.6929
X4.8331Y-1.9929
X4.9331Y-1.6929
X4.9331Y-1.9929
X5.0331Y-1.6929
X5.0331Y-1.9929
X5.1331Y-1.6929
X5.1331Y-1.9929
X5.2331Y-1.6929
X5.2331Y-1.9929
X5.3331Y-1.6929
X5.3331Y-1.9929
X5.4331Y-1.6929
X5.4331Y-1.9929
X7.9921Y-1.3386
X7.9921Y-1.5354
X3.3661Y-6.2008
X3.3661Y-6.3008
X3.3661Y-6.4008
X3.3661Y-6.5008
X3.3661Y-6.6008
X3.3661Y-6.7008
X3.3661Y-6.8008
X3.3661Y-6.9008
X3.6661Y-6.2008
X3.6661Y-6.3008
X3.6661Y-6.4008
X3.6661Y-6.5008
X3.6661Y-6.6008
X3.6661Y-6.7008
X3.6661Y-6.8008
X3.6661Y-6.9008
X8.7008Y-2.8693
X8.7008Y-3.1693
X2.5591Y-3.4449
X2.5591Y-3.6417
X0.2512Y-0.0874
X0.2512Y-0.1874
X0.2512Y-0.2874
X0.2512Y-0.3874
X0.2512Y-0.4874
X0.2512Y-0.5874
X0.2512Y-0.6874
X0.2512Y-0.7874
X0.5512Y-0.0874
X0.5512Y-0.1874
X0.5512Y-0.2874
X0.5512Y-0.3874
X0.5512Y-0.4874
X0.5512Y-0.5874
X0.5512Y-0.6874
X0.5512Y-0.7874
X4.0551Y-6.5157
X4.252Y-6.5157
X2.9236Y-7.9331
X2.9236Y-8.2331
X3.0236Y-7.9331
X3.0236Y-8.2331
X3.1236Y-7.9331
X3.1236Y-8.2331
X3.2236Y-7.9331
X3.2236Y-8.2331
X3.3236Y-7.9331
X3.3236Y-8.2331
X3.4236Y-7.9331
X3.4236Y-8.2331
X3.5236Y-7.9331
X3.5236Y-8.2331
X4.3701Y-5.2465
X4.3701Y-5.8465
X4.4701Y-5.2465
X4.4701Y-5.8465
X4.5701Y-5.2465
X4.5701Y-5.8465
X4.6701Y-5.2465
X4.6701Y-5.8465
X4.7701Y-5.2465
X4.7701Y-5.8465
X4.8701Y-5.2465
X4.8701Y-5.8465
X4.9701Y-5.2465
X4.9701Y-5.8465
X5.0701Y-5.2465
X5.0701Y-5.8465
X5.1701Y-5.2465
X5.1701Y-5.8465
X5.2701Y-5.2465
X5.2701Y-5.8465
X5.3701Y-5.2465
X5.3701Y-5.8465
X5.4701Y-5.2465
X5.4701Y-5.8465
X5.5701Y-5.2465
X5.5701Y-5.8465
X5.6701Y-5.2465
X5.6701Y-5.8465
X5.7701Y-5.2465
X5.7701Y-5.8465
X5.8701Y-5.2465
X5.8701Y-5.8465
X2.6969Y-2.574
X2.6969Y-2.874
X2.7969Y-2.574
X2.7969Y-2.874
X2.8969Y-2.574
X2.8969Y-2.874
X2.9969Y-2.574
X2.9969Y-2.874
X3.0969Y-2.574
X3.0969Y-2.874
X3.1969Y-2.574
X3.1969Y-2.874
X3.2969Y-2.574
X3.2969Y-2.874
X5.Y-6.1614
X5.Y-6.3583
X2.0276Y-5.1378
X2.0276Y-5.2378
X2.0276Y-5.3378
X2.0276Y-5.4378
X2.0276Y-5.5378
X2.0276Y-5.6378
X2.0276Y-5.7378
X2.0276Y-5.8378
X2.0276Y-5.9378
X2.0276Y-6.0378
X2.3276Y-5.1378
X2.3276Y-5.2378
X2.3276Y-5.3378
X2.3276Y-5.4378
X2.3276Y-5.5378
X2.3276Y-5.6378
X2.3276Y-5.7378
X2.3276Y-5.8378
X2.3276Y-5.9378
X2.3276Y-6.0378
X5.9535Y-4.4882
X5.9535Y-4.7882
X6.0535Y-4.4882
X6.0535Y-4.7882
X6.1535Y-4.4882
X6.1535Y-4.7882
X6.2535Y-4.4882
X6.2535Y-4.7882
X6.3535Y-4.4882
X6.3535Y-4.7882
X6.4535Y-4.4882
X6.4535Y-4.7882
X6.5535Y-4.4882
X6.5535Y-4.7882
X6.6535Y-4.4882
X6.6535Y-4.7882
X0.8465Y-1.585
X0.8465Y-2.185
X0.9465Y-1.585
X0.9465Y-2.185
X1.0465Y-1.585
X1.0465Y-2.185
X1.1465Y-1.585
X1.1465Y-2.185
X1.2465Y-1.585
X1.2465Y-2.185
X1.3465Y-1.585
X1.3465Y-2.185
X1.4465Y-1.585
X1.4465Y-2.185
X1.5465Y-1.585
X1.5465Y-2.185
X1.6465Y-1.585
X1.6465Y-2.185
X1.7465Y-1.585
X1.7465Y-2.185
X1.8465Y-1.585
X1.8465Y-2.185
X1.9465Y-1.585
X1.9465Y-2.185
X2.0465Y-1.585
X2.0465Y-2.185
X2.1465Y-1.585
X2.1465Y-2.185
X2.2465Y-1.585
X2.2465Y-2.185
X2.3465Y-1.585
X2.3465Y-2.185
X5.315Y-1.2598
X5.315Y-1.4567
X4.9858Y-4.0354
X4.9858Y-4.3354
X5.0858Y-4.0354
X5.0858Y-4.3354
X5.1858Y-4.0354
X5.1858Y-4.3354
X5.2858Y-4.0354
X5.2858Y-4.3354
X5.3858Y-4.0354
X5.3858Y-4.3354
X5.4858Y-4.0354
X5.4858Y-4.3354
X5.5858Y-4.0354
X5.5858Y-4.3354
X5.6858Y-4.0354
X5.6858Y-4.3354
X5.7858Y-4.0354
X5.7858Y-4.3354
X5.8858Y-4.0354
X5.8858Y-4.3354
X8.7008Y-3.3173
X8.7008Y-3.9173
X8.8008Y-3.3173
X8.8008Y-3.9173
X8.9008Y-3.3173
X8.9008Y-3.9173
X9.0008Y-3.3173
X9.0008Y-3.9173
X9.1008Y-3.3173
X9.1008Y-3.9173
X9.2008Y-3.3173
X9.2008Y-3.9173
X9.3008Y-3.3173
X9.3008Y-3.9173
X9.4008Y-3.3173
X9.4008Y-3.9173
X9.5008Y-3.3173
X9.5008Y-3.9173
X9.6008Y-3.3173
X9.6008Y-3.9173
X9.7008Y-3.3173
X9.7008Y-3.9173
X9.8008Y-3.3173
X9.8008Y-3.9173
X9.9008Y-3.3173
X9.9008Y-3.9173
X10.0008Y-3.3173
X10.0008Y-3.9173
X10.1008Y-3.3173
X10.1008Y-3.9173
X10.2008Y-3.3173
X10.2008Y-3.9173
X7.1063Y-1.063
X7.3031Y-1.063
X0.1181Y-5.1378
X0.1181Y-5.2378
X0.1181Y-5.3378
X0.1181Y-5.4378
X0.1181Y-5.5378
X0.1181Y-5.6378
X0.1181Y-5.7378
X0.1181Y-5.8378
X0.1181Y-5.9378
X0.1181Y-6.0378
X0.4181Y-5.1378
X0.4181Y-5.2378
X0.4181Y-5.3378
X0.4181Y-5.4378
X0.4181Y-5.5378
X0.4181Y-5.6378
X0.4181Y-5.7378
X0.4181Y-5.8378
X0.4181Y-5.9378
X0.4181Y-6.0378
X9.6063Y-6.7323
X9.6063Y-6.8323
X9.6063Y-6.9323
X9.6063Y-7.0323
X9.6063Y-7.1323
X9.6063Y-7.2323
X9.6063Y-7.3323
X9.6063Y-7.4323
X9.6063Y-7.5323
X9.6063Y-7.6323
X9.6063Y-7.7323
X9.6063Y-7.8323
X9.6063Y-7.9323
X9.6063Y-8.0323
X9.6063Y-8.1323
X9.6063Y-8.2323
X10.2063Y-6.7323
X10.2063Y-6.8323
X10.2063Y-6.9323
X10.2063Y-7.0323
X10.2063Y-7.1323
X10.2063Y-7.2323
X10.2063Y-7.3323
X10.2063Y-7.4323
X10.2063Y-7.5323
X10.2063Y-7.6323
X10.2063Y-7.7323
X10.2063Y-7.8323
X10.2063Y-7.9323
X10.2063Y-8.0323
X10.2063Y-8.1323
X10.2063Y-8.2323
X3.1299Y-6.2008
X3.1299Y-6.3976
X6.2008Y-1.9488
X6.2008Y-2.0488
X6.2008Y-2.1488
X6.2008Y-2.2488
X6.2008Y-2.3488
X6.2008Y-2.4488
X6.2008Y-2.5488
X6.2008Y-2.6488
X6.5008Y-1.9488
X6.5008Y-2.0488
X6.5008Y-2.1488
X6.5008Y-2.2488
X6.5008Y-2.3488
X6.5008Y-2.4488
X6.5008Y-2.5488
X6.5008Y-2.6488
X0.8661Y-8.0315
X0.8661Y-8.2283
X7.3Y-1.8441
X7.3Y-1.9441
X7.3Y-2.0441
X7.3Y-2.1441
X7.3Y-2.2441
X7.5Y-1.8441
X7.5Y-1.9441
X7.5Y-2.0441
X7.5Y-2.1441
X7.5Y-2.2441
X3.6614Y-8.0315
X3.6614Y-8.2283
X6.6898Y-2.3819
X6.6898Y-2.6819
X6.7898Y-2.3819
X6.7898Y-2.6819
X6.8898Y-2.3819
X6.8898Y-2.6819
X4.8283Y-7.0472
X4.8283Y-7.3472
X4.9283Y-7.0472
X4.9283Y-7.3472
X5.0283Y-7.0472
X5.0283Y-7.3472
X5.1283Y-7.0472
X5.1283Y-7.3472
X5.2283Y-7.0472
X5.2283Y-7.3472
X5.3283Y-7.0472
X5.3283Y-7.3472
X5.4283Y-7.0472
X5.4283Y-7.3472
X5.5283Y-7.0472
X5.5283Y-7.3472
X5.6283Y-7.0472
X5.6283Y-7.3472
X5.7283Y-7.0472
X5.7283Y-7.3472
X9.4835Y-0.9598
X9.4835Y-1.0598
X9.4835Y-1.1598
X9.4835Y-1.2598
X9.7835Y-0.9598
X9.7835Y-1.0598
X9.7835Y-1.1598
X9.7835Y-1.2598
X1.437Y-4.626
X1.437Y-4.8228
X7.7559Y-6.5945
X7.9528Y-6.5945
T7
X7.2835Y-0.215
X7.2835Y-0.315
X6.3976Y-0.215
X6.3976Y-0.315
X6.752Y-0.215
X6.752Y-0.315
X7.6378Y-0.215
X7.6378Y-0.315
X6.9291Y-0.215
X6.9291Y-0.315
X7.4606Y-0.215
X7.4606Y-0.315
X7.1063Y-0.215
X7.1063Y-0.315
X6.5748Y-0.215
X6.5748Y-0.315
T9
X0.1953Y-2.8244
X0.1953Y-2.9244
X0.1953Y-3.0244
X0.1953Y-3.1244
X0.1953Y-3.2244
X0.1953Y-3.3244
X0.1953Y-3.4244
X0.1953Y-3.5244
X0.1953Y-3.6244
X0.1953Y-3.7244
X0.1953Y-3.8244
X0.1953Y-3.9244
X0.1953Y-4.0244
X0.1953Y-4.1244
X0.1953Y-4.2244
X0.1953Y-4.3244
X0.1953Y-4.4244
X0.1953Y-4.5244
X0.1953Y-4.6244
X0.1953Y-4.7244
X0.2953Y-2.8244
X0.2953Y-2.9244
X0.2953Y-3.0244
X0.2953Y-3.1244
X0.2953Y-3.2244
X0.2953Y-3.3244
X0.2953Y-3.4244
X0.2953Y-3.5244
X0.2953Y-3.6244
X0.2953Y-3.7244
X0.2953Y-3.8244
X0.2953Y-3.9244
X0.2953Y-4.0244
X0.2953Y-4.1244
X0.2953Y-4.2244
X0.2953Y-4.3244
X0.2953Y-4.4244
X0.2953Y-4.5244
X0.2953Y-4.6244
X0.2953Y-4.7244
T10
X9.9213Y-1.6732
X9.9213Y-1.8504
X10.1772Y-1.6732
X10.1772Y-1.8504
X8.9567Y-0.5512
X8.9567Y-0.8071
X9.1339Y-0.5512
X9.1339Y-0.8071
T11
X9.3425Y-0.1181
X9.8425Y-0.1181
T12
X10.1693Y-0.1378
X10.1693Y-0.3346
T2
X10.0738Y-0.0837G85X10.0482Y-0.0837
G05
X10.0738Y-0.3888G85X10.0482Y-0.3888
G05
T6
X10.2215Y-0.0896G85X10.1998Y-0.0896
G05
X10.2215Y-0.3829G85X10.1998Y-0.3829
G05
T8
X9.7244Y-0.689G85X9.7244Y-0.6102
G05
X9.8819Y-0.4646G85X9.8031Y-0.4646
G05
X9.9606Y-0.689G85X9.9606Y-0.6102
G05
T0
M30
